<?xml version="1.0" encoding="utf-8"?>
<!-- Generator: Adobe Illustrator 26.0.1, SVG Export Plug-In . SVG Version: 6.00 Build 0)  -->
<svg version="1.1" xmlns="http://www.w3.org/2000/svg" xmlns:xlink="http://www.w3.org/1999/xlink" x="0px" y="0px" viewBox="0 0 1312 1312" style="enable-background:new 0 0 1312 1312;" xml:space="preserve">
<style type="text/css">
	.st0{fill:#F2F4F8;stroke:#4D5358;stroke-width:1.0195;stroke-miterlimit:10;}
	.st1{fill:#F2F4F8;stroke:#4D5358;stroke-miterlimit:10;}
	.st2{fill:#F2F4F8;stroke:#4D5358;stroke-width:0.9747;stroke-miterlimit:10;}
	.st3{fill-rule:evenodd;clip-rule:evenodd;fill:none;}
	.st4{fill:none;}
	.st5{font-family:'IBMPlexSans-SemiBold';}
	.st6{font-size:14px;}
	.st7{fill:#4D5358;stroke:#4D5358;stroke-miterlimit:10;}
	.st8{fill:#FFFFFF;stroke:#4D5358;stroke-width:1.0579;stroke-miterlimit:10;}
	.st9{fill:#FFFFFF;stroke:#4D5358;stroke-width:0.9089;stroke-miterlimit:10;}
	.st10{fill:#FFFFFF;stroke:#4D5358;stroke-width:1.0274;stroke-miterlimit:10;}
	.st11{fill:none;stroke:#6F6F6F;stroke-miterlimit:10;}
	.st12{fill:#6F6F6F;}
	.st13{font-family:'IBMPlexSans';}
	.st14{fill:#198038;}
	.st15{fill:#009D9A;}
	.st16{fill:#FA4D56;}
	.st17{fill:#A56EFF;}
	.st18{fill:#1192E8;}
	.st19{fill:#878D96;}
	.st20{fill:none;stroke:#000000;stroke-width:1.5;stroke-miterlimit:10;}
	.st21{fill:none;stroke:#0F62FE;stroke-width:1.5;stroke-miterlimit:10;}
	.st22{fill:none;stroke:#0F62FE;stroke-width:1.5;stroke-miterlimit:10;stroke-dasharray:3.9929,3.9929;}
	.st23{fill:none;stroke:#EE5396;stroke-width:1.5;stroke-miterlimit:10;stroke-dasharray:16,4;}
	.st24{fill:none;stroke:#000000;stroke-miterlimit:10;}
	.st25{fill:none;stroke:#0F62FE;stroke-miterlimit:10;}
	.st26{fill:none;stroke:#0F62FE;stroke-miterlimit:10;stroke-dasharray:3.9546,3.9546;}
	.st27{fill:#0F62FE;}
	.st28{fill:none;stroke:#0F62FE;stroke-miterlimit:10;stroke-dasharray:4.2512,4.2512;}
	.st29{fill:none;stroke:#EE5396;stroke-miterlimit:10;}
	.st30{fill:none;stroke:#EE5396;stroke-miterlimit:10;stroke-dasharray:16.0717,4.0179;}
	.st31{fill:#EE5396;}
	.st32{fill:none;stroke:#EE5396;stroke-width:0.9487;stroke-miterlimit:10;}
	.st33{fill:none;stroke:#EE5396;stroke-width:0.9487;stroke-miterlimit:10;stroke-dasharray:15.3235,3.8309;}
	.st34{fill:none;stroke:#EE5396;stroke-miterlimit:10;stroke-dasharray:16.3097,4.0774;}
	.st35{fill:#F2F4F8;}
	.st36{fill:none;stroke:#0F62FE;stroke-miterlimit:10;stroke-dasharray:3.9914,3.9914;}
	.st37{fill:none;stroke:#0F62FE;stroke-miterlimit:10;stroke-dasharray:3.8711,3.8711;}
	.st38{fill:#FFFFFF;}
	.st39{fill-rule:evenodd;clip-rule:evenodd;}
	.st40{fill:#FFFFFF;stroke:#FFFFFF;stroke-miterlimit:10;}
	.st41{fill-rule:evenodd;clip-rule:evenodd;fill:#878D96;}
	.st42{fill-rule:evenodd;clip-rule:evenodd;fill:#FA4D56;}
	.st43{fill-rule:evenodd;clip-rule:evenodd;fill:#198038;}
	.st44{fill-rule:evenodd;clip-rule:evenodd;fill:#A56EFF;}
	.st45{font-size:13.9932px;}
	.st46{clip-path:url(#SVGID_00000129175839739846482010000007393544546701097886_);fill:#FFFFFF;}
	.st47{fill-rule:evenodd;clip-rule:evenodd;fill:#1192E8;}
	.st48{fill-rule:evenodd;clip-rule:evenodd;fill:#009D9A;}
	.st49{clip-path:url(#SVGID_00000039111146321668024140000013205720029398421438_);fill:#FFFFFF;}
</style>
<g id="Boxes">
	<path class="st0" d="M1087.6,1136H504.4c-4.6,0-8.4-3.8-8.4-8.4V24h591.6c4.6,0,8.4,3.8,8.4,8.4v1095.1
		C1096,1132.2,1092.2,1136,1087.6,1136z"/>
	<path class="st1" d="M1278.6,1136h-157.3c-5.2,0-9.4-4.2-9.4-9.4V23.8h166.6c5.2,0,9.4,4.2,9.4,9.4v1093.4
		C1288,1131.8,1283.8,1136,1278.6,1136z"/>
	<path class="st2" d="M471.7,1136H32.3c-4.6,0-8.3-3.7-8.3-8.3V24h447.7c4.6,0,8.3,3.7,8.3,8.3v1095.5
		C480,1132.3,476.3,1136,471.7,1136z"/>
	<rect x="24" y="23.8" class="st3" width="216" height="48"/>
	<g>
		<rect x="42" y="41.8" class="st4" width="95.6" height="11.9"/>
		<text transform="matrix(1 0 0 1 41.9727 52.1431)" class="st5 st6">Vehicles</text>
	</g>
	<rect x="1.5" y="46.5" transform="matrix(6.123234e-17 -1 1 6.123234e-17 -22.5 73.5)" class="st7" width="48" height="3"/>
	<g>
		<rect x="512" y="32" class="st4" width="167.6" height="32"/>
		<text transform="matrix(1 0 0 1 512 42.3599)"><tspan x="0" y="0" class="st5 st6">Connected car  </tspan><tspan x="0" y="18" class="st5 st6">platform</tspan></text>
	</g>
	<rect x="473.5" y="46.5" transform="matrix(6.123234e-17 -1 1 6.123234e-17 449.5 545.5)" class="st7" width="48" height="3"/>
	<rect x="1112" y="23.8" class="st3" width="176" height="48"/>
	<g>
		<rect x="1128" y="41.8" class="st4" width="79" height="11.9"/>
		<text transform="matrix(1 0 0 1 1128.0024 52.1431)" class="st5 st6">Enterprise</text>
	</g>
	<rect x="1089.5" y="46.5" transform="matrix(6.123234e-17 -1 1 6.123234e-17 1065.5 1161.5)" class="st7" width="48" height="3"/>
	<path class="st8" d="M1264,1120.2H88c-4.4,0-8-3.6-8-8v-112h1184c4.4,0,8,3.6,8,8v104C1272,1116.6,1268.4,1120.2,1264,1120.2z"/>
	<path class="st9" d="M551.4,848.2H424.6c-4.8,0-8.6-3.9-8.6-8.6V184.1h135.4c4.8,0,8.6,3.9,8.6,8.6v646.9
		C560,844.3,556.1,848.2,551.4,848.2z"/>
	<path class="st10" d="M312,952H88c-4.4,0-8-3.6-8-8V88.2h232c4.4,0,8,3.6,8,8V944C320,948.4,316.4,952,312,952z"/>
	<g>
		<g>
			<rect x="432" y="192.2" class="st4" width="107.9" height="32"/>
			<text transform="matrix(1 0 0 1 432.0005 202.5454)"><tspan x="0" y="0" class="st5 st6">Access </tspan><tspan x="0" y="18" class="st5 st6">network</tspan></text>
		</g>

			<rect x="393.5" y="206.6" transform="matrix(6.123234e-17 -1 1 6.123234e-17 209.4338 625.5662)" class="st7" width="48" height="3"/>
	</g>
	<g>
		<rect x="80.1" y="1000.3" class="st3" width="191.9" height="48"/>
		<g>
			<rect x="96.4" y="1018.3" class="st4" width="127.6" height="11.9"/>
			<text transform="matrix(1 0 0 1 96.3965 1028.6353)" class="st5 st6">Cloud Services</text>
		</g>

			<rect x="57.6" y="1022.8" transform="matrix(6.123234e-17 -1 1 6.123234e-17 -942.7142 1105.8977)" class="st7" width="48" height="3"/>
	</g>
	<g>
		<g>
			<rect x="96" y="106.2" class="st4" width="95.6" height="11.9"/>
			<text transform="matrix(1 0 0 1 96.002 116.5151)" class="st5 st6">Onboard</text>
		</g>

			<rect x="57.5" y="110.7" transform="matrix(6.123234e-17 -1 1 6.123234e-17 -30.6861 193.6861)" class="st7" width="48" height="3"/>
	</g>
	<path class="st11" d="M629.7,1264h-12c-1.1,0-2-0.9-2-2v-14h14c1.1,0,2,0.9,2,2v12C631.7,1263.1,630.8,1264,629.7,1264z"/>
	<rect x="615.5" y="1248" class="st12" width="3" height="8"/>
	<text transform="matrix(1 0 0 1 640.0002 1260.0735)" class="st12 st13 st6">Logical group</text>
	<rect x="24" y="1183.9" width="32" height="16"/>
	<text transform="matrix(1 0 0 1 64.0002 1195.9592)" class="st12 st13 st6">User</text>
	<path class="st11" d="M623.2,1200L623.2,1200c-4.4,0-8-3.6-8-8l0,0c0-4.4,3.6-8,8-8l0,0c4.4,0,8,3.6,8,8l0,0
		C631.2,1196.4,627.6,1200,623.2,1200z"/>
	<text transform="matrix(1 0 0 1 639.5068 1196.0735)" class="st12 st13 st6">Actor</text>
	<path class="st11" d="M628,1232h-9c-1.9,0-3.5-1.6-3.5-3.5v-9c0-1.9,1.6-3.5,3.5-3.5h9c1.9,0,3.5,1.6,3.5,3.5v9
		C631.5,1230.4,630,1232,628,1232z"/>
	<text transform="matrix(1 0 0 1 639.8496 1228.0735)" class="st12 st13 st6">Logical node</text>
	<rect x="24" y="1247.9" class="st14" width="32" height="16"/>
	<rect x="64" y="1249.6" class="st4" width="152" height="12"/>
	<text transform="matrix(1 0 0 1 64.0474 1259.9592)" class="st12 st13 st6">Infrastructure services</text>
	<rect x="240" y="1184" class="st15" width="32" height="16"/>
	<text transform="matrix(1 0 0 1 280 1196.0735)" class="st12 st13 st6">Management</text>
	<rect x="240" y="1248" class="st16" width="32" height="16"/>
	<text transform="matrix(1 0 0 1 280 1260.0735)" class="st12 st13 st6">Security</text>
	<rect x="24" y="1216" class="st17" width="32" height="16"/>
	<text transform="matrix(1 0 0 1 64.0002 1228.0735)" class="st12 st13 st6">Application</text>
	<rect x="24" y="1280" class="st18" width="32" height="16"/>
	<text transform="matrix(1 0 0 1 64.0002 1292.0735)" class="st12 st13 st6">Data sources</text>
	<rect x="240" y="1216.1" class="st19" width="32" height="16"/>
	<text transform="matrix(1 0 0 1 280.0002 1228.1877)" class="st12 st13 st6">Analytics</text>
	<text transform="matrix(1 0 0 1 455.1912 1196.0735)" class="st12 st13 st6">Data and control flow</text>
	<line class="st20" x1="415.2" y1="1192" x2="446.8" y2="1192"/>
	<text transform="matrix(1 0 0 1 455.1912 1228.0735)" class="st12 st13 st6">User flow</text>
	<g>
		<g>
			<line class="st21" x1="415.2" y1="1224" x2="417.2" y2="1224"/>
			<line class="st22" x1="421.2" y1="1224" x2="443.2" y2="1224"/>
			<line class="st21" x1="445.2" y1="1224" x2="447.2" y2="1224"/>
		</g>
	</g>
	<text transform="matrix(1 0 0 1 455.1919 1260.0735)" class="st12 st13 st6">Chat bot flow</text>
	<line class="st23" x1="415.2" y1="1256" x2="447" y2="1256"/>
</g>
<g id="Arrows">
	<g>
		<g>
			<path class="st24" d="M626.3,600.2h-27.6c-3.7,0-6.7,3.5-6.7,7.8l0.2,264.4c0,4.3,3,7.8,6.7,7.8l27.4,0"/>
			<g>
				<polygon points="625.1,596.2 632,600.2 625.1,604.2 				"/>
			</g>
			<g>
				<polygon points="625.1,884.2 632,880.2 625.1,876.2 				"/>
			</g>
		</g>
	</g>
	<g>
		<g>
			<line class="st25" x1="200" y1="168.1" x2="198" y2="168.1"/>
			<path class="st26" d="M194,168.1h-15.4c-5.9,0-10.7,3.6-10.7,8v256.1c0,4.4,2.1,8,8,8h15.3"/>
			<line class="st25" x1="193.2" y1="440.2" x2="195.2" y2="440.2"/>
			<g>
				<polygon class="st27" points="194.1,444.2 201,440.2 194.1,436.2 				"/>
			</g>
		</g>
	</g>
	<g>
		<g>
			<path class="st24" d="M792.3,706.4v-97.2c0-4.4-3.6-8-8-8H686"/>
			<g>
				<polygon points="796.3,705.3 792.3,712.2 788.3,705.3 				"/>
			</g>
			<g>
				<polygon points="687.2,597.3 680.3,601.3 687.2,605.3 				"/>
			</g>
		</g>
	</g>
	<g>
		<g>
			<path class="st24" d="M808.3,705.2V608c0-4.4,3.6-8,8-8h98.3"/>
			<g>
				<polygon points="812.3,704 808.3,710.9 804.3,704 				"/>
			</g>
			<g>
				<polygon points="913.4,604 920.3,600 913.4,596 				"/>
			</g>
		</g>
	</g>
	<g>
		<g>
			<line class="st24" x1="686" y1="592" x2="914.6" y2="592"/>
			<g>
				<polygon points="687.2,596 680.3,592 687.2,588 				"/>
			</g>
			<g>
				<polygon points="913.4,596 920.3,592 913.4,588 				"/>
			</g>
		</g>
	</g>
	<g>
		<g>
			<line class="st24" x1="685.7" y1="448.2" x2="914.3" y2="448.2"/>
			<g>
				<polygon points="686.9,452.2 680,448.2 686.9,444.2 				"/>
			</g>
			<g>
				<polygon points="913.1,452.2 920,448.2 913.1,444.2 				"/>
			</g>
		</g>
	</g>
	<g>
		<g>
			<line class="st24" x1="253.7" y1="448" x2="290.3" y2="448"/>
			<g>
				<polygon points="254.9,452 248,448 254.9,444 				"/>
			</g>
			<g>
				<polygon points="289.1,452 296,448 289.1,444 				"/>
			</g>
		</g>
	</g>
	<g>
		<g>
			<path class="st24" d="M224,501.7V520c0,4.4,3.6,8,8,8h136c4.4,0,8,3.6,8,8v200c0,4.4,3.6,8,8,8h74.3"/>
			<g>
				<polygon points="220,502.9 224,496 228,502.9 				"/>
			</g>
			<g>
				<polygon points="457.1,748 464,744 457.1,740 				"/>
			</g>
		</g>
	</g>
	<g>
		<g>
			<line class="st24" x1="517.7" y1="304.2" x2="770.3" y2="304.2"/>
			<g>
				<polygon points="518.9,308.2 512,304.2 518.9,300.2 				"/>
			</g>
			<g>
				<polygon points="769.1,308.2 776,304.2 769.1,300.2 				"/>
			</g>
		</g>
	</g>
	<g>
		<g>
			<path class="st24" d="M770.4,880.2h-34.3c-4.4,0-8-3.6-8-8v-128c0-4.4-3.6-8-8-8h-34.4"/>
			<g>
				<polygon points="769.3,876.2 776.2,880.2 769.3,884.2 				"/>
			</g>
			<g>
				<polygon points="686.9,732.2 680,736.2 686.9,740.2 				"/>
			</g>
		</g>
	</g>
	<g>
		<g>
			<line class="st24" x1="656" y1="805.9" x2="656" y2="849.4"/>
			<g>
				<polygon points="652,807.1 656,800.2 660,807.1 				"/>
			</g>
			<g>
				<polygon points="652,848.3 656,855.2 660,848.3 				"/>
			</g>
		</g>
	</g>
	<g>
		<g>
			<line class="st25" x1="232" y1="223.7" x2="232" y2="225.7"/>
			<line class="st28" x1="232" y1="229.9" x2="232" y2="270.3"/>
			<line class="st25" x1="232" y1="272.4" x2="232" y2="274.4"/>
			<g>
				<polygon class="st27" points="228,273.3 232,280.2 236,273.3 				"/>
			</g>
		</g>
	</g>
	<g>
		<g>
			<line class="st24" x1="216" y1="229.4" x2="216" y2="274.4"/>
			<g>
				<polygon points="212,230.6 216,223.7 220,230.6 				"/>
			</g>
			<g>
				<polygon points="212,273.3 216,280.2 220,273.3 				"/>
			</g>
		</g>
	</g>
	<g>
		<g>
			<line class="st29" x1="253.7" y1="152.2" x2="261.7" y2="152.2"/>
			<line class="st30" x1="265.8" y1="152.2" x2="766" y2="152.2"/>
			<line class="st29" x1="768" y1="152.2" x2="776" y2="152.2"/>
			<g>
				<polygon class="st31" points="254.9,156.2 248,152.2 254.9,148.2 				"/>
			</g>
		</g>
	</g>
	<g>
		<g>
			<path class="st24" d="M829.7,160.2H1048c4.4,0,8,3.6,8,8v400.1c0,4.4,3.6,8,8,8h10.3"/>
			<g>
				<polygon points="830.9,164.2 824,160.2 830.9,156.2 				"/>
			</g>
			<g>
				<polygon points="1073.1,580.3 1080,576.3 1073.1,572.3 				"/>
			</g>
		</g>
	</g>
	<g>
		<g>
			<path class="st24" d="M1202.3,303.9H1160c-4.4,0-8,3.6-8,8v256c0,4.4-3.6,8-8,8h-10.3"/>
			<g>
				<polygon points="1201.1,299.9 1208,303.9 1201.1,307.9 				"/>
			</g>
			<g>
				<polygon points="1134.9,571.9 1128,575.9 1134.9,579.9 				"/>
			</g>
		</g>
	</g>
	<g>
		<g>
			<line class="st32" x1="458.6" y1="304.1" x2="451" y2="304.1"/>
			<line class="st33" x1="447.1" y1="304.1" x2="257.5" y2="304.1"/>
			<line class="st32" x1="255.6" y1="304.1" x2="248" y2="304.1"/>
			<g>
				<polygon class="st31" points="457.4,300.3 464,304.1 457.4,307.9 				"/>
			</g>
		</g>
	</g>
	<g>
		<g>
			<path class="st24" d="M458.3,728H400c-4.4,0-8-3.6-8-8V456.2c0-4.4-3.6-8-8-8h-34.3"/>
			<g>
				<polygon points="457.1,724 464,728 457.1,732 				"/>
			</g>
			<g>
				<polygon points="350.9,444.2 344,448.2 350.9,452.2 				"/>
			</g>
		</g>
	</g>
	<g>
		<g>
			<path class="st24" d="M973.7,448.2h42.3c4.4,0,8,3.1,8,8v128.1c0,4.9,3.6,8,8,8h42.3"/>
			<g>
				<polygon points="974.9,452.2 968,448.2 974.9,444.2 				"/>
			</g>
			<g>
				<polygon points="1073.1,596.3 1080,592.3 1073.1,588.3 				"/>
			</g>
		</g>
	</g>
	<g>
		<g>
			<line class="st24" x1="973.7" y1="608" x2="1074.3" y2="608"/>
			<g>
				<polygon points="974.9,612 968,608 974.9,604 				"/>
			</g>
			<g>
				<polygon points="1073.1,612 1080,608 1073.1,604 				"/>
			</g>
		</g>
	</g>
	<g>
		<g>
			<path class="st24" d="M1202.3,447.9l-26.3-0.1c-4.4,0-8,3.6-8,8v120.1c0,4.4-3.6,8-8,8h-26.2"/>
			<g>
				<polygon points="1201.1,443.9 1208,447.9 1201.1,451.9 				"/>
			</g>
			<g>
				<polygon points="1134.9,579.9 1128,583.9 1134.9,587.9 				"/>
			</g>
		</g>
	</g>
	<g>
		<g>
			<line class="st24" x1="1202.3" y1="591.9" x2="1133.7" y2="591.9"/>
			<g>
				<polygon points="1201.1,587.9 1208,591.9 1201.1,595.9 				"/>
			</g>
			<g>
				<polygon points="1134.9,588 1128,591.9 1134.9,595.9 				"/>
			</g>
		</g>
	</g>
	<g>
		<g>
			<path class="st24" d="M325.7,112.3l723.9-0.1H1224c4.4,0,8,3.6,8,8v10.3"/>
			<g>
				<polygon points="326.9,116.3 320,112.3 326.9,108.3 				"/>
			</g>
			<g>
				<polygon points="1228,129.3 1232,136.2 1236,129.3 				"/>
			</g>
		</g>
	</g>
	<g>
		<g>
			<path class="st24" d="M517.7,728.2H568c4.4,0,8-3.7,8-8.2V592.4c0-4.5,3.6-8.2,8-8.2h42.3"/>
			<g>
				<polygon points="518.9,732.2 512,728.2 518.9,724.2 				"/>
			</g>
			<g>
				<polygon points="625.1,588.2 632,584.2 625.1,580.2 				"/>
			</g>
		</g>
	</g>
	<g>
		<g>
			<line class="st29" x1="770.3" y1="160.2" x2="762.3" y2="160.2"/>
			<path class="st34" d="M758.2,160.2l-150.2,0c-4.4,0-8,3.8-8,8.5v118.9c0,4.7-3.6,8.5-8,8.5h-70"/>
			<line class="st29" x1="520" y1="296.1" x2="512" y2="296.1"/>
			<g>
				<polygon class="st31" points="769.1,156.2 776,160.2 769.1,164.2 				"/>
			</g>
		</g>
	</g>
	<g>
		<g>
			<path class="st24" d="M829.7,304.2H1032c4.4,0,8,3.6,8,8v264.1c0,4.4,3.6,8,8,8h26.3"/>
			<g>
				<polygon points="830.9,308.2 824,304.2 830.9,300.2 				"/>
			</g>
			<g>
				<polygon points="1073.1,588.3 1080,584.3 1073.1,580.3 				"/>
			</g>
		</g>
	</g>
	<g>
		<g>
			<path class="st24" d="M194.3,160.2H160c-4.4,0-8,3.6-8,8v272c0,4.4,3.6,8,8,8h34.3"/>
			<g>
				<polygon points="193.1,156.2 200,160.2 193.1,164.2 				"/>
			</g>
			<g>
				<polygon points="193.1,452.2 200,448.2 193.1,444.2 				"/>
			</g>
		</g>
	</g>
	<g>
		<g>
			<path class="st24" d="M199.9,464.2H176c-4.4,0-8,3.6-8,8v256c0,4.4,3.6,8,8,8h18.3"/>
			<g>
				<polygon points="198.8,460.2 205.7,464.2 198.8,468.2 				"/>
			</g>
			<g>
				<polygon points="193.1,740.2 200,736.2 193.1,732.2 				"/>
			</g>
		</g>
	</g>
	<g>
		<g>
			<path class="st24" d="M194.3,456.2l-34.3,0c-4.4,0-8,3.6-8,8v408c0,4.4,3.6,8,8,8h33.1"/>
			<g>
				<polygon points="193.1,452.2 200,456.2 193.1,460.2 				"/>
			</g>
			<g>
				<polygon points="192,884.2 198.9,880.2 192,876.2 				"/>
			</g>
		</g>
	</g>
	<g>
		<g>
			<path class="st24" d="M1133.7,600.2h26.3c4.4,0,8,3.6,8,8v120c0,4.4,3.6,8,8,8h26.3"/>
			<g>
				<polygon points="1134.9,604.2 1128,600.2 1134.9,596.2 				"/>
			</g>
			<g>
				<polygon points="1201.1,740.2 1208,736.2 1201.1,732.2 				"/>
			</g>
		</g>
	</g>
	<g>
		<g>
			<line class="st24" x1="656" y1="677.9" x2="656" y2="706.4"/>
			<g>
				<polygon points="652,679.1 656,672.2 660,679.1 				"/>
			</g>
			<g>
				<polygon points="652,705.3 656,712.2 660,705.3 				"/>
			</g>
		</g>
	</g>
	<g>
		<g>
			<line class="st24" x1="656.2" y1="517.4" x2="656.2" y2="562.4"/>
			<g>
				<polygon points="652.2,518.6 656.2,511.7 660.2,518.6 				"/>
			</g>
			<g>
				<polygon points="652.2,561.3 656.2,568.2 660.2,561.3 				"/>
			</g>
		</g>
	</g>
	<g>
		<g>
			<line class="st24" x1="224" y1="373.3" x2="224" y2="418.3"/>
			<g>
				<polygon points="220,374.5 224,367.6 228,374.5 				"/>
			</g>
			<g>
				<polygon points="220,417.2 224,424.1 228,417.2 				"/>
			</g>
		</g>
	</g>
	<g>
		<g>
			<line class="st24" x1="800" y1="229.8" x2="800" y2="274.3"/>
			<g>
				<polygon points="796,231 800,224.1 804,231 				"/>
			</g>
			<g>
				<polygon points="796,273.2 800,280.1 804,273.2 				"/>
			</g>
		</g>
	</g>
	<rect x="584" y="728.6" class="st35" width="16" height="23.9"/>
	<g>
		<g>
			<line class="st25" x1="194.3" y1="152.2" x2="192.3" y2="152.2"/>
			<path class="st36" d="M188.3,152.2H48c-4.4,0-8,3.6-8,8v807.7c0,4.4,3.6,8,8,8l512,0.3c4.4,0,8-3.6,8-8v-216c0-4.4,3.6-8,8-8h52"
				/>
			<line class="st25" x1="630" y1="744.2" x2="632" y2="744.2"/>
			<g>
				<polygon class="st27" points="193.1,148.2 200,152.2 193.1,156.2 				"/>
			</g>
		</g>
	</g>
	<rect x="704" y="296.2" class="st35" width="16" height="16"/>
	<g>
		<g>
			<path class="st24" d="M770.3,168.2H720c-4.4,0-8,5.9-8,13.2V427c0,7.3-3.6,13.2-8,13.2h-18.3"/>
			<g>
				<polygon points="769.1,164.2 776,168.2 769.1,172.2 				"/>
			</g>
			<g>
				<polygon points="686.9,436.2 680,440.2 686.9,444.2 				"/>
			</g>
		</g>
	</g>
	<g>
		<g>
			<line class="st25" x1="626.3" y1="736.2" x2="624.3" y2="736.2"/>
			<line class="st37" x1="620.4" y1="736.2" x2="521.7" y2="736.2"/>
			<line class="st25" x1="519.7" y1="736.2" x2="517.7" y2="736.2"/>
			<g>
				<polygon class="st27" points="625.1,732.2 632,736.2 625.1,740.2 				"/>
			</g>
			<g>
				<polygon class="st27" points="518.9,732.2 512,736.2 518.9,740.2 				"/>
			</g>
		</g>
	</g>
	<rect x="268" y="524" class="st38" width="8" height="8"/>
	<g>
		<g>
			<path class="st24" d="M685.7,456H800c4.4,0,8,3.6,8,8v112c0,4.4,3.6,8,8,8h98.3"/>
			<g>
				<polygon points="686.9,460 680,456 686.9,452 				"/>
			</g>
			<g>
				<polygon points="913.1,588 920,584 913.1,580 				"/>
			</g>
		</g>
	</g>
	<rect x="804" y="540" class="st35" width="8" height="8"/>
	<g>
		<g>
			<path class="st24" d="M685.7,584H784c4.4,0,8-3.6,8-8v-24c0-4.4,3.6-8,8-8h184c4.4,0,8,3.6,8,8v40c0,4.4,3.6,8,8,8h74.3"/>
			<g>
				<polygon points="686.9,588 680,584 686.9,580 				"/>
			</g>
			<g>
				<polygon points="1073.1,604 1080,600 1073.1,596 				"/>
			</g>
		</g>
	</g>
	<g>
		<g>
			<path class="st24" d="M290.3,456H280c-4.4,0-8,3.6-8,8v120c0,4.4-3.6,8-8,8h-10.3"/>
			<g>
				<polygon points="289.1,452 296,456 289.1,460 				"/>
			</g>
			<g>
				<polygon points="254.9,588 248,592 254.9,596 				"/>
			</g>
		</g>
	</g>
</g>
<g id="Icons">
	<g id="auto-driver-passenger">
		<path class="st39" d="M224,184.2L224,184.2c-13.3,0-24-10.7-24-24v0c0-13.3,10.7-24,24-24h0c13.3,0,24,10.7,24,24v0
			C248,173.4,237.3,184.2,224,184.2z"/>
		<g>
			<path class="st38" d="M224,152.7c1.7,0,3.1,1.4,3.1,3.1s-1.4,3.1-3.1,3.1s-3.1-1.4-3.1-3.1C220.9,154.1,222.3,152.7,224,152.7
				 M224,151.4c-2.4,0-4.4,2-4.4,4.4s2,4.4,4.4,4.4s4.4-2,4.4-4.4S226.4,151.4,224,151.4z"/>
			<path class="st38" d="M230.2,168.9H229v-3.1c0-1.7-1.4-3.1-3.1-3.1h-3.8c-1.7,0-3.1,1.4-3.1,3.1v3.1h-1.2v-3.1
				c0-2.4,2-4.4,4.4-4.4h3.8c2.4,0,4.4,2,4.4,4.4V168.9z"/>
			<rect id="_x3C_Transparent_Rectangle_x3E__144_" x="214" y="150.2" class="st4" width="20" height="20"/>
		</g>
		<g>
			<rect x="183.9" y="192.2" class="st4" width="79.8" height="33"/>
			<text transform="matrix(1 0 0 1 195.6792 202.5449)"><tspan x="0" y="0" class="st5 st6">Driver or</tspan><tspan x="-5.4" y="18" class="st5 st6">passenger</tspan></text>
		</g>
	</g>
	<g id="auto-hmi">
		<path class="st39" d="M224,472.1L224,472.1c-13.3,0-24-10.7-24-24v0c0-13.3,10.7-24,24-24h0c13.3,0,24,10.7,24,24v0
			C248,461.3,237.3,472.1,224,472.1z"/>
		<rect x="184.2" y="479.2" class="st4" width="79.8" height="15.7"/>
		<text transform="matrix(1 0 0 1 210.3882 489.5728)" class="st5 st6">HMI</text>
		<g>
			<path class="st38" d="M230.3,453.1h-12.5c-0.7,0-1.2-0.6-1.2-1.2v-8.8c0-0.7,0.6-1.2,1.2-1.2h12.5c0.7,0,1.2,0.6,1.2,1.2v8.8
				C231.5,452.5,230.9,453.1,230.3,453.1z M217.8,443.1v8.8h12.5v-8.8H217.8z"/>
			<rect x="215.3" y="454.3" class="st38" width="17.5" height="1.2"/>

				<rect id="_Transparent_Rectangle__00000123441697448990157000000014198859773197770902_" x="214" y="438.1" class="st4" width="20" height="20"/>
		</g>
	</g>
	<g id="auto-user">
		<path class="st39" d="M800.4,904.1L800.4,904.1c-13.3,0-24-10.7-24-24l0,0c0-13.3,10.7-24,24-24l0,0c13.3,0,24,10.7,24,24l0,0
			C824.4,893.3,813.6,904.1,800.4,904.1z"/>
		<g>
			<path class="st35" d="M800.2,872.4c1.7,0,3.1,1.4,3.1,3.1s-1.4,3.1-3.1,3.1s-3.1-1.4-3.1-3.1
				C797.1,873.8,798.5,872.4,800.2,872.4 M800.2,871.2c-2.4,0-4.4,2-4.4,4.4s2,4.4,4.4,4.4s4.4-2,4.4-4.4S802.6,871.2,800.2,871.2z"
				/>
			<path class="st35" d="M806.4,888.7h-1.2v-3.1c0-1.7-1.4-3.1-3.1-3.1h-3.8c-1.7,0-3.1,1.4-3.1,3.1v3.1h-1.2v-3.1
				c0-2.4,2-4.4,4.4-4.4h3.8c2.4,0,4.4,2,4.4,4.4V888.7z"/>
			<rect id="_x3C_Transparent_Rectangle_x3E__143_" x="790.2" y="869.9" class="st4" width="20" height="20"/>
		</g>
		<rect x="760.4" y="912.1" class="st4" width="79.8" height="16"/>
		<text transform="matrix(1 0 0 1 785.2983 922.4253)" class="st5 st6">User</text>
	</g>
	<rect x="80" y="608.2" class="st40" width="8.7" height="48.1"/>
	<rect x="80" y="299.2" class="st40" width="8" height="52.1"/>
	<rect x="312" y="448.2" class="st40" width="8" height="52.1"/>
	<g id="auto-connected-car">
		<g>
			<path class="st39" d="M79.8,616.2L79.8,616.2c-13.3,0-24-10.7-24-24v0c0-13.3,10.7-24,24-24h0c13.3,0,24,10.7,24,24v0
				C103.8,605.4,93.1,616.2,79.8,616.2z"/>
		</g>
		<rect x="40" y="624.2" class="st4" width="79.8" height="33"/>
		<text transform="matrix(1 0 0 1 45.0239 634.5449)"><tspan x="0" y="0" class="st5 st6">Connected </tspan><tspan x="24.6" y="18" class="st5 st6">car</tspan></text>
		<g>
			<path class="st38" d="M88.2,593.4l-4.8-1.7l-2-2.5c-0.4-0.4-0.9-0.7-1.5-0.7h-5c-0.6,0-1.2,0.3-1.5,0.8l-1.7,2.5
				c-0.4,0.5-0.5,1.1-0.5,1.8v4.9c0,0.3,0.3,0.6,0.6,0.6H73c0.3,1.3,1.7,2.1,3,1.8c0.9-0.2,1.6-0.9,1.8-1.8h3.9
				c0.3,1.3,1.7,2.1,3,1.8c0.9-0.2,1.6-0.9,1.8-1.8h1.3c0.3,0,0.6-0.3,0.6-0.6V594C88.6,593.7,88.4,593.5,88.2,593.4z M75.4,599.7
				c-0.7,0-1.2-0.6-1.2-1.2c0-0.7,0.6-1.2,1.2-1.2c0.7,0,1.2,0.6,1.2,1.2C76.7,599.1,76.1,599.7,75.4,599.7z M84.2,599.7
				c-0.7,0-1.2-0.6-1.2-1.2c0-0.7,0.6-1.2,1.2-1.2c0.7,0,1.2,0.6,1.2,1.2C85.4,599.1,84.9,599.7,84.2,599.7z M87.3,597.8h-0.7
				c-0.3-1.3-1.7-2.1-3-1.8c-0.9,0.2-1.6,0.9-1.8,1.8h-3.9c-0.3-1.3-1.7-2.1-3-1.8c-0.9,0.2-1.6,0.9-1.8,1.8h-0.7v-4.3
				c0-0.4,0.1-0.7,0.3-1.1l1.7-2.5c0.1-0.2,0.3-0.3,0.5-0.3h5c0.2,0,0.4,0.1,0.5,0.2l2.1,2.7c0.1,0.1,0.2,0.2,0.3,0.2l4.6,1.6V597.8
				z"/>
			<path class="st38" d="M85.4,589.1h-1.2c0-0.7-0.6-1.2-1.2-1.2v-1.2C84.3,586.6,85.4,587.7,85.4,589.1z"/>
			<path class="st38" d="M87.9,589.1h-1.2c0-2.1-1.7-3.7-3.8-3.8v-1.2C85.7,584.1,87.9,586.3,87.9,589.1z"/>
			<rect id="_Transparent_Rectangle__45_" x="69.8" y="582.2" class="st4" width="20" height="20"/>
		</g>
	</g>
	<g id="auto-sensor">
		<g>
			<path class="st39" d="M80,328.2L80,328.2c-13.3,0-24-10.7-24-24v0c0-13.3,10.7-24,24-24h0c13.3,0,24,10.7,24,24v0
				C104,317.4,93.3,328.2,80,328.2z"/>
			<g>
				<path class="st38" d="M89.4,306.3h-2.5v-2.5h-1.2v5.6h-10v-10l5.6,0v-1.2h-2.5v-2.5h-1.2v2.5h-1.9c-0.7,0-1.2,0.6-1.2,1.2v1.9
					h-2.5v1.2h2.5v3.8h-2.5v1.2h2.5v1.9c0,0.7,0.6,1.2,1.2,1.2h1.9v2.5h1.2v-2.5h3.8v2.5h1.2v-2.5h1.9c0.7,0,1.2-0.6,1.2-1.2v-1.9
					h2.5V306.3z"/>
				<path class="st38" d="M83.7,307.6h-6.2v-6.2h6.2V307.6z M78.7,306.3h3.8v-3.8h-3.8V306.3z"/>
				<path class="st38" d="M90,302.6h-1.2c0-3.4-2.8-6.2-6.2-6.2v-1.2C86.6,295.1,90,298.4,90,302.6z"/>
				<path class="st38" d="M86.9,302.6h-1.2c0-1.7-1.4-3.1-3.1-3.1v-1.2C84.9,298.2,86.9,300.2,86.9,302.6z"/>
				<rect id="_x3C_Transparent_Rectangle_x3E__142_" x="70.6" y="294.5" class="st4" width="20" height="20"/>
			</g>
		</g>
		<rect x="40" y="336.2" class="st4" width="80" height="19.9"/>
		<text transform="matrix(1 0 0 1 57.5161 346.5444)" class="st5 st6">Sensor</text>
	</g>
	<g id="auto-real-time-decision">
		<path class="st41" d="M240,328h-32c-4.4,0-8-3.6-8-8v-32c0-4.4,3.6-8,8-8h32c4.4,0,8,3.6,8,8v32C248,324.4,244.4,328,240,328z"/>
		<rect x="184" y="336" class="st4" width="80" height="32"/>
		<text transform="matrix(1 0 0 1 194.8037 346.3604)"><tspan x="0" y="0" class="st5 st6">Realtime</tspan><tspan x="-1.4" y="18" class="st5 st6">decission</tspan></text>
		<g>
			<path class="st38" d="M224,311.5c-3.8,0-6.9-3.1-6.9-6.9s3.1-6.9,6.9-6.9s6.9,3.1,6.9,6.9S227.8,311.5,224,311.5z M224,299
				c-3.1,0-5.6,2.5-5.6,5.6s2.5,5.6,5.6,5.6s5.6-2.5,5.6-5.6S227.1,299,224,299z"/>
			<polygon class="st38" points="225.6,307.1 223.4,304.9 223.4,300.9 224.6,300.9 224.6,304.4 226.5,306.2 			"/>

				<rect x="216.5" y="297.4" transform="matrix(0.7064 -0.7078 0.7078 0.7064 -146.954 241.8764)" class="st38" width="3.2" height="1.2"/>

				<rect x="229.3" y="296.5" transform="matrix(0.7078 -0.7064 0.7064 0.7078 -143.3625 249.4981)" class="st38" width="1.2" height="3.2"/>

				<rect id="_Transparent_Rectangle__00000054234907972228638110000017251643504296531381_" x="214" y="294" class="st4" width="20" height="20"/>
		</g>
	</g>
	<g id="auto-security-services">
		<path class="st42" d="M239.9,760h-32c-4.4,0-8-3.6-8-8v-32c0-4.4,3.6-8,8-8h32c4.4,0,8,3.6,8,8v32
			C247.9,756.4,244.4,760,239.9,760z"/>
		<rect x="184.1" y="768" class="st4" width="79.8" height="33"/>
		<text transform="matrix(1.0005 0 0 1 197.1543 778.3599)"><tspan x="0" y="0" class="st5 st6">Security </tspan><tspan x="0.1" y="18" class="st5 st6">services</tspan></text>
		<g>
			<path class="st38" d="M228.9,734.7h-1.2V731c0-2.1-1.7-3.8-3.8-3.8s-3.8,1.7-3.8,3.8v3.8h-1.2c-0.7,0-1.2,0.6-1.2,1.2v7.5
				c0,0.7,0.6,1.2,1.2,1.2h10c0.7,0,1.2-0.6,1.2-1.2V736C230.2,735.3,229.6,734.7,228.9,734.7z M221.4,731c0-1.4,1.1-2.5,2.5-2.5
				s2.5,1.1,2.5,2.5v3.8h-5V731z M228.9,743.5h-10V736h10V743.5z"/>

				<rect id="_x3C_Transparent_Rectangle_x3E__00000131357408017591545830000006182258858241492401_" x="213.9" y="726" class="st4" width="20" height="20"/>
		</g>
	</g>
	<g id="auto-ai-services">
		<path class="st41" d="M240,904h-32c-4.4,0-8-3.6-8-8v-32c0-4.4,3.6-8,8-8h32c4.4,0,8,3.6,8,8v32C248,900.4,244.4,904,240,904z"/>
		<rect x="184.2" y="912" class="st4" width="79.8" height="33"/>
		<text transform="matrix(1 0 0 1 216.4307 922.3594)"><tspan x="0" y="0" class="st5 st6">AI </tspan><tspan x="-19.1" y="18" class="st5 st6">services</tspan></text>
		<g>
			<path class="st38" d="M232.8,878.1c0-3.8-3.1-6.9-6.9-6.9h-5c-3.1,0-5.6,2.5-5.6,5.6v1.9c0,1.7,1.4,3.1,3.1,3.1h0.7
				c0.3,1.4,1.6,2.5,3.1,2.5h0.9l2.5,4.4l1.1-0.6l-2.5-4.3c-0.2-0.4-0.6-0.7-1.1-0.7h-0.9c-1,0-1.9-0.8-1.9-1.9s0.8-1.9,1.9-1.9h0.6
				v-1.2h-0.6c-1.5,0-2.8,1.1-3.1,2.5h-0.7c-1,0-1.9-0.8-1.9-1.9v-1.2h1.2c1,0,1.9-0.8,1.9-1.9V875h-1.2v0.6c0,0.3-0.3,0.6-0.6,0.6
				h-1.2c0.3-2.1,2.1-3.8,4.3-3.8h3.8v1.2c0,0.3-0.3,0.6-0.6,0.6h-1.2v1.2h1.2c1,0,1.9-0.8,1.9-1.9v-1.2c2.2,0,4.1,1.3,5,3.1h-0.7
				c-1,0-1.9,0.8-1.9,1.9v0.6h1.2v-0.6c0-0.3,0.3-0.6,0.6-0.6h1.1c0.1,0.4,0.1,0.8,0.1,1.2v0.6c0,1.7-1.4,3.1-3.1,3.1h-1.9v1.2h1.9
				c0.7,0,1.3-0.2,1.9-0.4v0.4c0,1-0.8,1.9-1.9,1.9h-0.6v1.2h0.6c1.7,0,3.1-1.4,3.1-3.1v-1.3c0.8-0.8,1.2-1.9,1.2-3.1V878.1z"/>
			<rect x="214" y="870" class="st4" width="20" height="20"/>
		</g>
	</g>
	<g id="auto-iot-transformation-connectivity">
		<path class="st43" d="M671.8,616.2h-32c-4.4,0-8-3.6-8-8v-32c0-4.4,3.6-8,8-8h32c4.4,0,8,3.6,8,8v32
			C679.8,612.6,676.2,616.2,671.8,616.2z"/>
		<rect x="600" y="624.2" class="st4" width="112" height="48"/>
		<text transform="matrix(1 0 0 1 645.0376 634.5449)"><tspan x="0" y="0" class="st5 st6">IoT </tspan><tspan x="-37.8" y="18" class="st5 st6">transformation</tspan><tspan x="-42.6" y="36" class="st5 st6">and connectivity</tspan></text>
		<g>
			<path class="st38" d="M664.8,594.1h-2.5v-2.5H661v5.6h-10v-10l5.6,0v-1.2h-2.5v-2.5h-1.2v2.5H651c-0.7,0-1.2,0.6-1.2,1.2v1.9
				h-2.5v1.2h2.5v3.8h-2.5v1.2h2.5v1.9c0,0.7,0.6,1.2,1.2,1.2h1.9v2.5h1.2v-2.5h3.8v2.5h1.2v-2.5h1.9c0.7,0,1.2-0.6,1.2-1.2v-1.9
				h2.5V594.1z"/>
			<path class="st38" d="M659.1,595.3h-6.2v-6.2h6.2V595.3z M654.1,594.1h3.8v-3.8h-3.8V594.1z"/>
			<path class="st38" d="M665.4,590.3h-1.2c0-3.4-2.8-6.2-6.2-6.2v-1.2C662,582.8,665.4,586.2,665.4,590.3z"/>
			<path class="st38" d="M662.3,590.3H661c0-1.7-1.4-3.1-3.1-3.1v-1.2C660.3,585.9,662.3,587.9,662.3,590.3z"/>
			<rect id="_x3C_Transparent_Rectangle_x3E__111_" x="646" y="582.2" class="st4" width="20" height="20"/>
		</g>
	</g>
	<g id="auto-hmi-mobile-application">
		<path class="st44" d="M671.8,760.2h-32c-4.4,0-8-3.6-8-8v-32c0-4.4,3.6-8,8-8h32c4.4,0,8,3.6,8,8v32
			C679.8,756.6,676.2,760.2,671.8,760.2z"/>
		<rect x="616" y="767.3" class="st4" width="79.8" height="33"/>
		<text transform="matrix(1.0005 0 0 1 618.2965 777.6621)"><tspan x="0" y="0" class="st5 st45">HMI mobile </tspan><tspan x="1.2" y="18" class="st5 st45">application</tspan></text>
		<g>
			<defs>
				<path id="SVGID_1_" d="M651.3,744.4v-13.5h9v13.5H651.3z M660.3,727.9v1.5h-9v-1.5H660.3z M660.3,726.4h-9
					c-0.8,0-1.5,0.7-1.5,1.5v16.5c0,0.8,0.7,1.5,1.5,1.5h9c0.8,0,1.5-0.7,1.5-1.5v-16.5C661.8,727.1,661.1,726.4,660.3,726.4z"/>
			</defs>
			<clipPath id="SVGID_00000168097426012460449070000004651597386119415945_">
				<use xlink:href="#SVGID_1_"  style="overflow:visible;"/>
			</clipPath>

				<rect x="644.8" y="721.4" style="clip-path:url(#SVGID_00000168097426012460449070000004651597386119415945_);fill:#FFFFFF;" width="22" height="29.5"/>
		</g>
	</g>
	<g id="auto-live-conversation">
		<path class="st44" d="M815.8,184.1h-32c-4.4,0-8-3.6-8-8v-32c0-4.4,3.6-8,8-8h32c4.4,0,8,3.6,8,8v32
			C823.8,180.5,820.2,184.1,815.8,184.1z"/>
		<rect x="752" y="192" class="st4" width="96" height="32"/>
		<text transform="matrix(1 0 0 1 786.8481 202.3594)"><tspan x="0" y="0" class="st5 st6">Live </tspan><tspan x="-28.8" y="18" class="st5 st6">conversation</tspan></text>
		<g>
			<path class="st38" d="M807.3,153.8h-12.5c-0.8,0-1.2,0.5-1.2,1.2v8.8c0,0.8,0.5,1.2,1.2,1.2h5v-1.2h-5v-8.8h12.5v8.8h-4.5l-3,4.2
				l1,0.8l2.6-3.8h3.9c0.8,0,1.2-0.5,1.2-1.2v-8.8C808.6,154.3,808.1,153.8,807.3,153.8z"/>
			<path class="st38" d="M792.3,161.3h-1.2v-8.1c0-1.1,0.8-1.9,1.9-1.9h8.1v1.2h-8.1c-0.4,0-0.6,0.2-0.6,0.6V161.3z"/>

				<rect id="_Transparent_Rectangle__00000013192909237508387250000006421471327629051808_" x="789.8" y="150.1" class="st4" width="20" height="20"/>
		</g>
	</g>
	<g id="auto-peer-services">
		<path class="st43" d="M815.8,328.1h-32c-4.4,0-8-3.6-8-8v-32c0-4.4,3.6-8,8-8h32c4.4,0,8,3.6,8,8v32
			C823.8,324.5,820.2,328.1,815.8,328.1z"/>
		<rect x="760" y="336.1" class="st4" width="79.8" height="33"/>
		<text transform="matrix(1 0 0 1 784.8584 346.4253)"><tspan x="0" y="0" class="st5 st6">Peer </tspan><tspan x="-11.7" y="18" class="st5 st6">services</tspan></text>
		<g>
			<path class="st38" d="M805.9,299.9l-4.4-4.4c-0.1-0.1-0.2-0.2-0.4-0.2h-6.2c-0.7,0-1.2,0.6-1.2,1.2v15c0,0.7,0.6,1.2,1.2,1.2h10
				c0.7,0,1.2-0.6,1.2-1.2v-11.2C806.1,300.1,806,300,805.9,299.9z M801.1,296.8l3.5,3.5h-3.5V296.8z M804.8,311.6h-10v-15h5v3.8
				c0,0.7,0.6,1.2,1.2,1.2h3.8V311.6z"/>
			<rect x="796.1" y="307.8" class="st38" width="7.5" height="1.2"/>
			<rect x="796.1" y="304.1" class="st38" width="7.5" height="1.2"/>
			<rect x="789.8" y="294.1" class="st4" width="20" height="20"/>
		</g>
	</g>
	<g id="auto-third-party-applications">
		<path class="st44" d="M1232,615.9L1232,615.9c-13.3,0-24-10.7-24-24v0c0-13.3,10.7-24,24-24l0,0c13.3,0,24,10.7,24,24v0
			C1256,605.2,1245.3,615.9,1232,615.9z"/>
		<rect x="1183.9" y="624" class="st4" width="96" height="32"/>
		<text transform="matrix(1 0 0 1 1201.9341 634.3594)"><tspan x="0" y="0" class="st5 st6">3rd party </tspan><tspan x="-10" y="18" class="st5 st6">applications</tspan></text>
		<g>
			<path class="st38" d="M1231.3,593.4h-6.2c-0.7,0-1.2-0.6-1.2-1.2v-6.2c0-0.7,0.6-1.2,1.2-1.2h6.2c0.7,0,1.2,0.6,1.2,1.2v6.2
				C1232.5,592.8,1232,593.4,1231.3,593.4z M1225,585.9v6.2h6.2v-6.2H1225z"/>
			<path class="st38" d="M1238.1,589.6v2.5h-2.5v-2.5H1238.1 M1238.1,588.4h-2.5c-0.7,0-1.2,0.6-1.2,1.2v2.5c0,0.7,0.6,1.2,1.2,1.2
				h2.5c0.7,0,1.2-0.6,1.2-1.2v-2.5C1239.4,588.9,1238.8,588.4,1238.1,588.4L1238.1,588.4z"/>
			<path class="st38" d="M1238.1,595.9v2.5h-2.5v-2.5H1238.1 M1238.1,594.6h-2.5c-0.7,0-1.2,0.6-1.2,1.2v2.5c0,0.7,0.6,1.2,1.2,1.2
				h2.5c0.7,0,1.2-0.6,1.2-1.2v-2.5C1239.4,595.2,1238.8,594.6,1238.1,594.6L1238.1,594.6z"/>
			<path class="st38" d="M1231.9,595.9v2.5h-2.5v-2.5H1231.9 M1231.9,594.6h-2.5c-0.7,0-1.2,0.6-1.2,1.2v2.5c0,0.7,0.6,1.2,1.2,1.2
				h2.5c0.7,0,1.2-0.6,1.2-1.2v-2.5C1233.1,595.2,1232.6,594.6,1231.9,594.6L1231.9,594.6z"/>
			<g id="_x3C_Transparent_Rectangle_x3E__63_">
				<rect x="1221.9" y="582.1" class="st4" width="20" height="20"/>
			</g>
		</g>
	</g>
	<g id="auto-enterprise-applications">
		<path class="st44" d="M1231.7,760L1231.7,760c-13.3,0-24-10.7-24-24l0,0c0-13.3,10.7-24,24-24l0,0c13.3,0,24,10.7,24,24l0,0
			C1255.7,749.3,1245,760,1231.7,760z"/>
		<rect x="1183.9" y="768" class="st4" width="96" height="33"/>
		<text transform="matrix(1 0 0 1 1198.0151 778.3594)"><tspan x="0" y="0" class="st5 st6">Enterprise </tspan><tspan x="-6" y="18" class="st5 st6">applications</tspan></text>
		<g>
			<path class="st38" d="M1231.1,737.2h-6.2c-0.7,0-1.2-0.6-1.2-1.2v-6.2c0-0.7,0.6-1.2,1.2-1.2h6.2c0.7,0,1.2,0.6,1.2,1.2v6.2
				C1232.3,736.7,1231.8,737.2,1231.1,737.2z M1224.8,729.7v6.2h6.2v-6.2H1224.8z"/>
			<path class="st38" d="M1237.9,733.5v2.5h-2.5v-2.5H1237.9 M1237.9,732.2h-2.5c-0.7,0-1.2,0.6-1.2,1.2v2.5c0,0.7,0.6,1.2,1.2,1.2
				h2.5c0.7,0,1.2-0.6,1.2-1.2v-2.5C1239.2,732.8,1238.6,732.2,1237.9,732.2L1237.9,732.2z"/>
			<path class="st38" d="M1237.9,739.7v2.5h-2.5v-2.5H1237.9 M1237.9,738.5h-2.5c-0.7,0-1.2,0.6-1.2,1.2v2.5c0,0.7,0.6,1.2,1.2,1.2
				h2.5c0.7,0,1.2-0.6,1.2-1.2v-2.5C1239.2,739.1,1238.6,738.5,1237.9,738.5L1237.9,738.5z"/>
			<path class="st38" d="M1231.7,739.7v2.5h-2.5v-2.5H1231.7 M1231.7,738.5h-2.5c-0.7,0-1.2,0.6-1.2,1.2v2.5c0,0.7,0.6,1.2,1.2,1.2
				h2.5c0.7,0,1.2-0.6,1.2-1.2v-2.5C1232.9,739.1,1232.4,738.5,1231.7,738.5L1231.7,738.5z"/>
			<g id="_x3C_Transparent_Rectangle_x3E__17_">
				<rect x="1221.7" y="726" class="st4" width="20" height="20"/>
			</g>
		</g>
	</g>
	<g id="auto-in-vehicle-api">
		<path class="st44" d="M239.9,616.1h-32c-4.4,0-8-3.6-8-8v-32c0-4.4,3.6-8,8-8h32c4.4,0,8,3.6,8,8v32
			C247.9,612.5,244.4,616.1,239.9,616.1z"/>
		<rect x="184.1" y="623.2" class="st4" width="79.8" height="33"/>
		<text transform="matrix(1 0 0 1 192.1221 633.5728)"><tspan x="0" y="0" class="st5 st6">In vehicle </tspan><tspan x="19.8" y="18" class="st5 st6">API</tspan></text>
		<g>
			<path class="st38" d="M231.4,588.9c-0.2,0-0.4,0-0.5,0.1l-1.5-1c0.1-0.2,0.1-0.4,0.1-0.6c0-0.2,0-0.4-0.1-0.6l1.5-1
				c0.6,0.3,1.4,0,1.7-0.6c0.3-0.6,0-1.4-0.6-1.7s-1.4,0-1.7,0.6c-0.1,0.2-0.1,0.3-0.1,0.5c0,0,0,0.1,0,0.1l-1.4,1
				c-0.4-0.3-0.9-0.5-1.4-0.5c-1.2,0-2.2,1-2.2,2.2s1,2.2,2.2,2.2c0.5,0,1-0.2,1.4-0.5l1.4,1c0,0,0,0.1,0,0.1c0,0.7,0.6,1.2,1.2,1.2
				c0.7,0,1.2-0.6,1.2-1.2S232.1,588.9,231.4,588.9z M227.4,588.3c-0.5,0-0.9-0.4-0.9-0.9s0.4-0.9,0.9-0.9c0.5,0,0.9,0.4,0.9,0.9
				C228.3,587.9,227.9,588.3,227.4,588.3z"/>
			<path class="st38" d="M232.3,594.5l-4.8-1.7l-2-2.5c-0.4-0.4-0.9-0.7-1.5-0.7h-5c-0.6,0-1.2,0.3-1.6,0.8l-1.7,2.5
				c-0.4,0.5-0.5,1.1-0.5,1.8v3.7c0,0.3,0.3,0.6,0.6,0.6h1.3c0.3,1.3,1.7,2.1,3,1.8c0.9-0.2,1.6-0.9,1.8-1.8h3.9
				c0.3,1.3,1.7,2.1,3,1.8c0.9-0.2,1.6-0.9,1.8-1.8h1.3c0.3,0,0.6-0.3,0.6-0.6v-3.2C232.7,594.8,232.5,594.6,232.3,594.5z
				 M219.6,599.6c-0.7,0-1.2-0.6-1.2-1.2s0.6-1.2,1.2-1.2c0.7,0,1.2,0.6,1.2,1.2C220.8,599,220.2,599.6,219.6,599.6z M228.3,599.6
				c-0.7,0-1.2-0.6-1.2-1.2s0.6-1.2,1.2-1.2c0.7,0,1.2,0.6,1.2,1.2C229.6,599,229,599.6,228.3,599.6z M231.4,597.7h-0.7
				c-0.3-1.3-1.7-2.1-3-1.8c-0.9,0.2-1.6,0.9-1.8,1.8H222c-0.3-1.3-1.7-2.1-3-1.8c-0.9,0.2-1.6,0.9-1.8,1.8h-0.7v-3.1
				c0-0.4,0.1-0.7,0.3-1.1l1.7-2.5c0.1-0.2,0.3-0.3,0.5-0.3h5c0.2,0,0.4,0.1,0.5,0.2l2.1,2.7c0.1,0.1,0.2,0.2,0.3,0.2l4.6,1.6V597.7
				z"/>
			<rect id="_Transparent_Rectangle__20_" x="213.9" y="582.1" class="st4" width="20" height="20"/>
		</g>
	</g>
	<g id="auto-gateway">
		<path class="st42" d="M335.8,472.1h-32c-4.4,0-8-3.6-8-8v-32c0-4.4,3.6-8,8-8h32c4.4,0,8,3.6,8,8v32
			C343.8,468.5,340.2,472.1,335.8,472.1z"/>
		<rect x="280" y="479.2" class="st4" width="79.8" height="33"/>
		<text transform="matrix(1 0 0 1 291.1753 489.5728)" class="st5 st6">Gateway</text>
		<g>
			<path class="st38" d="M329.2,448.1c0-0.3-0.1-0.6-0.4-0.9l-3.6-3.6l1.8-1.8c0.7,0.2,1.4-0.2,1.5-0.9c0.2-0.7-0.2-1.4-0.9-1.5
				c-0.7-0.2-1.4,0.2-1.5,0.9c-0.1,0.2-0.1,0.4,0,0.6l-1.8,1.8l-3.6-3.6c-0.5-0.5-1.3-0.5-1.8,0c0,0,0,0,0,0l-3.6,3.6l-1.8-1.8
				c0.2-0.7-0.2-1.4-0.9-1.5c-0.7-0.2-1.4,0.2-1.5,0.9c-0.2,0.7,0.2,1.4,0.9,1.5c0.2,0.1,0.4,0.1,0.6,0l1.8,1.8l-3.6,3.6
				c-0.5,0.5-0.5,1.3,0,1.8c0,0,0,0,0,0l3.6,3.6l-1.8,1.8c-0.7-0.2-1.4,0.2-1.5,0.9s0.2,1.4,0.9,1.5c0.7,0.2,1.4-0.2,1.5-0.9
				c0.1-0.2,0.1-0.4,0-0.6l1.8-1.8l3.6,3.6c0.5,0.5,1.3,0.5,1.8,0c0,0,0,0,0,0l3.6-3.6l1.8,1.8c-0.2,0.7,0.2,1.4,0.9,1.5
				c0.7,0.2,1.4-0.2,1.5-0.9c0.2-0.7-0.2-1.4-0.9-1.5c-0.2-0.1-0.4-0.1-0.6,0l-1.8-1.8l3.6-3.6C329.1,448.7,329.2,448.4,329.2,448.1
				z M324.3,451.7l-1.7-1.7l-0.9,0.9l1.7,1.7l-3.6,3.6l-3.6-3.6l1.7-1.7l-0.9-0.9l-1.7,1.7l-3.6-3.6l3.6-3.6l1.7,1.7l0.9-0.9
				l-1.7-1.7l3.6-3.6l3.6,3.6l-1.7,1.7l0.9,0.9l1.7-1.7l3.6,3.6L324.3,451.7z"/>
			<rect id="_Transparent_Rectangle__19_" x="309.8" y="438.1" class="st4" width="20" height="20"/>
		</g>
	</g>
	<g id="auto-edge-services">
		<rect x="448.2" y="767.3" class="st4" width="79.8" height="33"/>
		<text transform="matrix(1.0005 0 0 1 471.9648 777.667)"><tspan x="0" y="0" class="st5 st6">Edge </tspan><tspan x="-10.6" y="18" class="st5 st6">services</tspan></text>
		<g>
			<path class="st43" d="M504,760.2h-32c-4.4,0-8-3.6-8-8v-32c0-4.4,3.6-8,8-8h32c4.4,0,8,3.6,8,8v32
				C512,756.6,508.4,760.2,504,760.2z"/>
			<g>
				<path class="st38" d="M494.9,739.9c-0.5,0-0.9,0.2-1.3,0.5l-2.5-1.5c0-0.2,0-0.3,0-0.5l2.5-1.5c0.8,0.7,1.9,0.7,2.6-0.1
					c0.7-0.8,0.7-1.9-0.1-2.6s-1.9-0.7-2.6,0.1c-0.3,0.3-0.5,0.8-0.5,1.3c0,0.1,0,0.2,0,0.3l-2.5,1.5c-0.8-0.7-1.9-0.7-2.7,0.1
					s-0.7,1.9,0.1,2.6c0.7,0.7,1.8,0.7,2.6,0l2.5,1.5c0,0.1,0,0.2,0,0.3c0,1,0.8,1.9,1.9,1.9s1.9-0.8,1.9-1.9
					S495.9,739.9,494.9,739.9z M494.9,734.9c0.3,0,0.6,0.3,0.6,0.6c0,0.3-0.3,0.6-0.6,0.6s-0.6-0.3-0.6-0.6
					C494.3,735.2,494.5,734.9,494.9,734.9z M489.2,739.3c-0.3,0-0.6-0.3-0.6-0.6c0-0.3,0.3-0.6,0.6-0.6s0.6,0.3,0.6,0.6
					C489.9,739,489.6,739.3,489.2,739.3z M494.9,742.4c-0.3,0-0.6-0.3-0.6-0.6s0.3-0.6,0.6-0.6s0.6,0.3,0.6,0.6
					C495.5,742.1,495.2,742.4,494.9,742.4z"/>
				<circle class="st38" cx="482.4" cy="731.2" r="0.6"/>
				<circle class="st38" cx="482.4" cy="736.2" r="0.6"/>
				<circle class="st38" cx="482.4" cy="741.2" r="0.6"/>
				<path class="st38" d="M491.8,734.3v-5c0-0.7-0.6-1.2-1.2-1.2h-10c-0.7,0-1.2,0.6-1.2,1.2V743c0,0.7,0.6,1.2,1.2,1.2h10V743h-10
					v-3.7h5V738h-5v-3.7H491.8z M480.5,729.3h10v3.7h-10V729.3z"/>
				<rect id="_Transparent_Rectangle__18_" x="478" y="726.2" class="st4" width="20" height="20"/>
			</g>
		</g>
	</g>
	<g id="auto-vehicle-services">
		<path class="st44" d="M671.8,904h-32c-4.4,0-8-3.6-8-8v-32c0-4.4,3.6-8,8-8h32c4.4,0,8,3.6,8,8v32
			C679.8,900.5,676.2,904,671.8,904z"/>
		<rect x="616" y="912" class="st4" width="79.8" height="33"/>
		<text transform="matrix(1.0005 0 0 1 631.9205 922.3599)"><tspan x="0" y="0" class="st5 st6">Vehicle </tspan><tspan x="-2.8" y="18" class="st5 st6">services</tspan></text>
		<g>
			<path class="st38" d="M664.1,881.3l-4.8-1.7l-2-2.5c-0.4-0.4-0.9-0.7-1.5-0.7h-5c-0.6,0-1.2,0.3-1.5,0.8l-1.7,2.5
				c-0.4,0.5-0.5,1.1-0.5,1.8v4.9c0,0.3,0.3,0.6,0.6,0.6h1.3c0.3,1.3,1.7,2.1,3,1.8c0.9-0.2,1.6-0.9,1.8-1.8h3.9
				c0.3,1.3,1.7,2.1,3,1.8c0.9-0.2,1.6-0.9,1.8-1.8h1.3c0.3,0,0.6-0.3,0.6-0.6v-4.5C664.6,881.6,664.4,881.4,664.1,881.3z
				 M651.4,887.6c-0.7,0-1.2-0.6-1.2-1.2s0.6-1.2,1.2-1.2c0.7,0,1.2,0.6,1.2,1.2C652.7,887,652.1,887.6,651.4,887.6z M660.2,887.6
				c-0.7,0-1.2-0.6-1.2-1.2s0.6-1.2,1.2-1.2s1.2,0.6,1.2,1.2C661.4,887,660.9,887.6,660.2,887.6z M663.3,885.7h-0.7
				c-0.3-1.3-1.7-2.1-3-1.8c-0.9,0.2-1.6,0.9-1.8,1.8h-3.9c-0.3-1.3-1.7-2.1-3-1.8c-0.9,0.2-1.6,0.9-1.8,1.8h-0.7v-4.3
				c0-0.4,0.1-0.7,0.3-1.1l1.7-2.5c0.1-0.2,0.3-0.3,0.5-0.3h5c0.2,0,0.4,0.1,0.5,0.2l2.1,2.7c0.1,0.1,0.2,0.2,0.3,0.2l4.6,1.6V885.7
				z"/>
			<path class="st38" d="M661.2,873.8c0-0.7,0.6-1.2,1.2-1.2h2.2c-0.7-1.2-2.2-1.6-3.4-0.9c-0.6,0.3-1,0.9-1.2,1.5h-4.2v1.2h4.2
				c0.3,1.3,1.7,2.1,3,1.8c0.7-0.2,1.2-0.6,1.5-1.2h-2.2C661.7,875.1,661.2,874.5,661.2,873.8z"/>
			<rect id="_Transparent_Rectangle__17_" x="645.8" y="870.1" class="st4" width="20" height="20"/>
		</g>
	</g>
	<g id="auto-connected-vehicle-insight">
		<path class="st41" d="M816.3,760.1h-32c-4.4,0-8-3.6-8-8v-32c0-4.4,3.6-8,8-8h32c4.4,0,8,3.6,8,8v32
			C824.3,756.5,820.7,760.1,816.3,760.1z"/>
		<rect x="760.5" y="768.2" class="st4" width="79.8" height="48"/>
		<text transform="matrix(1 0 0 1 765.501 778.5444)"><tspan x="0" y="0" class="st5 st6">Connected </tspan><tspan x="11.7" y="18" class="st5 st6">vehicle </tspan><tspan x="12.9" y="36" class="st5 st6">insight</tspan></text>
		<g>
			<path class="st38" d="M808.6,737.3l-4.8-1.7l-2-2.5c-0.4-0.4-0.9-0.7-1.5-0.7h-5c-0.6,0-1.2,0.3-1.5,0.8l-1.7,2.5
				c-0.4,0.5-0.5,1.1-0.5,1.8v4.9c0,0.3,0.3,0.6,0.6,0.6h1.3c0.3,1.3,1.7,2.1,3,1.8c0.9-0.2,1.6-0.9,1.8-1.8h3.9
				c0.3,1.3,1.7,2.1,3,1.8c0.9-0.2,1.6-0.9,1.8-1.8h1.3c0.3,0,0.6-0.3,0.6-0.6v-4.5C809,737.6,808.9,737.4,808.6,737.3z
				 M795.9,743.6c-0.7,0-1.2-0.6-1.2-1.2s0.6-1.2,1.2-1.2c0.7,0,1.2,0.6,1.2,1.2C797.2,743,796.6,743.6,795.9,743.6z M804.7,743.6
				c-0.7,0-1.2-0.6-1.2-1.2s0.6-1.2,1.2-1.2c0.7,0,1.2,0.6,1.2,1.2C805.9,743,805.4,743.6,804.7,743.6z M807.8,741.7h-0.7
				c-0.3-1.3-1.7-2.1-3-1.8c-0.9,0.2-1.6,0.9-1.8,1.8h-3.9c-0.3-1.3-1.7-2.1-3-1.8c-0.9,0.2-1.6,0.9-1.8,1.8h-0.7v-4.3
				c0-0.4,0.1-0.7,0.3-1.1l1.7-2.5c0.1-0.2,0.3-0.3,0.5-0.3h5c0.2,0,0.4,0.1,0.5,0.2l2.1,2.7c0.1,0.1,0.2,0.2,0.3,0.2l4.6,1.6V741.7
				z"/>
			<rect x="807.8" y="727.3" class="st38" width="1.2" height="4.4"/>
			<rect x="805.3" y="729.8" class="st38" width="1.2" height="1.9"/>
			<rect x="802.8" y="728.6" class="st38" width="1.2" height="3.1"/>
			<rect id="_Transparent_Rectangle__16_" x="790.3" y="726.1" class="st4" width="20" height="20"/>
		</g>
	</g>
	<g id="auto-mobility-services">
		<path class="st44" d="M960,616.2h-32c-4.4,0-8-3.6-8-8v-32c0-4.4,3.6-8,8-8h32c4.4,0,8,3.6,8,8v32
			C968,612.6,964.4,616.2,960,616.2z"/>
		<rect x="904.2" y="624.3" class="st4" width="79.8" height="33"/>
		<text transform="matrix(1 0 0 1 918.0337 634.665)"><tspan x="0" y="0" class="st5 st6">Mobility </tspan><tspan x="-0.7" y="18" class="st5 st6">services</tspan></text>
		<g>
			<path class="st38" d="M952.3,594.6l-4.8-1.7l-2-2.5c-0.4-0.4-0.9-0.7-1.5-0.7h-5c-0.6,0-1.2,0.3-1.5,0.8l-1.7,2.5
				c-0.4,0.5-0.5,1.1-0.5,1.8v3.7c0,0.3,0.3,0.6,0.6,0.6h1.3c0.3,1.3,1.7,2.1,3,1.8c0.9-0.2,1.6-0.9,1.8-1.8h3.9
				c0.3,1.3,1.7,2.1,3,1.8c0.9-0.2,1.6-0.9,1.8-1.8h1.3c0.3,0,0.6-0.3,0.6-0.6v-3.2C952.8,595,952.6,594.7,952.3,594.6z
				 M939.6,599.7c-0.7,0-1.2-0.6-1.2-1.2c0-0.7,0.6-1.2,1.2-1.2s1.2,0.6,1.2,1.2C940.9,599.1,940.3,599.7,939.6,599.7z M948.4,599.7
				c-0.7,0-1.2-0.6-1.2-1.2c0-0.7,0.6-1.2,1.2-1.2s1.2,0.6,1.2,1.2C949.6,599.1,949.1,599.7,948.4,599.7z M951.5,597.8h-0.7
				c-0.3-1.3-1.7-2.1-3-1.8c-0.9,0.2-1.6,0.9-1.8,1.8H942c-0.3-1.3-1.7-2.1-3-1.8c-0.9,0.2-1.6,0.9-1.8,1.8h-0.7v-3.1
				c0-0.4,0.1-0.7,0.3-1.1l1.7-2.5c0.1-0.2,0.3-0.3,0.5-0.3h5c0.2,0,0.4,0.1,0.5,0.2l2.1,2.7c0.1,0.1,0.2,0.2,0.3,0.2l4.6,1.6V597.8
				z"/>
			<path class="st38" d="M951.5,583.4H949c-0.7,0-1.2,0.6-1.2,1.2v5c0,0.7,0.6,1.2,1.2,1.2h2.5c0.7,0,1.2-0.6,1.2-1.2v-5
				C952.7,584,952.2,583.4,951.5,583.4z M951.5,584.7v1.2H949v-1.2H951.5z M949,589.7v-2.5h2.5v2.5H949z"/>
			<rect id="_Transparent_Rectangle__15_" x="934" y="582.2" class="st4" width="20" height="20"/>
		</g>
	</g>
	<g id="auto-cc-registry">
		<path class="st47" d="M1247.9,328.1h-32c-4.4,0-8-3.6-8-8v-32c0-4.4,3.6-8,8-8h32c4.4,0,8,3.6,8,8v32
			C1255.9,324.5,1252.3,328.1,1247.9,328.1z"/>
		<g>
			<rect x="1192.1" y="336.1" class="st4" width="79.8" height="33"/>
			<text transform="matrix(1 0 0 1 1196.4277 346.4155)" class="st5 st6">CC registry</text>
		</g>
		<g>
			<path class="st38" d="M1232.5,302.2v-4.4h-5.6v10h10v-5.6H1232.5z M1228.2,299.1h3.1v3.1h-3.1V299.1z M1228.2,303.4h3.1v3.1h-3.1
				V303.4z M1235.7,306.6h-3.1v-3.1h3.1V306.6z"/>
			<path class="st38" d="M1239.4,300.9h-5.6v-5.6h5.6V300.9z M1235,299.7h3.1v-3.1h-3.1V299.7z"/>
			<path class="st38" d="M1239.4,306.6h-1.2v1.2h1.2v3.8h-15v-3.8h1.2v-1.2h-1.2c-0.7,0-1.2,0.6-1.2,1.2v3.8c0,0.7,0.6,1.2,1.2,1.2
				h15c0.7,0,1.2-0.6,1.2-1.2v-3.8C1240.7,307.1,1240.1,306.6,1239.4,306.6z"/>
			<circle class="st38" cx="1226.3" cy="309.7" r="0.6"/>
			<rect id="_Transparent_Rectangle__14_" x="1221.9" y="294.1" class="st4" width="20" height="20"/>
		</g>
	</g>
	<g id="auto-transformation-connectivity">
		<rect x="1096" y="568.1" class="st40" width="16" height="104"/>
		<path class="st43" d="M1120,615.9h-32c-4.4,0-8-3.6-8-8v-32c0-4.4,3.6-8,8-8h32c4.4,0,8,3.6,8,8v32
			C1128,612.4,1124.4,615.9,1120,615.9z"/>
		<rect x="1039.8" y="624.2" class="st4" width="128.5" height="50.4"/>
		<text transform="matrix(1 0 0 1 1053.8042 634.5352)"><tspan x="0" y="0" class="st5 st6">Transformation</tspan><tspan x="38" y="18" class="st5 st6">and </tspan><tspan x="10.5" y="36" class="st5 st6">connectivity</tspan></text>
		<g>
			<path class="st38" d="M1097.1,597.6v-5.7l-2.2,2.2l-0.9-0.9l3.8-3.8l3.8,3.8l-0.9,0.9l-2.2-2.2v5.7h7.5v1.2h-7.5
				C1097.7,598.8,1097.1,598.3,1097.1,597.6z"/>
			<path class="st38" d="M1109,595.7h2.5c0.7,0,1.2,0.6,1.2,1.2v2.5c0,0.7-0.6,1.2-1.2,1.2h-2.5c-0.7,0-1.2-0.6-1.2-1.2v-2.5
				C1107.8,596.2,1108.3,595.7,1109,595.7z M1111.5,599.4v-2.5h-2.5l0,2.5H1111.5z"/>
			<path class="st38" d="M1110.9,585.7v5.7l2.2-2.2l0.9,0.9l-3.8,3.8l-3.8-3.8l0.9-0.9l2.2,2.2v-5.7h-7.5v-1.2h7.5
				C1110.3,584.4,1110.9,585,1110.9,585.7z"/>
			<rect x="1095.3" y="585.7" class="st38" width="3.8" height="1.2"/>
			<rect x="1095.3" y="583.2" class="st38" width="5" height="1.2"/>
			<rect id="_Transparent_Rectangle__13_" x="1094" y="581.9" class="st4" width="20" height="20"/>
		</g>
	</g>
	<g id="auto-management-hub">
		<path class="st48" d="M1247.8,184.1h-32c-4.4,0-8-3.6-8-8v-32c0-4.4,3.6-8,8-8h32c4.4,0,8,3.6,8,8v32
			C1255.8,180.5,1252.2,184.1,1247.8,184.1z"/>
		<rect x="1184" y="192.1" class="st4" width="96" height="33"/>
		<text transform="matrix(1 0 0 1 1189.771 202.4253)"><tspan x="0" y="0" class="st5 st6">Management </tspan><tspan x="29.8" y="18" class="st5 st6">hub</tspan></text>
		<g>
			<polygon class="st38" points="1237.7,156.8 1236.8,157.7 1238.5,159.4 1232.5,159.4 1232.5,153.4 1234.2,155.1 1235.1,154.2
				1231.8,150.9 1228.5,154.2 1229.5,155.1 1231.2,153.4 1231.2,159.4 1225.2,159.4 1226.8,157.7 1225.9,156.8 1222.6,160.1
				1225.9,163.3 1226.8,162.4 1225.2,160.7 1231.2,160.7 1231.2,166.7 1229.5,165 1228.5,166 1231.8,169.2 1235.1,166 1234.2,165
				1232.5,166.7 1232.5,160.7 1238.5,160.7 1236.8,162.4 1237.7,163.3 1241,160.1 			"/>
			<rect x="1221.8" y="150.1" class="st4" width="20" height="20"/>
		</g>
	</g>
	<rect id="_Transparent_Rectangle__12_" x="1207.8" y="816.1" class="st4" width="32" height="32"/>
	<g id="auto-edge-governance">
		<rect x="464" y="1072.2" class="st4" width="96" height="33"/>
		<text transform="matrix(1 0 0 1 495.8789 1082.5454)"><tspan x="0" y="0" class="st5 st6">Edge </tspan><tspan x="-21.6" y="18" class="st5 st6">governance</tspan></text>
		<path class="st48" d="M528,1064.2h-32c-4.4,0-8-3.6-8-8v-32c0-4.4,3.6-8,8-8h32c4.4,0,8,3.6,8,8v32
			C536,1060.6,532.4,1064.2,528,1064.2z"/>
		<g>
			<path class="st38" d="M518.9,1043.9c-0.5,0-0.9,0.2-1.3,0.5l-2.5-1.5c0-0.2,0-0.3,0-0.5l2.5-1.5c0.8,0.7,1.9,0.7,2.6-0.1
				c0.7-0.8,0.7-1.9-0.1-2.6c-0.8-0.7-1.9-0.7-2.6,0.1c-0.3,0.3-0.5,0.8-0.5,1.3c0,0.1,0,0.2,0,0.3l-2.5,1.5
				c-0.8-0.7-1.9-0.7-2.7,0.1c-0.7,0.8-0.7,1.9,0.1,2.7c0.7,0.7,1.8,0.7,2.6,0l2.5,1.5c0,0.1,0,0.2,0,0.3c0,1,0.8,1.9,1.9,1.9
				s1.9-0.8,1.9-1.9S519.9,1043.9,518.9,1043.9z M518.9,1038.9c0.3,0,0.6,0.3,0.6,0.6c0,0.3-0.3,0.6-0.6,0.6s-0.6-0.3-0.6-0.6
				C518.3,1039.2,518.5,1038.9,518.9,1038.9z M513.2,1043.3c-0.3,0-0.6-0.3-0.6-0.6c0-0.3,0.3-0.6,0.6-0.6s0.6,0.3,0.6,0.6
				C513.9,1043,513.6,1043.3,513.2,1043.3z M518.9,1046.4c-0.3,0-0.6-0.3-0.6-0.6c0-0.3,0.3-0.6,0.6-0.6s0.6,0.3,0.6,0.6
				C519.5,1046.2,519.2,1046.4,518.9,1046.4z"/>
			<circle class="st38" cx="506.4" cy="1035.2" r="0.6"/>
			<circle class="st38" cx="506.4" cy="1040.2" r="0.6"/>
			<circle class="st38" cx="506.4" cy="1045.2" r="0.6"/>
			<path class="st38" d="M515.8,1038.3v-5c0-0.7-0.6-1.2-1.2-1.2h-10c-0.7,0-1.2,0.6-1.2,1.2v13.8c0,0.7,0.6,1.2,1.2,1.2h10v-1.2
				h-10v-3.8h5v-1.2h-5v-3.8H515.8z M504.5,1033.3h10v3.8h-10V1033.3z"/>
			<rect id="_Transparent_Rectangle__11_" x="502" y="1030.2" class="st4" width="20" height="20"/>
		</g>
	</g>
	<g id="auto-multicloud-manager">
		<rect x="752" y="1072.2" class="st4" width="96" height="33"/>
		<text transform="matrix(1 0 0 1 765.6597 1082.5454)"><tspan x="0" y="0" class="st5 st6">Multicloud </tspan><tspan x="5.7" y="18" class="st5 st6">manager</tspan></text>
		<path class="st48" d="M815.8,1064.2h-32c-4.4,0-8-3.6-8-8v-32c0-4.4,3.6-8,8-8h32c4.4,0,8,3.6,8,8v32
			C823.8,1060.6,820.2,1064.2,815.8,1064.2z"/>
		<g>
			<path class="st38" d="M808.6,1039.9c0-1.9-1.4-3.6-3.2-4c-0.6-3-3.6-5-6.7-4.3c-2.2,0.5-3.9,2.2-4.3,4.3c-1.9,0.4-3.2,2.1-3.2,4
				c0,1,0.4,2,1.1,2.7c-1.4,1.5-1.4,3.8,0.1,5.3c0.7,0.7,1.6,1.1,2.6,1.1h6.9c2.1,0,3.7-1.7,3.8-3.7c0-0.5-0.1-0.9-0.2-1.3
				C807.1,1043.5,808.6,1041.8,808.6,1039.9z M801.7,1047.7h-6.9c-1.4,0-2.5-1.1-2.5-2.5c0-1.2,0.9-2.3,2.1-2.5l0.4-0.1l0.1-0.4
				c0.4-1.9,2.2-3,4.1-2.6c1.3,0.3,2.3,1.3,2.6,2.6l0.1,0.4l0.4,0.1c1.4,0.2,2.3,1.5,2,2.9C804,1046.8,802.9,1047.7,801.7,1047.7z
				 M804.5,1042.7L804.5,1042.7c-0.5-0.5-1.1-0.9-1.8-1.1c-0.8-2.5-3.4-3.8-5.9-3.1c-1.5,0.5-2.6,1.6-3.1,3.1
				c-0.2,0.1-0.4,0.2-0.6,0.3c-0.5-0.5-0.8-1.2-0.8-2c0-1.5,1.1-2.7,2.6-2.8l0.5,0l0.1-0.5c0.3-2.4,2.5-4.1,4.9-3.8
				c2,0.2,3.6,1.8,3.8,3.8l0.1,0.5l0.5,0c1.5,0.1,2.7,1.5,2.6,3C807.2,1041.6,806,1042.7,804.5,1042.7L804.5,1042.7z"/>
			<rect id="_Transparent_Rectangle__10_" x="789.8" y="1030.2" class="st4" width="20" height="20"/>
		</g>
	</g>
	<g id="auto-security">
		<rect x="616" y="1072.2" class="st4" width="79.8" height="33"/>
		<text transform="matrix(1 0 0 1 629.0483 1082.5454)" class="st5 st6">Security</text>
		<path class="st42" d="M671.8,1064.2h-32c-4.4,0-8-3.6-8-8v-32c0-4.4,3.6-8,8-8h32c4.4,0,8,3.6,8,8v32
			C679.8,1060.6,676.2,1064.2,671.8,1064.2z"/>
		<g>
			<path class="st38" d="M660.8,1038.9h-1.2v-3.8c0-2.1-1.7-3.8-3.8-3.8s-3.8,1.7-3.8,3.8v3.8h-1.2c-0.7,0-1.2,0.6-1.2,1.2v7.5
				c0,0.7,0.6,1.2,1.2,1.2h10c0.7,0,1.2-0.6,1.2-1.2v-7.5C662.1,1039.5,661.5,1038.9,660.8,1038.9z M653.3,1035.2
				c0-1.4,1.1-2.5,2.5-2.5s2.5,1.1,2.5,2.5v3.8h-5V1035.2z M660.8,1047.7h-10v-7.5h10V1047.7z"/>

				<rect id="_x3C_Transparent_Rectangle_x3E__00000150821825754095654400000010878049744963304122_" x="645.8" y="1030.2" class="st4" width="20" height="20"/>
		</g>
	</g>
	<g id="auto-data-services">
		<path class="st48" d="M960,472h-32c-4.4,0-8-3.6-8-8v-32c0-4.4,3.6-8,8-8h32c4.4,0,8,3.6,8,8v32C968,468.4,964.4,472,960,472z"/>
		<g>
			<rect x="904" y="480" class="st4" width="79.8" height="33"/>
			<text transform="matrix(1 0 0 1 928.6416 490.3594)"><tspan x="0" y="0" class="st5 st6">Data </tspan><tspan x="-11.5" y="18" class="st5 st6">services</tspan></text>
		</g>
		<g>
			<path class="st38" d="M950.2,448c-0.5,0-0.9,0.1-1.3,0.4l-1.8-1.8l1.4-1.4c0.5-0.5,0.5-1.3,0-1.8l-3.8-3.8
				c-0.2-0.2-0.6-0.4-0.9-0.4s-0.6,0.1-0.9,0.4l-3.8,3.8c-0.5,0.5-0.5,1.3,0,1.8l1.4,1.4l-1.8,1.8c-0.4-0.2-0.8-0.4-1.3-0.4
				c-1.4,0-2.5,1.1-2.5,2.5c0,1.4,1.1,2.5,2.5,2.5s2.5-1.1,2.5-2.5c0-0.5-0.1-0.9-0.4-1.3l1.8-1.8l1.4,1.4c0.1,0.1,0.2,0.1,0.3,0.2
				v2.7h-0.6h-1.2v1.2v2.5v1.2h1.2h2.5h1.2v-1.2V453v-1.2h-1.2h-0.6v-2.7c0.1-0.1,0.2-0.1,0.3-0.2l1.4-1.4l1.8,1.8
				c-0.2,0.4-0.4,0.8-0.4,1.3c0,1.4,1.1,2.5,2.5,2.5s2.5-1.1,2.5-2.5C952.8,449.1,951.6,448,950.2,448z M939,450.5
				c0,0.7-0.6,1.2-1.2,1.2c-0.7,0-1.2-0.6-1.2-1.2c0-0.7,0.6-1.2,1.2-1.2C938.4,449.2,939,449.8,939,450.5z M945.2,453v2.5h-2.5V453
				h0.6h1.2H945.2z M944,448l-3.8-3.8l3.8-3.8l3.8,3.8L944,448z M950.2,451.8c-0.7,0-1.2-0.6-1.2-1.2c0-0.7,0.6-1.2,1.2-1.2
				c0.7,0,1.2,0.6,1.2,1.2C951.5,451.2,950.9,451.8,950.2,451.8z"/>
			<rect x="934" y="438" class="st4" width="20" height="20"/>
		</g>
	</g>
	<g id="auto-data-ai-platform">
		<path class="st47" d="M672,472.2h-32c-4.4,0-8-3.6-8-8v-32c0-4.4,3.6-8,8-8h32c4.4,0,8,3.6,8,8v32
			C680,468.6,676.4,472.2,672,472.2z"/>
		<g>
			<rect x="616.2" y="480.2" class="st4" width="79.8" height="31.5"/>
			<text transform="matrix(1 0 0 1 628.1704 490.5439)"><tspan x="0" y="0" class="st5 st6">Data&amp;AI</tspan><tspan x="-0.2" y="18" class="st5 st6">platform</tspan></text>
		</g>
		<g>
			<path class="st38" d="M652.3,449.4c0.2,0,0.4,0.1,0.6,0.1c0.5,0,1-0.1,1.4-0.4l2,1.8c-0.3,0.6-0.4,1.3-0.1,2
				c0.5,1.3,1.9,2,3.2,1.5s2-1.9,1.5-3.2c-0.1-0.4-0.4-0.8-0.7-1.1l1.6-3.2c0.6,0.1,1.3,0,1.8-0.3c1.2-0.7,1.6-2.3,0.8-3.4
				c-0.7-1.2-2.3-1.6-3.4-0.8c-1.2,0.7-1.6,2.3-0.8,3.4c0.1,0.2,0.3,0.4,0.5,0.6l-1.6,3.2c-0.2,0-0.3-0.1-0.5-0.1
				c-0.5,0-1,0.1-1.4,0.4l-2-1.8c0.3-0.6,0.4-1.3,0.1-2c-0.5-1.3-1.9-2-3.2-1.5c-1.3,0.5-2,1.9-1.5,3.2c0.1,0.4,0.4,0.8,0.7,1
				l-2.7,5v-14.4h-1.2v16.2c0,0.7,0.6,1.2,1.2,1.2h16.2v-1.2h-15.8L652.3,449.4z M662.2,443.2c0.7,0,1.2,0.6,1.2,1.2
				c0,0.7-0.6,1.2-1.2,1.2s-1.2-0.6-1.2-1.2C661,443.7,661.6,443.2,662.2,443.2z M659.8,451.9c0,0.7-0.6,1.2-1.2,1.2
				s-1.2-0.6-1.2-1.2c0-0.7,0.6-1.2,1.2-1.2S659.8,451.2,659.8,451.9z M652.9,445.7c0.7,0,1.2,0.6,1.2,1.2c0,0.7-0.6,1.2-1.2,1.2
				s-1.2-0.6-1.2-1.2C651.6,446.2,652.2,445.7,652.9,445.7z"/>

				<rect id="_Transparent_Rectangle__00000091700235627263239670000005522321372544521139_" x="646" y="438.2" class="st4" width="20" height="20"/>
		</g>
	</g>
	<g id="auto-network-services">
		<path class="st43" d="M504,328h-32c-4.4,0-8-3.6-8-8v-32c0-4.4,3.6-8,8-8h32c4.4,0,8,3.6,8,8v32C512,324.4,508.4,328,504,328z"/>
		<rect x="448.2" y="335.2" class="st4" width="79.8" height="33"/>
		<text transform="matrix(1 0 0 1 460.1802 345.5728)"><tspan x="0" y="0" class="st5 st6">Network </tspan><tspan x="1.2" y="18" class="st5 st6">services</tspan></text>
		<g>
			<rect x="487.4" y="301.5" class="st38" width="1.2" height="11.2"/>
			<path class="st38" d="M485.1,305.4c-1.8-1.6-2-4.4-0.3-6.2c0.1-0.1,0.2-0.2,0.3-0.3l0.8,0.9c-1.3,1.1-1.4,3.1-0.3,4.4
				c0.1,0.1,0.2,0.2,0.3,0.3L485.1,305.4z"/>
			<path class="st38" d="M490.9,305.4l-0.8-0.9c1.3-1.1,1.4-3.1,0.3-4.4c-0.1-0.1-0.2-0.2-0.3-0.3l0.8-0.9c1.8,1.6,2,4.4,0.3,6.2
				C491.2,305.2,491,305.3,490.9,305.4z"/>
			<path class="st38" d="M483.2,307.6c-3-2.3-3.7-6.6-1.4-9.6c0.4-0.5,0.9-1,1.4-1.4l0.8,1c-2.5,1.9-3,5.4-1.1,7.9
				c0.3,0.4,0.7,0.8,1.1,1.1L483.2,307.6z"/>
			<path class="st38" d="M492.8,307.6l-0.8-1c2.5-1.9,3-5.4,1.1-7.9c-0.3-0.4-0.7-0.8-1.1-1.1l0.8-1c3,2.3,3.7,6.6,1.4,9.6
				C493.7,306.8,493.3,307.2,492.8,307.6z"/>

				<rect id="_Transparent_Rectangle__00000154398357647394067240000015180745935491981234_" x="478" y="294" class="st4" width="20" height="20"/>
		</g>
	</g>
	<g id="auto-data-store">
		<path class="st47" d="M1248,472h-32c-4.4,0-8-3.6-8-8v-32c0-4.4,3.6-8,8-8h32c4.4,0,8,3.6,8,8v32C1256,468.4,1252.4,472,1248,472z
			"/>
		<g>
			<rect x="1192" y="480" class="st4" width="80" height="16"/>
			<text transform="matrix(1 0 0 1 1198.3726 490.3594)" class="st5 st6">Data store</text>
		</g>
		<g>
			<g>
				<defs>
					<path id="SVGID_00000088133610600098991990000013457835963625714571_" d="M1228.9,453.6c0.3,0,0.6-0.3,0.6-0.6
						s-0.3-0.6-0.6-0.6s-0.6,0.3-0.6,0.6S1228.5,453.6,1228.9,453.6z M1228.9,448.6c0.3,0,0.6-0.3,0.6-0.6s-0.3-0.6-0.6-0.6
						s-0.6,0.3-0.6,0.6S1228.5,448.6,1228.9,448.6z M1228.9,443.6c0.3,0,0.6-0.3,0.6-0.6s-0.3-0.6-0.6-0.6s-0.6,0.3-0.6,0.6
						S1228.5,443.6,1228.9,443.6z M1227,454.9v-3.8h10v3.8H1227z M1227,449.9v-3.8h10v3.8H1227z M1237,441.1v3.8h-10v-3.8H1237z
						 M1237,439.9h-10c-0.7,0-1.2,0.6-1.2,1.2v13.8c0,0.7,0.6,1.2,1.2,1.2h10c0.7,0,1.2-0.6,1.2-1.2v-13.8
						C1238.2,440.4,1237.7,439.9,1237,439.9z"/>
				</defs>
				<clipPath id="SVGID_00000064341021001079935750000001523178267254321829_">
					<use xlink:href="#SVGID_00000088133610600098991990000013457835963625714571_"  style="overflow:visible;"/>
				</clipPath>

					<rect x="1221.6" y="435.7" style="clip-path:url(#SVGID_00000064341021001079935750000001523178267254321829_);fill:#FFFFFF;" width="20.8" height="24.6"/>
			</g>
			<rect x="1222" y="438" class="st4" width="20" height="20"/>
		</g>
	</g>
</g>
</svg>
