<?xml version="1.0" encoding="utf-8"?>
<!-- Generator: Adobe Illustrator 26.0.2, SVG Export Plug-In . SVG Version: 6.00 Build 0)  -->
<svg version="1.1" id="Layer_1" xmlns="http://www.w3.org/2000/svg" xmlns:xlink="http://www.w3.org/1999/xlink" x="0px" y="0px"
	 viewBox="0 0 1824 1026" style="enable-background:new 0 0 1824 1026;" xml:space="preserve">
<style type="text/css">
	.st0{fill:#F2F4F8;stroke:#878D96;stroke-miterlimit:10;}
	.st1{fill:none;}
	.st2{font-family:'IBMPlexSans-SemiBold';}
	.st3{font-size:16.25px;}
	.st4{fill:#4D5358;stroke:#4D5358;stroke-miterlimit:10;}
	.st5{fill:#FFFFFF;stroke:#4D5358;stroke-width:1.06;stroke-miterlimit:10;}
	.st6{font-size:14px;}
	.st7{fill:#FFFFFF;stroke:#4D5358;stroke-miterlimit:10;stroke-dasharray:4,4;}
	.st8{fill:none;stroke:#000000;stroke-miterlimit:10;}
	.st9{fill:none;stroke:#000000;stroke-miterlimit:10;stroke-dasharray:8,4;}
	.st10{fill:#F2F4F8;}
	.st11{font-family:'IBMPlexSans';}
	.st12{font-size:10px;}
	.st13{fill:#FFFFFF;}
	.st14{fill:#6F6F6F;}
	.st15{fill:none;stroke:#6F6F6F;stroke-miterlimit:10;}
	.st16{fill:#198038;}
	.st17{fill:#009D9A;}
	.st18{fill:#1192E8;}
	.st19{fill:#EE5396;}
	.st20{fill:#FA4D56;}
	.st21{fill:#0F62FE;}
	.st22{fill:#A56EFF;}
	.st23{fill:none;stroke:#000000;stroke-width:1.5;stroke-miterlimit:10;}
	.st24{fill:none;stroke:#EE5396;stroke-width:1.5;stroke-miterlimit:10;}
	.st25{fill:#FFF1F1;stroke:#FA4D56;stroke-miterlimit:10;}
	.st26{fill:none;stroke:#198038;stroke-miterlimit:10;}
	.st27{clip-path:url(#SVGID_00000097481562625976839830000002611012538281824697_);}
	.st28{fill:none;stroke:#697077;stroke-miterlimit:10;}
	.st29{fill:#697077;}
</style>
<g id="Boxes">
	<path class="st0" d="M1008,22h800c4.4,0,8,3.6,8,8v864c0,4.4-3.6,8-8,8h-792c-4.4,0-8-3.6-8-8V22L1008,22z"/>
	<rect x="1008" y="23" class="st1" width="246" height="55.7"/>
	<text transform="matrix(0.98 0 0 1 1028.4707 53.9199)" class="st2 st3">En</text>
	<text transform="matrix(0.98 0 0 1 1047.3838 53.9199)" class="st2 st3">t</text>
	<text transform="matrix(0.98 0 0 1 1053.2842 53.9199)" class="st2 st3">erprise</text>
	<rect x="1008" y="23" class="st4" width="3.4" height="55.7"/>
	<path class="st5" d="M1072,92.2h240c4.4,0,8,3.6,8,8v144c0,4.4-3.6,8-8,8h-232c-4.4,0-8-3.6-8-8V92.2z"/>
	<text transform="matrix(1 0 0 1 1088 120.64)" class="st2 st6">P</text>
	<text transform="matrix(1 0 0 1 1096.6899 120.64)" class="st2 st6">eer pl</text>
	<text transform="matrix(1 0 0 1 1133.64 120.64)" class="st2 st6">a</text>
	<text transform="matrix(1 0 0 1 1141.41 120.64)" class="st2 st6">t</text>
	<text transform="matrix(1 0 0 1 1146.6 120.64)" class="st2 st6">f</text>
	<text transform="matrix(1 0 0 1 1151.45 120.64)" class="st2 st6">orm</text>
	<rect x="1072" y="92.2" class="st4" width="3" height="48"/>
	<path class="st5" d="M1436,92.2h356c4.4,0,8,3.6,8,8v144c0,4.4-3.6,8-8,8h-348c-4.4,0-8-3.6-8-8V92.2z"/>
	<text transform="matrix(1 0 0 1 1448 120.64)" class="st2 st6">En</text>
	<text transform="matrix(1 0 0 1 1464.63 120.64)" class="st2 st6">t</text>
	<text transform="matrix(1 0 0 1 1469.8101 120.64)" class="st2 st6">erprise apps</text>
	<rect x="1437" y="92.2" class="st4" width="3" height="48"/>
	<path class="st0" d="M8,22h248c4.4,0,8,3.6,8,8v864c0,4.4-3.6,8-8,8H16c-4.4,0-8-3.6-8-8V22L8,22z"/>
	<rect x="8" y="23" class="st1" width="246" height="55.7"/>
	<text transform="matrix(0.98 0 0 1 28.4702 53.9199)" class="st2 st3">E</text>
	<text transform="matrix(0.98 0 0 1 37.8682 53.9199)" class="st2 st3">d</text>
	<text transform="matrix(0.98 0 0 1 47.4233 53.9199)" class="st2 st3">g</text>
	<text transform="matrix(0.98 0 0 1 56.0083 53.9199)" class="st2 st3">e</text>
	<rect x="8" y="23" class="st4" width="3.4" height="55.7"/>
	<path class="st0" d="M344,22.7h576c4.4,0,8,3.6,8,8V894c0,4.4-3.6,8-8,8H352c-4.4,0-8-3.6-8-8V22.7L344,22.7z"/>
	<rect x="352" y="22" class="st1" width="246" height="55.7"/>
	<text transform="matrix(0.98 0 0 1 364.4702 52.8599)" class="st2 st3">Plant</text>
	<rect x="344" y="23" class="st4" width="3.4" height="55.7"/>
	<path class="st5" d="M392,94h240c4.4,0,8,3.6,8,8v144c0,4.4-3.6,8-8,8H400c-4.4,0-8-3.6-8-8V94L392,94z"/>
	<text transform="matrix(1 0 0 1 408 122.38)" class="st2 st6">Plant apps</text>
	<rect x="392" y="94" class="st4" width="3" height="48"/>
	<path class="st7" d="M72,230h120c4.4,0,8,3.6,8,8v320c0,4.4-3.6,8-8,8H80c-4.4,0-8-3.6-8-8V230L72,230z"/>
	<text transform="matrix(1 0 0 1 88 258.38)" class="st2 st6">P</text>
	<text transform="matrix(1 0 0 1 96.83 258.38)" class="st2 st6">r</text>
	<text transform="matrix(1 0 0 1 102.27 258.38)" class="st2 st6">o</text>
	<text transform="matrix(1 0 0 1 109.94 258.38)" class="st2 st6">ximity </text>
	<text transform="matrix(1 0 0 1 88 274.38)" class="st2 st6">net</text>
	<text transform="matrix(1 0 0 1 109.28 274.38)" class="st2 st6">w</text>
	<text transform="matrix(1 0 0 1 120.62 274.38)" class="st2 st6">ork (</text>
	<text transform="matrix(1 0 0 1 149.89 274.38)" class="st2 st6">O</text>
	<text transform="matrix(1 0 0 1 159.53 274.38)" class="st2 st6">T</text>
	<text transform="matrix(1 0 0 1 167.92 274.38)" class="st2 st6">)</text>
	<g id="iot-iiot-platform-plant">
		<path class="st5" d="M392,294h488c4.4,0,8,3.6,8,8v438.2c0,4.4-3.6,8-8,8H400c-4.4,0-8-3.6-8-8V294L392,294z"/>
		<text transform="matrix(1 0 0 1 408 322.38)" class="st2 st6">I</text>
		<text transform="matrix(1 0 0 1 413.92 322.38)" class="st2 st6">I</text>
		<text transform="matrix(1 0 0 1 419.77 322.38)" class="st2 st6">o</text>
		<text transform="matrix(1 0 0 1 426.73 322.38)" class="st2 st6">T pl</text>
		<text transform="matrix(1 0 0 1 450.67 322.38)" class="st2 st6">a</text>
		<text transform="matrix(1 0 0 1 458.44 322.38)" class="st2 st6">t</text>
		<text transform="matrix(1 0 0 1 463.63 322.38)" class="st2 st6">f</text>
		<text transform="matrix(1 0 0 1 468.48 322.38)" class="st2 st6">orm (plant)</text>
		<rect x="392" y="294" class="st4" width="3" height="48"/>
	</g>
	<rect x="72" y="230" class="st4" width="3" height="48"/>
	<path class="st7" d="M240,294h117.8c4.4,0,8,3.6,8,8v176c0,4.4-3.6,8-8,8H248c-4.4,0-8-3.6-8-8V294L240,294z"/>
	<text transform="matrix(1 0 0 1 256 322.38)" class="st2 st6">A</text>
	<text transform="matrix(1 0 0 1 265.41 322.38)" class="st2 st6">cc</text>
	<text transform="matrix(1 0 0 1 279.63 322.38)" class="st2 st6">e</text>
	<text transform="matrix(1 0 0 1 287.44 322.38)" class="st2 st6">s</text>
	<text transform="matrix(1 0 0 1 294.33 322.38)" class="st2 st6">s </text>
	<text transform="matrix(1 0 0 1 256 338.38)" class="st2 st6">net</text>
	<text transform="matrix(1 0 0 1 277.28 338.38)" class="st2 st6">w</text>
	<text transform="matrix(1 0 0 1 288.62 338.38)" class="st2 st6">ork </text>
	<text transform="matrix(1 0 0 1 256 354.38)" class="st2 st6">(plant DM</text>
	<text transform="matrix(1 0 0 1 318.9 354.38)" class="st2 st6">Z</text>
	<text transform="matrix(1 0 0 1 327.43 354.38)" class="st2 st6">)</text>
	<rect x="240" y="294" class="st4" width="3" height="64"/>
	<path class="st7" d="M904,294h120c4.4,0,8,3.6,8,8v176c0,4.4-3.6,8-8,8H912c-4.4,0-8-3.6-8-8V294L904,294z"/>
	<text transform="matrix(1 0 0 1 920 322.38)" class="st2 st6">A</text>
	<text transform="matrix(1 0 0 1 929.41 322.38)" class="st2 st6">cc</text>
	<text transform="matrix(1 0 0 1 943.63 322.38)" class="st2 st6">e</text>
	<text transform="matrix(1 0 0 1 951.44 322.38)" class="st2 st6">s</text>
	<text transform="matrix(1 0 0 1 958.33 322.38)" class="st2 st6">s </text>
	<text transform="matrix(1 0 0 1 920 338.38)" class="st2 st6">net</text>
	<text transform="matrix(1 0 0 1 941.28 338.38)" class="st2 st6">w</text>
	<text transform="matrix(1 0 0 1 952.62 338.38)" class="st2 st6">ork </text>
	<text transform="matrix(1 0 0 1 920 354.38)" class="st2 st6">(</text>
	<text transform="matrix(1 0 0 1 924.72 354.38)" class="st2 st6">O</text>
	<text transform="matrix(1 0 0 1 934.35 354.38)" class="st2 st6">T DM</text>
	<text transform="matrix(1 0 0 1 966.84 354.38)" class="st2 st6">Z</text>
	<text transform="matrix(1 0 0 1 975.37 354.38)" class="st2 st6">)</text>
	<rect x="904" y="294" class="st4" width="3" height="64"/>
	<path class="st5" d="M192,766h1184c4.4,0,8,3.6,8,8v104c0,4.4-3.6,8-8,8H200c-4.4,0-8-3.6-8-8V766L192,766z"/>
	<g>
		<rect x="192.1" y="766.1" class="st1" width="191.9" height="48"/>
		<rect x="192.1" y="766.1" class="st4" width="3" height="48"/>
		<g>
			<rect x="192.1" y="766.1" class="st1" width="191.9" height="48"/>
			<text transform="matrix(1 0 0 1 208.39 794.43)" class="st2 st6">I</text>
			<text transform="matrix(1 0 0 1 214.31 794.43)" class="st2 st6">I</text>
			<text transform="matrix(1 0 0 1 220.16 794.43)" class="st2 st6">o</text>
			<text transform="matrix(1 0 0 1 227.12 794.43)" class="st2 st6">T pl</text>
			<text transform="matrix(1 0 0 1 251.06 794.43)" class="st2 st6">a</text>
			<text transform="matrix(1 0 0 1 258.83 794.43)" class="st2 st6">t</text>
			<text transform="matrix(1 0 0 1 264.02 794.43)" class="st2 st6">f</text>
			<text transform="matrix(1 0 0 1 268.87 794.43)" class="st2 st6">orm </text>
			<text transform="matrix(1 0 0 1 208.39 812.43)" class="st2 st6">c</text>
			<text transform="matrix(1 0 0 1 215.5 812.43)" class="st2 st6">ommon se</text>
			<text transform="matrix(1 0 0 1 282.46 812.43)" class="st2 st6">r</text>
			<text transform="matrix(1 0 0 1 288.08 812.43)" class="st2 st6">vi</text>
			<text transform="matrix(1 0 0 1 299.28 812.43)" class="st2 st6">c</text>
			<text transform="matrix(1 0 0 1 306.39 812.43)" class="st2 st6">es</text>
			<rect x="192.1" y="766.1" class="st4" width="3" height="48"/>
		</g>
	</g>
	<g id="iot-iiot-platform-enterprise">
		<path class="st5" d="M1072,294h720c4.4,0,8,3.6,8,8v438.2c0,4.4-3.6,8-8,8h-712c-4.4,0-8-3.6-8-8V294L1072,294z"/>
		<text transform="matrix(1 0 0 1 1088 322.38)" class="st2 st6">I</text>
		<text transform="matrix(1 0 0 1 1093.92 322.38)" class="st2 st6">I</text>
		<text transform="matrix(1 0 0 1 1099.77 322.38)" class="st2 st6">o</text>
		<text transform="matrix(1 0 0 1 1106.73 322.38)" class="st2 st6">T pl</text>
		<text transform="matrix(1 0 0 1 1130.67 322.38)" class="st2 st6">a</text>
		<text transform="matrix(1 0 0 1 1138.4399 322.38)" class="st2 st6">t</text>
		<text transform="matrix(1 0 0 1 1143.63 322.38)" class="st2 st6">f</text>
		<text transform="matrix(1 0 0 1 1148.48 322.38)" class="st2 st6">orm (en</text>
		<text transform="matrix(1 0 0 1 1198.36 322.38)" class="st2 st6">t</text>
		<text transform="matrix(1 0 0 1 1203.54 322.38)" class="st2 st6">erprise)</text>
		<rect x="1072" y="294" class="st4" width="3" height="48"/>
	</g>
	<path class="st7" d="M1288,430h288c4.4,0,8,3.6,8,8v150.2c0,4.4-3.6,8-8,8h-280c-4.4,0-8-3.6-8-8V430L1288,430z"/>
	<text transform="matrix(1 0 0 1 1304 458.38)" class="st2 st6">Se</text>
	<text transform="matrix(1 0 0 1 1320.37 458.38)" class="st2 st6">r</text>
	<text transform="matrix(1 0 0 1 1325.98 458.38)" class="st2 st6">vi</text>
	<text transform="matrix(1 0 0 1 1337.1801 458.38)" class="st2 st6">c</text>
	<text transform="matrix(1 0 0 1 1344.29 458.38)" class="st2 st6">es net</text>
	<text transform="matrix(1 0 0 1 1383.67 458.38)" class="st2 st6">w</text>
	<text transform="matrix(1 0 0 1 1395.01 458.38)" class="st2 st6">ork </text>
	<text transform="matrix(1 0 0 1 1304 474.38)" class="st2 st6">(en</text>
	<text transform="matrix(1 0 0 1 1324.76 474.38)" class="st2 st6">t</text>
	<text transform="matrix(1 0 0 1 1329.9399 474.38)" class="st2 st6">erprise)</text>
	<rect x="1288" y="430" class="st4" width="3" height="48"/>
	<path class="st7" d="M616,430h168c4.4,0,8,3.6,8,8v150.2c0,4.4-3.6,8-8,8H624c-4.4,0-8-3.6-8-8V430L616,430z"/>
	<text transform="matrix(1 0 0 1 632 458.38)" class="st2 st6">Se</text>
	<text transform="matrix(1 0 0 1 648.37 458.38)" class="st2 st6">r</text>
	<text transform="matrix(1 0 0 1 653.98 458.38)" class="st2 st6">vi</text>
	<text transform="matrix(1 0 0 1 665.18 458.38)" class="st2 st6">c</text>
	<text transform="matrix(1 0 0 1 672.29 458.38)" class="st2 st6">es net</text>
	<text transform="matrix(1 0 0 1 711.67 458.38)" class="st2 st6">w</text>
	<text transform="matrix(1 0 0 1 723.01 458.38)" class="st2 st6">ork </text>
	<text transform="matrix(1 0 0 1 632 474.38)" class="st2 st6">(plant)</text>
	<rect x="616" y="430" class="st4" width="3" height="48"/>
</g>
<g id="Arrows">
	<g>
		<line class="st8" x1="546.3" y1="171.2" x2="485.7" y2="171.2"/>
		<polygon points="545.1,167.2 552,171.2 545.1,175.2 		"/>
		<polygon points="486.9,167.2 480,171.2 486.9,175.2 		"/>
	</g>
	<g>
		<path class="st8" d="M645.7,171.2H688c4.4,0,8,3.6,8,8v245.2"/>
		<polygon points="646.9,175.2 640,171.2 646.9,167.2 		"/>
		<polygon points="692,423.2 696,430.1 700,423.2 		"/>
	</g>
	<g>
		<path class="st8" d="M576,224.9v154.3c0,4.4-3.6,8-8,8h-90.3"/>
		<polygon points="572,226.1 576,219.2 580,226.1 		"/>
		<polygon points="478.9,383.2 472,387.2 478.9,391.2 		"/>
	</g>
	<g>
		<path class="st9" d="M106.3,339.2H48c-4.4,0-8,3.6-8,8v240c0,4.4,3.6,8,8,8h8c4.4,0,8,3.6,8,8v34.3"/>
		<polygon points="105.1,335.2 112,339.2 105.1,343.2 		"/>
		<polygon points="60,636.3 64,643.2 68,636.3 		"/>
	</g>
	<g>
		<path class="st9" d="M64,208.9v114.3c0,4.4,3.6,8,8,8h34.3"/>
		<polygon points="60,210.1 64,203.2 68,210.1 		"/>
		<polygon points="105.1,335.2 112,331.2 105.1,327.2 		"/>
	</g>
	<g>
		<path class="st8" d="M720,424.4v-18.5c0.1-4.3,3.7-7.8,8-7.7l0,0h210.3"/>
		<polygon points="724,423.2 720,430.1 716,423.2 		"/>
		<polygon points="937.1,402.1 944,398.1 937.1,394.1 		"/>
	</g>
	<g>
		<line class="st8" x1="576" y1="584.9" x2="576" y2="637.4"/>
		<polygon points="572,586.1 576,579.2 580,586.1 		"/>
		<polygon points="572,636.3 576,643.2 580,636.3 		"/>
	</g>
	<g>
		<line class="st8" x1="448" y1="584.9" x2="448" y2="637.4"/>
		<polygon points="444,586.1 448,579.2 452,586.1 		"/>
		<polygon points="444,636.3 448,643.2 452,636.3 		"/>
	</g>
	<g>
		<path class="st8" d="M1405.7,350.1h74.3c4.4,0,8,3.6,8,8v127.3"/>
		<polygon points="1406.9,354.1 1400,350.1 1406.9,346.1 		"/>
		<polygon points="1484,484.3 1488,491.2 1492,484.3 		"/>
	</g>
	<g>
		<path class="st8" d="M1616,637.4V531.2c0-4.4,3.6-8,8-8h82.3"/>
		<polygon points="1620,636.3 1616,643.2 1612,636.3 		"/>
		<polygon points="1705.1,527.2 1712,523.2 1705.1,519.2 		"/>
	</g>
	<g>
		<line class="st8" x1="1645.7" y1="665.2" x2="1706.3" y2="665.2"/>
		<polygon points="1646.9,669.2 1640,665.2 1646.9,661.2 		"/>
		<polygon points="1705.1,669.2 1712,665.2 1705.1,661.2 		"/>
	</g>
	<g>
		<line class="st8" x1="1589.7" y1="507.2" x2="1706.3" y2="507.2"/>
		<polygon points="1590.9,511.2 1584,507.2 1590.9,503.2 		"/>
		<polygon points="1705.1,511.2 1712,507.2 1705.1,503.2 		"/>
	</g>
	<g>
		<path class="st8" d="M1005.7,390.1H1280c4.4,0,8-3.6,8-8v-24c0-4.4,3.6-8,8-8h50.3"/>
		<polygon points="1006.9,394.1 1000,390.1 1006.9,386.1 		"/>
		<polygon points="1345.1,354.1 1352,350.1 1345.1,346.1 		"/>
	</g>
	<g>
		<line class="st8" x1="1376" y1="240.9" x2="1376" y2="320.4"/>
		<polygon points="1372,242.1 1376,235.2 1380,242.1 		"/>
		<polygon points="1372,319.2 1376,326.1 1380,319.2 		"/>
	</g>
	<g>
		<path class="st8" d="M1384,320.4v-37.2c0-4.4,3.6-8,8-8h96c4.4,0,8-3.6,8-8V257"/>
		<polygon points="1388,319.2 1384,326.1 1380,319.2 		"/>
		<polygon points="1500,258.1 1496,251.2 1492,258.1 		"/>
	</g>
	<g>
		<path class="st8" d="M1368,320.4v-37.2c0-4.4-3.6-8-8-8h-96c-4.4,0-8-3.6-8-8V257"/>
		<polygon points="1372,319.2 1368,326.1 1364,319.2 		"/>
		<polygon points="1260,258.1 1256,251.2 1252,258.1 		"/>
	</g>
	<g>
		<line class="st8" x1="1136" y1="584.9" x2="1136" y2="637.4"/>
		<polygon points="1132,586.1 1136,579.2 1140,586.1 		"/>
		<polygon points="1132,636.3 1136,643.2 1140,636.3 		"/>
	</g>
	<g>
		<line class="st8" x1="1736" y1="584.9" x2="1736" y2="637.4"/>
		<polygon points="1732,586.1 1736,579.2 1740,586.1 		"/>
		<polygon points="1732,636.3 1736,643.2 1740,636.3 		"/>
	</g>
	<g>
		<line class="st8" x1="605.7" y1="665.2" x2="674.3" y2="665.2"/>
		<polygon points="606.9,669.2 600,665.2 606.9,661.2 		"/>
		<polygon points="673.1,669.2 680,665.2 673.1,661.2 		"/>
	</g>
	<g>
		<line class="st8" x1="733.7" y1="665.2" x2="802.3" y2="665.2"/>
		<polygon points="734.9,669.2 728,665.2 734.9,661.2 		"/>
		<polygon points="801.1,669.2 808,665.2 801.1,661.2 		"/>
	</g>
	<g>
		<path class="st8" d="M477.7,403.2H520c4.4,0,8,3.6,8,8v74.3"/>
		<polygon points="478.9,407.2 472,403.2 478.9,399.2 		"/>
		<polygon points="524,484.3 528,491.2 532,484.3 		"/>
	</g>
	<g>
		<path class="st8" d="M341.7,398.1H368c4.4,0,8,3.6,8,8v253.1c0,4.4,3.6,8,8,8h34.3"/>
		<polygon points="342.9,402.1 336,398.1 342.9,394.1 		"/>
		<polygon points="417.1,671.2 424,667.2 417.1,663.2 		"/>
	</g>
	<g>
		<path class="st8" d="M341.7,390.1H376c4.4,0,8,3.6,8,8v109.1c0,4.4,3.6,8,8,8l0,0h26.3"/>
		<polygon points="342.9,394.1 336,390.1 342.9,386.1 		"/>
		<polygon points="417.1,519.2 424,515.2 417.1,511.2 		"/>
	</g>
	<g>
		<path class="st8" d="M1005.7,406.1h26.3c4.4,0,8,3.6,8,8v245.1c0,4.4,3.6,8,8,8h58.3"/>
		<polygon points="1006.9,410.1 1000,406.1 1006.9,402.1 		"/>
		<polygon points="1105.1,671.2 1112,667.2 1105.1,663.2 		"/>
	</g>
	<g>
		<path class="st8" d="M1005.7,398.1h42.3c4.4,0,8,3.6,8,8v101.1c0,4.4,3.6,8,8,8l0,0h42.3"/>
		<polygon points="1006.9,402.1 1000,398.1 1006.9,394.1 		"/>
		<polygon points="1105.1,519.2 1112,515.2 1105.1,511.2 		"/>
	</g>
	<g>
		<path class="st8" d="M1504,485.4v-132c0-4.4,3.6-8,8-8h96c4.4,0,8-3.6,8-8v-80.5"/>
		<polygon points="1508,484.3 1504,491.2 1500,484.3 		"/>
		<polygon points="1620,258.1 1616,251.2 1612,258.1 		"/>
	</g>
	<g>
		<path class="st8" d="M165.7,339.2H216c4.4,0,8,3.6,8,8v32c0,4.4,3.6,8,8,8h42.3"/>
		<polygon points="166.9,343.2 160,339.2 166.9,335.2 		"/>
		<polygon points="273.1,391.2 280,387.2 273.1,383.2 		"/>
	</g>
	<g>
		<path class="st8" d="M165.7,475.2H176c4.4,0,8-3.6,8-8v-64c0-4.4,3.6-8,8-8h82.3"/>
		<polygon points="166.9,479.2 160,475.2 166.9,471.2 		"/>
		<polygon points="273.1,399.2 280,395.2 273.1,391.2 		"/>
	</g>
	<g>
		<path class="st8" d="M200,637.4v-50.3c0-4.4-3.6-8-8-8H64c-4.4,0-8-3.6-8-8v-216c0-4.4,3.6-8,8-8h42.3"/>
		<polygon points="204,636.3 200,643.2 196,636.3 		"/>
		<polygon points="105.1,351.2 112,347.2 105.1,343.2 		"/>
	</g>
	<g>
		<path class="st8" d="M224,637.4V411.2c0-4.4,3.6-8,8-8h42.3"/>
		<polygon points="228,636.3 224,643.2 220,636.3 		"/>
		<polygon points="273.1,407.2 280,403.2 273.1,399.2 		"/>
	</g>
	<g>
		<path class="st8" d="M208,637.4V491.2c0-4.4-3.6-8-8-8h-34.3"/>
		<polygon points="212,636.3 208,643.2 204,636.3 		"/>
		<polygon points="166.9,479.2 160,483.2 166.9,487.2 		"/>
	</g>
	<rect x="216" y="499.2" class="st10" width="16" height="64"/>
	<text transform="matrix(6.123234e-17 -1 1 6.123234e-17 227.7 555.71)" class="st11 st12">I</text>
	<text transform="matrix(6.123234e-17 -1 1 6.123234e-17 227.7 551.7803)" class="st11 st12">T </text>
	<text transform="matrix(6.123234e-17 -1 1 6.123234e-17 227.7 543.7002)" class="st11 st12">P</text>
	<text transform="matrix(6.123234e-17 -1 1 6.123234e-17 227.7 537.7402)" class="st11 st12">r</text>
	<text transform="matrix(6.123234e-17 -1 1 6.123234e-17 227.7 534.1201)" class="st11 st12">o</text>
	<text transform="matrix(6.123234e-17 -1 1 6.123234e-17 227.7 528.5205)" class="st11 st12">t</text>
	<text transform="matrix(6.123234e-17 -1 1 6.123234e-17 227.7 525.0498)" class="st11 st12">o</text>
	<text transform="matrix(6.123234e-17 -1 1 6.123234e-17 227.7 519.4502)" class="st11 st12">c</text>
	<text transform="matrix(6.123234e-17 -1 1 6.123234e-17 227.7 514.4805)" class="st11 st12">ol</text>
	<rect x="201.5" y="499.2" class="st10" width="13" height="64"/>
	<text transform="matrix(6.123234e-17 -1 1 6.123234e-17 211.7 557.1904)" class="st11 st12">O</text>
	<text transform="matrix(6.123234e-17 -1 1 6.123234e-17 211.7 550.3096)" class="st11 st12">T </text>
	<text transform="matrix(6.123234e-17 -1 1 6.123234e-17 211.7 542.2305)" class="st11 st12">P</text>
	<text transform="matrix(6.123234e-17 -1 1 6.123234e-17 211.7 536.2695)" class="st11 st12">r</text>
	<text transform="matrix(6.123234e-17 -1 1 6.123234e-17 211.7 532.6504)" class="st11 st12">o</text>
	<text transform="matrix(6.123234e-17 -1 1 6.123234e-17 211.7 527.0498)" class="st11 st12">t</text>
	<text transform="matrix(6.123234e-17 -1 1 6.123234e-17 211.7 523.5801)" class="st11 st12">o</text>
	<text transform="matrix(6.123234e-17 -1 1 6.123234e-17 211.7 517.9805)" class="st11 st12">c</text>
	<text transform="matrix(6.123234e-17 -1 1 6.123234e-17 211.7 513.0098)" class="st11 st12">ol</text>
	<rect x="176" y="403.2" class="st13" width="16" height="64"/>
	<text transform="matrix(6.123234e-17 -1 1 6.123234e-17 187.7 459.71)" class="st11 st12">I</text>
	<text transform="matrix(6.123234e-17 -1 1 6.123234e-17 187.7 455.7803)" class="st11 st12">T </text>
	<text transform="matrix(6.123234e-17 -1 1 6.123234e-17 187.7 447.7002)" class="st11 st12">P</text>
	<text transform="matrix(6.123234e-17 -1 1 6.123234e-17 187.7 441.7402)" class="st11 st12">r</text>
	<text transform="matrix(6.123234e-17 -1 1 6.123234e-17 187.7 438.1201)" class="st11 st12">o</text>
	<text transform="matrix(6.123234e-17 -1 1 6.123234e-17 187.7 432.5195)" class="st11 st12">t</text>
	<text transform="matrix(6.123234e-17 -1 1 6.123234e-17 187.7 429.0498)" class="st11 st12">o</text>
	<text transform="matrix(6.123234e-17 -1 1 6.123234e-17 187.7 423.4502)" class="st11 st12">c</text>
	<text transform="matrix(6.123234e-17 -1 1 6.123234e-17 187.7 418.4805)" class="st11 st12">ol</text>
	<rect x="176" y="307.2" class="st13" width="16" height="64"/>
	<text transform="matrix(6.123234e-17 -1 1 6.123234e-17 187.7 363.71)" class="st11 st12">I</text>
	<text transform="matrix(6.123234e-17 -1 1 6.123234e-17 187.7 359.7803)" class="st11 st12">T </text>
	<text transform="matrix(6.123234e-17 -1 1 6.123234e-17 187.7 351.7002)" class="st11 st12">P</text>
	<text transform="matrix(6.123234e-17 -1 1 6.123234e-17 187.7 345.7402)" class="st11 st12">r</text>
	<text transform="matrix(6.123234e-17 -1 1 6.123234e-17 187.7 342.1201)" class="st11 st12">o</text>
	<text transform="matrix(6.123234e-17 -1 1 6.123234e-17 187.7 336.5195)" class="st11 st12">t</text>
	<text transform="matrix(6.123234e-17 -1 1 6.123234e-17 187.7 333.0498)" class="st11 st12">o</text>
	<text transform="matrix(6.123234e-17 -1 1 6.123234e-17 187.7 327.4502)" class="st11 st12">c</text>
	<text transform="matrix(6.123234e-17 -1 1 6.123234e-17 187.7 322.4805)" class="st11 st12">ol</text>
	<g>
		<line class="st8" x1="136" y1="441.8" x2="136" y2="389.2"/>
		<polygon points="140,440.6 136,447.5 132,440.6 		"/>
		<polygon points="140,390.4 136,383.5 132,390.4 		"/>
	</g>
	<rect x="104" y="405.6" class="st13" width="64" height="16"/>
	<text transform="matrix(1 0 0 1 109.91 417.31)" class="st11 st12">O</text>
	<text transform="matrix(1 0 0 1 116.79 417.31)" class="st11 st12">T p</text>
	<text transform="matrix(1 0 0 1 130.67 417.31)" class="st11 st12">r</text>
	<text transform="matrix(1 0 0 1 134.29 417.31)" class="st11 st12">o</text>
	<text transform="matrix(1 0 0 1 139.89 417.31)" class="st11 st12">t</text>
	<text transform="matrix(1 0 0 1 143.36 417.31)" class="st11 st12">o</text>
	<text transform="matrix(1 0 0 1 148.96 417.31)" class="st11 st12">c</text>
	<text transform="matrix(1 0 0 1 153.93 417.31)" class="st11 st12">ol</text>
	<g>
		<path class="st8" d="M832,637.4v-10.3c0-4.4-3.6-8-8-8H592c-4.4,0-8,3.6-8,8v10.3"/>
		<polygon points="836,636.3 832,643.2 828,636.3 		"/>
		<polygon points="580,636.3 584,643.2 588,636.3 		"/>
	</g>
</g>
<g id="Icons">
	<g>
		<line class="st8" x1="1645.7" y1="171.2" x2="1706.3" y2="171.2"/>
		<polygon points="1646.9,175.2 1640,171.2 1646.9,167.2 		"/>
		<polygon points="1705.1,175.2 1712,171.2 1705.1,167.2 		"/>
	</g>
	<rect x="8" y="926" width="32" height="16"/>
	<text transform="matrix(1 0 0 1 48 938.05)" class="st14 st11 st6">User</text>
	<path class="st15" d="M784.8,926.1L784.8,926.1c4.4,0,8,3.6,8,8l0,0c0,4.4-3.6,8-8,8l0,0c-4.4,0-8-3.6-8-8l0,0
		C776.8,929.7,780.4,926.1,784.8,926.1z"/>
	<text transform="matrix(1 0 0 1 801.1 938.17)" class="st14 st11 st6">Ac</text>
	<text transform="matrix(1 0 0 1 817.12 938.17)" class="st14 st11 st6">t</text>
	<text transform="matrix(1 0 0 1 821.97 938.17)" class="st14 st11 st6">or</text>
	<path class="st15" d="M780.6,958.1h9c1.9,0,3.5,1.6,3.5,3.5v9c0,1.9-1.6,3.5-3.5,3.5h-9c-1.9,0-3.5-1.6-3.5-3.5v-9
		C777.1,959.7,778.7,958.1,780.6,958.1z"/>
	<text transform="matrix(1 0 0 1 801.44 970.17)" class="st14 st11 st6">L</text>
	<text transform="matrix(1 0 0 1 808.31 970.17)" class="st14 st11 st6">ogical node</text>
	<rect x="8" y="990" class="st16" width="32" height="16"/>
	<text transform="matrix(1 0 0 1 48.05 1002.05)" class="st14 st11 st6">Inf</text>
	<text transform="matrix(1 0 0 1 66.14 1002.05)" class="st14 st11 st6">r</text>
	<text transform="matrix(1 0 0 1 71.22 1002.05)" class="st14 st11 st6">a</text>
	<text transform="matrix(1 0 0 1 78.7 1002.05)" class="st14 st11 st6">s</text>
	<text transform="matrix(1 0 0 1 85.42 1002.05)" class="st14 st11 st6">tructu</text>
	<text transform="matrix(1 0 0 1 123.33 1002.05)" class="st14 st11 st6">r</text>
	<text transform="matrix(1 0 0 1 128.39 1002.05)" class="st14 st11 st6">e se</text>
	<text transform="matrix(1 0 0 1 153.89 1002.05)" class="st14 st11 st6">r</text>
	<text transform="matrix(1 0 0 1 159.17 1002.05)" class="st14 st11 st6">vi</text>
	<text transform="matrix(1 0 0 1 169.55 1002.05)" class="st14 st11 st6">c</text>
	<text transform="matrix(1 0 0 1 176.51 1002.05)" class="st14 st11 st6">es</text>
	<rect x="224" y="926.1" class="st17" width="32" height="16"/>
	<text transform="matrix(1 0 0 1 264 938.17)" class="st14 st11 st6">Mana</text>
	<text transform="matrix(1 0 0 1 298.27 938.17)" class="st14 st11 st6">g</text>
	<text transform="matrix(1 0 0 1 305.58 938.17)" class="st14 st11 st6">ement</text>
	<rect x="392.8" y="926.1" class="st18" width="32" height="16"/>
	<text transform="matrix(1 0 0 1 432.78 938.17)" class="st14 st11 st6">Data orien</text>
	<text transform="matrix(1 0 0 1 497.46 938.17)" class="st14 st11 st6">t</text>
	<text transform="matrix(1 0 0 1 502.32 938.17)" class="st14 st11 st6">ed se</text>
	<text transform="matrix(1 0 0 1 535.93 938.17)" class="st14 st11 st6">r</text>
	<text transform="matrix(1 0 0 1 541.21 938.17)" class="st14 st11 st6">vi</text>
	<text transform="matrix(1 0 0 1 551.6 938.17)" class="st14 st11 st6">c</text>
	<text transform="matrix(1 0 0 1 558.55 938.17)" class="st14 st11 st6">e</text>
	<rect x="392.8" y="958.1" class="st19" width="32" height="16"/>
	<text transform="matrix(1 0 0 1 432.78 970.17)" class="st14 st11 st6">Bloc</text>
	<text transform="matrix(1 0 0 1 460.61 970.17)" class="st14 st11 st6">k</text>
	<text transform="matrix(1 0 0 1 467.75 970.17)" class="st14 st11 st6">chain</text>
	<rect x="224" y="990.1" class="st20" width="32" height="16"/>
	<text transform="matrix(1 0 0 1 264 1002.17)" class="st14 st11 st6">Security</text>
	<rect x="8" y="958.1" class="st21" width="32" height="16"/>
	<text transform="matrix(1 0 0 1 48 970.17)" class="st14 st11 st6">Application</text>
	<rect x="224" y="958.2" class="st22" width="32" height="16"/>
	<text transform="matrix(1 0 0 1 264 970.28)" class="st14 st11 st6">Ana</text>
	<text transform="matrix(1 0 0 1 288.4 970.28)" class="st14 st11 st6">l</text>
	<text transform="matrix(1 0 0 1 292.07 970.28)" class="st14 st11 st6">ytics</text>
	<text transform="matrix(1 0 0 1 648.78 938.17)" class="st14 st11 st6">Cont</text>
	<text transform="matrix(1 0 0 1 678.1801 938.17)" class="st14 st11 st6">r</text>
	<text transform="matrix(1 0 0 1 683.25 938.17)" class="st14 st11 st6">ol fl</text>
	<text transform="matrix(1 0 0 1 706.54 938.17)" class="st14 st11 st6">o</text>
	<text transform="matrix(1 0 0 1 714.3101 938.17)" class="st14 st11 st6">w</text>
	<line class="st23" x1="608.8" y1="934.1" x2="640.4" y2="934.1"/>
	<text transform="matrix(1 0 0 1 648.78 970.17)" class="st14 st11 st6">Data fl</text>
	<text transform="matrix(1 0 0 1 689.69 970.17)" class="st14 st11 st6">o</text>
	<text transform="matrix(1 0 0 1 697.46 970.17)" class="st14 st11 st6">w</text>
	<line class="st24" x1="608.8" y1="966.1" x2="640.4" y2="966.1"/>
	<g id="iot-gateway-plant-service-bus">
		<path class="st25" d="M432.6,491.2h190.8c4.7,0,8.6,3.9,8.6,8.6v70.8c0,4.7-3.9,8.6-8.6,8.6H432.6c-4.7,0-8.6-3.9-8.6-8.6v-70.8
			C424,495,427.9,491.2,432.6,491.2z"/>
		<text transform="matrix(1 0 0 1 488 509.78)" class="st2 st6">Plant se</text>
		<text transform="matrix(1 0 0 1 540.48 509.78)" class="st2 st6">r</text>
		<text transform="matrix(1 0 0 1 546.1 509.78)" class="st2 st6">vi</text>
		<text transform="matrix(1 0 0 1 557.3 509.78)" class="st2 st6">c</text>
		<text transform="matrix(1 0 0 1 564.41 509.78)" class="st2 st6">e bus</text>
		<text transform="matrix(1 0 0 1 488 527.78)" class="st11 st6">Connect/broker</text>
		<text transform="matrix(1 0 0 1 488 545.78)" class="st11 st6">Data t</text>
		<text transform="matrix(1 0 0 1 525.48 545.78)" class="st11 st6">r</text>
		<text transform="matrix(1 0 0 1 530.56 545.78)" class="st11 st6">an</text>
		<text transform="matrix(1 0 0 1 545.99 545.78)" class="st11 st6">s</text>
		<text transform="matrix(1 0 0 1 552.74 545.78)" class="st11 st6">f</text>
		<text transform="matrix(1 0 0 1 557.22 545.78)" class="st11 st6">ormation</text>
		<text transform="matrix(1 0 0 1 488 563.78)" class="st11 st6">Ana</text>
		<text transform="matrix(1 0 0 1 512.4 563.78)" class="st11 st6">l</text>
		<text transform="matrix(1 0 0 1 516.07 563.78)" class="st11 st6">ytics</text>
		<path class="st20" d="M432.4,491.1h40l0,0v48l0,0h-48l0,0v-40C424.4,494.7,428,491.1,432.4,491.1z"/>
		<g>
			<path class="st13" d="M450.9,513h-5c-0.7,0-1.2,0.6-1.2,1.2v8.1c0,0.7,0.6,1.2,1.2,1.2h5c0.7,0,1.2-0.6,1.2-1.2v-8.2
				C452.1,513.5,451.5,513,450.9,513z M450.9,514.2v1.9h-5v-1.9H450.9z M450.9,517.4v1.9h-5v-1.9H450.9z M445.9,522.4v-1.9h5v1.9
				H445.9z"/>
			<path class="st13" d="M454.6,511.2C454.6,511.2,454.5,511.2,454.6,511.2c-0.7-3.4-4.1-5.6-7.4-5c-2.5,0.5-4.4,2.4-4.9,4.9
				c0,0,0,0-0.1,0.1c-2.5,0.5-4.2,3-3.7,5.5c0.4,2.2,2.3,3.8,4.6,3.8h0.3v-1.2h-0.3c-1.9,0-3.4-1.6-3.4-3.4l0,0c0-0.2,0-0.3,0-0.5
				c0.3-1.5,1.4-2.7,3-2.9l0.6-0.1c0,0,0.1,0,0.1-0.1l0.1-0.6c0.4-2.2,2.1-3.9,4.3-4.2c0.6-0.1,1.2-0.1,1.8,0.1
				c2,0.5,3.5,2.1,3.8,4.1l0.1,0.6c0,0,0,0.1,0.1,0.1l0.7,0.1c0.7,0.1,1.4,0.5,1.9,1c1.3,1.3,1.4,3.5,0,4.9c-0.6,0.6-1.5,1-2.4,1
				h-0.3v1.2h0.3c2.6,0,4.7-2.1,4.7-4.7C458.3,513.5,456.7,511.6,454.6,511.2L454.6,511.2z"/>
			<rect id="_Transparent_Rectangle_" x="438.4" y="505.1" class="st1" width="20" height="20"/>
		</g>
	</g>
	<g id="iot-security">
		<path class="st20" d="M360,782.3h32c4.4,0,8,3.6,8,8v32c0,4.4-3.6,8-8,8h-32c-4.4,0-8-3.6-8-8v-32
			C352,785.9,355.6,782.3,360,782.3z"/>
		<g>
			<path class="st13" d="M381,805h-1.2v-3.8c0-2.1-1.7-3.8-3.8-3.8s-3.8,1.7-3.8,3.8v3.8H371c-0.7,0-1.2,0.6-1.2,1.2v7.5
				c0,0.7,0.6,1.2,1.2,1.2h10c0.7,0,1.2-0.6,1.2-1.2v-7.5C382.2,805.6,381.7,805,381,805z M373.5,801.3c0-1.4,1.1-2.5,2.5-2.5
				s2.5,1.1,2.5,2.5v3.8h-5V801.3z M381,813.8h-10v-7.5h10V813.8z"/>
			<rect id="_Transparent_Rectangle_2" x="366" y="796.3" class="st1" width="20" height="20"/>
		</g>
		<text transform="matrix(1 0 0 1 349.14 846.51)" class="st2 st6">Security</text>
	</g>
	<g id="iot-scada">
		<path class="st21" d="M191.9,643.2h32c4.4,0,8,3.6,8,8v32c0,4.4-3.6,8-8,8h-32c-4.4,0-8-3.6-8-8v-32
			C183.9,646.8,187.5,643.2,191.9,643.2z"/>
		<text transform="matrix(1 0 0 1 185.25 709.47)" class="st2 st6">S</text>
		<text transform="matrix(1 0 0 1 193.8 709.47)" class="st2 st6">C</text>
		<text transform="matrix(1 0 0 1 202.71 709.47)" class="st2 st6">A</text>
		<text transform="matrix(1 0 0 1 212.12 709.47)" class="st2 st6">D</text>
		<text transform="matrix(1 0 0 1 221.34 709.47)" class="st2 st6">A</text>
		<g>
			<polygon class="st13" points="200.4,669.7 200.4,670.9 203.3,670.9 199.2,675 200,675.9 204.2,671.8 204.2,674.7 205.4,674.7 
				205.4,669.7 			"/>
			<rect x="210.4" y="670.9" class="st13" width="2.5" height="1.2"/>
			<rect x="207.9" y="668.4" class="st13" width="2.5" height="1.2"/>
			<rect x="210.4" y="665.9" class="st13" width="2.5" height="1.2"/>
			<rect x="202.9" y="665.9" class="st13" width="2.5" height="1.2"/>
			<path class="st13" d="M214.8,659H201c-0.7,0-1.2,0.6-1.2,1.2v6.9h1.2V664h13.8v10h-6.9v1.2h6.9c0.7,0,1.2-0.6,1.2-1.2v-13.8
				C216,659.6,215.5,659.1,214.8,659z M214.8,662.8H201v-2.5h13.8V662.8z"/>
			<rect id="_Transparent_Rectangle_3" x="197.9" y="657.2" class="st1" width="20" height="20"/>
		</g>
	</g>
	<g id="iot-operator">
		<circle cx="208" cy="131.2" r="24"/>
		<text transform="matrix(1 0 0 1 179.07 173.47)" class="st2 st6">Ope</text>
		<text transform="matrix(1 0 0 1 205.25 173.47)" class="st2 st6">r</text>
		<text transform="matrix(1 0 0 1 210.6 173.47)" class="st2 st6">at</text>
		<text transform="matrix(1 0 0 1 223.55 173.47)" class="st2 st6">or</text>
		<g>
			<path class="st13" d="M208,123.7c1.7,0,3.1,1.4,3.1,3.1c0,1.7-1.4,3.1-3.1,3.1c-1.7,0-3.1-1.4-3.1-3.1
				C204.9,125.1,206.3,123.7,208,123.7L208,123.7 M208,122.4c-2.4,0-4.4,2-4.4,4.4c0,2.4,2,4.4,4.4,4.4s4.4-2,4.4-4.4l0,0
				C212.4,124.4,210.4,122.4,208,122.4z"/>
			<path class="st13" d="M214.2,139.9H213v-3.1c0-1.7-1.4-3.1-3.1-3.1l0,0h-3.8c-1.7,0-3.1,1.4-3.1,3.1v3.1h-1.2v-3.1
				c0-2.4,2-4.4,4.4-4.4h3.8c2.4,0,4.4,2,4.4,4.4v3.1H214.2z"/>
			<rect id="_Transparent_Rectangle_4" x="198" y="121.2" class="st1" width="20" height="20"/>
		</g>
	</g>
	<g id="iot-sensor-actuator">
		<circle cx="63.8" cy="131.2" r="24"/>
		<text transform="matrix(1 0 0 1 36.81 173.47)" class="st2 st6">Sensor / </text>
		<text transform="matrix(1 0 0 1 36.6 191.47)" class="st2 st6">actu</text>
		<text transform="matrix(1 0 0 1 65.08 191.47)" class="st2 st6">at</text>
		<text transform="matrix(1 0 0 1 78.03 191.47)" class="st2 st6">or</text>
		<g>
			<rect x="63.2" y="128.7" class="st13" width="1.3" height="11.2"/>
			<path class="st13" d="M60.9,132.6c-1.8-1.6-2-4.4-0.3-6.2c0.1-0.1,0.2-0.2,0.3-0.3l0.8,0.9c-1.3,1.2-1.4,3.1-0.2,4.4
				c0.1,0.1,0.2,0.2,0.2,0.2L60.9,132.6z"/>
			<path class="st13" d="M66.7,132.6l-0.8-0.9c1.3-1.2,1.4-3.1,0.2-4.4c-0.1-0.1-0.2-0.2-0.2-0.2l0.8-0.9c1.8,1.6,2,4.4,0.3,6.2
				C67,132.3,66.9,132.5,66.7,132.6z"/>
			<path class="st13" d="M59.1,134.8c-3-2.3-3.7-6.6-1.4-9.6c0.4-0.5,0.9-1,1.4-1.4l0.8,1c-2.5,1.9-3,5.4-1.1,7.9
				c0.3,0.4,0.7,0.8,1.1,1.1L59.1,134.8z"/>
			<path class="st13" d="M68.6,134.8l-0.8-1c2.5-1.9,3-5.4,1.1-7.9c-0.3-0.4-0.7-0.8-1.1-1.1l0.8-1c3,2.3,3.6,6.6,1.4,9.6
				C69.5,134,69.1,134.4,68.6,134.8z"/>
			<rect id="_Transparent_Rectangle_5" x="53.8" y="121.2" class="st1" width="20" height="20"/>
		</g>
	</g>
	<g id="iot-prod-equipment-tools">
		<circle cx="63.8" cy="667.2" r="24"/>
		<text transform="matrix(1 0 0 1 28.41 709.53)" class="st2 st6">P</text>
		<text transform="matrix(1 0 0 1 37.24 709.53)" class="st2 st6">r</text>
		<text transform="matrix(1 0 0 1 42.68 709.53)" class="st2 st6">oduction </text>
		<text transform="matrix(1 0 0 1 25.73 727.53)" class="st2 st6">equipment/ </text>
		<text transform="matrix(1 0 0 1 47.97 745.53)" class="st2 st6">t</text>
		<text transform="matrix(1 0 0 1 53.15 745.53)" class="st2 st6">ools</text>
		<g>
			<path class="st13" d="M70.7,667.7c0-0.2,0-0.3,0-0.5s0-0.3,0-0.5l1.2-1.1c0.5-0.4,0.6-1,0.3-1.6l-1.5-2.6
				c-0.2-0.4-0.6-0.6-1.1-0.6c-0.1,0-0.3,0-0.4,0.1l-1.5,0.5c-0.3-0.2-0.5-0.3-0.8-0.5l-0.3-1.6c-0.1-0.6-0.6-1-1.2-1h-3
				c-0.6,0-1.1,0.4-1.2,1l-0.2,1.6c-0.3,0.1-0.6,0.3-0.8,0.5l-1.5-0.5c-0.1,0-0.3-0.1-0.4-0.1c-0.4,0-0.9,0.2-1.1,0.6l-1.5,2.6
				c-0.3,0.5-0.2,1.2,0.3,1.6l1.2,1c0,0.2,0,0.3,0,0.5s0,0.3,0,0.5l-1.2,1.1c-0.5,0.4-0.6,1-0.3,1.6l1.5,2.6
				c0.2,0.4,0.6,0.6,1.1,0.6c0.1,0,0.3,0,0.4-0.1l1.5-0.5c0.3,0.2,0.5,0.3,0.8,0.5l0.3,1.6c0.1,0.6,0.6,1,1.2,1h3
				c0.6,0,1.1-0.4,1.2-1l0.3-1.6c0.3-0.1,0.6-0.3,0.8-0.5l1.5,0.5c0.1,0,0.3,0.1,0.4,0.1c0.4,0,0.9-0.2,1.1-0.6l1.5-2.6
				c0.3-0.5,0.2-1.2-0.3-1.6L70.7,667.7z M69.6,672.2l-2.1-0.7c-0.5,0.4-1.1,0.8-1.7,1l-0.4,2.2h-3l-0.5-2.2c-0.6-0.2-1.2-0.6-1.7-1
				l-2.2,0.7l-1.5-2.5l1.7-1.5c-0.1-0.6-0.1-1.3,0-2l-1.7-1.5l1.5-2.5l2.1,0.7c0.5-0.4,1.1-0.8,1.7-1l0.5-2.2h3l0.4,2.2
				c0.6,0.2,1.2,0.6,1.7,1l2.2-0.7l1.5,2.5l-1.7,1.5c0.1,0.6,0.1,1.3,0,2l1.7,1.5L69.6,672.2z"/>
			<path class="st13" d="M63.8,670.9c-2.1,0-3.8-1.7-3.8-3.8s1.7-3.8,3.7-3.8c2.1,0,3.8,1.7,3.8,3.8l0,0
				C67.6,669.2,65.9,670.9,63.8,670.9C63.9,670.9,63.8,670.9,63.8,670.9z M63.8,664.7c-1.4,0-2.5,1.1-2.5,2.5s1.1,2.5,2.5,2.5
				c1.4,0,2.5-1.1,2.5-2.5l0,0c0-1.4-1-2.5-2.4-2.5H63.8z"/>
			<rect id="_Transparent_Rectangle_6" x="53.8" y="657.2" class="st1" width="20" height="20"/>
		</g>
	</g>
	<g id="config-auto-mgt">
		<text transform="matrix(1 0 0 1 778.91 845.72)" class="st2 st6">Confi</text>
		<text transform="matrix(1 0 0 1 812.75 845.72)" class="st2 st6">g</text>
		<text transform="matrix(1 0 0 1 820.3199 845.72)" class="st2 st6">u</text>
		<text transform="matrix(1 0 0 1 828.55 845.72)" class="st2 st6">r</text>
		<text transform="matrix(1 0 0 1 833.9 845.72)" class="st2 st6">a</text>
		<text transform="matrix(1 0 0 1 841.67 845.72)" class="st2 st6">tion, au</text>
		<text transform="matrix(1 0 0 1 890.43 845.72)" class="st2 st6">t</text>
		<text transform="matrix(1 0 0 1 895.61 845.72)" class="st2 st6">om</text>
		<text transform="matrix(1 0 0 1 915.93 845.72)" class="st2 st6">a</text>
		<text transform="matrix(1 0 0 1 923.6899 845.72)" class="st2 st6">tion </text>
		<text transform="matrix(1 0 0 1 814.5699 863.72)" class="st2 st6">&amp; mana</text>
		<text transform="matrix(1 0 0 1 864.18 863.72)" class="st2 st6">g</text>
		<text transform="matrix(1 0 0 1 871.72 863.72)" class="st2 st6">ement</text>
		<path class="st18" d="M847.9,780.2h32c4.4,0,8,3.6,8,8v32c0,4.4-3.6,8-8,8h-32c-4.4,0-8-3.6-8-8v-32
			C839.9,783.7,843.5,780.2,847.9,780.2z"/>
		<g>
			<path class="st13" d="M870.8,804.6c0-0.2,0-0.3,0-0.5s0-0.3,0-0.5l1.2-1.1c0.5-0.4,0.6-1,0.3-1.6l-1.5-2.6
				c-0.2-0.4-0.6-0.6-1.1-0.6c-0.1,0-0.3,0-0.4,0.1l-1.5,0.5c-0.3-0.2-0.5-0.3-0.8-0.5l-0.3-1.6c-0.1-0.6-0.6-1-1.2-1h-3
				c-0.6,0-1.1,0.4-1.2,1l-0.3,1.6c-0.3,0.1-0.6,0.3-0.8,0.5l-1.5-0.5c-0.1,0-0.3-0.1-0.4-0.1c-0.4,0-0.9,0.2-1.1,0.6l-1.5,2.6
				c-0.3,0.5-0.2,1.2,0.3,1.6l1.2,1.1c0,0.2,0,0.3,0,0.5s0,0.3,0,0.5l-1.2,1c-0.5,0.4-0.6,1-0.3,1.6l1.5,2.6
				c0.2,0.4,0.6,0.6,1.1,0.6c0.1,0,0.3,0,0.4-0.1l1.5-0.5c0.3,0.2,0.5,0.3,0.8,0.5l0.3,1.6c0.1,0.6,0.6,1,1.2,1h3
				c0.6,0,1.1-0.4,1.2-1l0.3-1.6c0.3-0.1,0.6-0.3,0.8-0.5l1.5,0.5c0.1,0,0.3,0.1,0.4,0.1c0.5,0,0.9-0.2,1.1-0.6l1.5-2.6
				c0.3-0.5,0.2-1.2-0.3-1.6L870.8,804.6z M869.7,809.2l-2.1-0.7c-0.5,0.4-1.1,0.8-1.7,1l-0.5,2.2h-3l-0.4-2.2
				c-0.6-0.2-1.2-0.6-1.7-1l-2.2,0.7l-1.5-2.5l1.7-1.5c-0.1-0.7-0.1-1.3,0-2l-1.7-1.5l1.5-2.5l2.1,0.7c0.5-0.4,1.1-0.8,1.7-1
				l0.4-2.2h3l0.5,2.2c0.6,0.2,1.2,0.6,1.7,1l2.2-0.7l1.5,2.5l-1.7,1.5c0.1,0.7,0.1,1.3,0,2l1.7,1.5L869.7,809.2z"/>
			<path class="st13" d="M863.9,807.9c-2.1,0-3.8-1.7-3.8-3.8s1.7-3.8,3.8-3.8s3.8,1.7,3.8,3.8l0,0
				C867.7,806.2,866,807.9,863.9,807.9C864,807.9,863.9,807.9,863.9,807.9z M863.9,801.7c-1.4,0-2.5,1.1-2.5,2.5s1.1,2.5,2.5,2.5
				s2.5-1.1,2.5-2.5C866.4,802.9,865.4,801.7,863.9,801.7C864,801.6,864,801.6,863.9,801.7z"/>
			<rect id="_Transparent_Rectangle_7" x="853.9" y="794.2" class="st1" width="20" height="20"/>
		</g>
	</g>
	<g id="iot-gateway-box">
		<path class="st20" d="M120,451.2h32c4.4,0,8,3.6,8,8v32c0,4.4-3.6,8-8,8h-32c-4.4,0-8-3.6-8-8v-32
			C112,454.8,115.6,451.2,120,451.2z"/>
		<text transform="matrix(1 0 0 1 96.57 517.53)" class="st2 st6">I</text>
		<text transform="matrix(1 0 0 1 102.42 517.53)" class="st2 st6">o</text>
		<text transform="matrix(1 0 0 1 109.38 517.53)" class="st2 st6">T </text>
		<text transform="matrix(1 0 0 1 120.8 517.53)" class="st2 st6">g</text>
		<text transform="matrix(1 0 0 1 128.4 517.53)" class="st2 st6">at</text>
		<text transform="matrix(1 0 0 1 141.35 517.53)" class="st2 st6">e</text>
		<text transform="matrix(1 0 0 1 149.1 517.53)" class="st2 st6">w</text>
		<text transform="matrix(1 0 0 1 160.38 517.53)" class="st2 st6">a</text>
		<text transform="matrix(1 0 0 1 168.09 517.53)" class="st2 st6">y</text>
		<g>
			<path class="st13" d="M144.8,477h-2.5v-2.5H141v5.6h-10v-10h5.6v-1.2h-2.5v-2.5h-1.2v2.5H131c-0.7,0-1.2,0.6-1.2,1.2v1.9h-2.5
				v1.2h2.5v3.8h-2.5v1.2h2.5v1.9c0,0.7,0.6,1.2,1.2,1.2h1.9v2.5h1.2v-2.5h3.8v2.5h1.2v-2.5h1.9c0.7,0,1.2-0.6,1.2-1.2v-1.9h2.5V477
				H144.8z"/>
			<path class="st13" d="M139.1,478.3h-6.2V472h6.2V478.3z M134.1,477h3.8v-3.8h-3.8V477z"/>
			<path class="st13" d="M145.4,473.3h-1.2c0-3.5-2.8-6.2-6.2-6.2l0,0v-1.2C142,465.8,145.4,469.2,145.4,473.3z"/>
			<path class="st13" d="M142.2,473.3H141c0-1.7-1.4-3.1-3.1-3.1l0,0V469C140.3,468.9,142.2,470.9,142.2,473.3z"/>
			<rect id="_Transparent_Rectangle_8" x="126" y="465.2" class="st1" width="20" height="20"/>
		</g>
	</g>
	<g id="iot-edge-services-plant">
		<text transform="matrix(1 0 0 1 258.49 439.48)" class="st2 st6">E</text>
		<text transform="matrix(1 0 0 1 266.75 439.48)" class="st2 st6">d</text>
		<text transform="matrix(1 0 0 1 275.15 439.48)" class="st2 st6">g</text>
		<text transform="matrix(1 0 0 1 282.7 439.48)" class="st2 st6">e se</text>
		<text transform="matrix(1 0 0 1 308.61 439.48)" class="st2 st6">r</text>
		<text transform="matrix(1 0 0 1 314.22 439.48)" class="st2 st6">vi</text>
		<text transform="matrix(1 0 0 1 325.42 439.48)" class="st2 st6">c</text>
		<text transform="matrix(1 0 0 1 332.53 439.48)" class="st2 st6">es </text>
		<text transform="matrix(1 0 0 1 281.29 457.48)" class="st2 st6">(plant)</text>
		<path class="st16" d="M288,373.1h32c4.4,0,8,3.6,8,8v32c0,4.4-3.6,8-8,8h-32c-4.4,0-8-3.6-8-8v-32
			C280,376.7,283.6,373.1,288,373.1z"/>
		<g>
			<path class="st13" d="M311.9,403.4h-15c-0.7,0-1.2-0.6-1.2-1.2v-10c0-0.7,0.6-1.2,1.2-1.2h15c0.7,0,1.2,0.6,1.2,1.2v10
				C313.1,402.8,312.6,403.4,311.9,403.4z M296.9,392.1v10h15v-10H296.9z"/>
			<rect x="298.8" y="394" class="st13" width="1.2" height="6.2"/>
			<rect x="301.2" y="394" class="st13" width="1.2" height="6.2"/>
			<rect x="303.8" y="394" class="st13" width="1.2" height="6.2"/>
			<rect x="306.2" y="394" class="st13" width="1.2" height="6.2"/>
			<rect x="308.8" y="394" class="st13" width="1.2" height="6.2"/>
			<rect x="294.4" y="387.1" class="st1" width="20" height="20"/>
		</g>
		<path class="st26" d="M288,370.1h35.2c4.3,0,7.8,3.5,7.8,7.8v35.2"/>
		<path class="st26" d="M292,366.1h35.2c4.3,0,7.8,3.5,7.8,7.8v35.2"/>
	</g>
	<g id="iot-edge-services-enterprise">
		<path class="st16" d="M951.8,373.1h32c4.4,0,8,3.6,8,8v32c0,4.4-3.6,8-8,8h-32c-4.4,0-8-3.6-8-8v-32
			C943.8,376.7,947.4,373.1,951.8,373.1z"/>
		<text transform="matrix(1 0 0 1 923.49 439.48)" class="st2 st6">E</text>
		<text transform="matrix(1 0 0 1 931.75 439.48)" class="st2 st6">d</text>
		<text transform="matrix(1 0 0 1 940.15 439.48)" class="st2 st6">g</text>
		<text transform="matrix(1 0 0 1 947.7 439.48)" class="st2 st6">e se</text>
		<text transform="matrix(1 0 0 1 973.61 439.48)" class="st2 st6">r</text>
		<text transform="matrix(1 0 0 1 979.22 439.48)" class="st2 st6">vi</text>
		<text transform="matrix(1 0 0 1 990.4199 439.48)" class="st2 st6">c</text>
		<text transform="matrix(1 0 0 1 997.53 439.48)" class="st2 st6">es </text>
		<text transform="matrix(1 0 0 1 952.55 457.48)" class="st2 st6">(ent)</text>
		<g>
			<path class="st13" d="M975.7,403.4h-15c-0.7,0-1.2-0.6-1.2-1.2v-10c0-0.7,0.6-1.2,1.2-1.2h15c0.7,0,1.2,0.6,1.2,1.2v10
				C976.9,402.8,976.4,403.4,975.7,403.4z M960.7,392.1v10h15v-10H960.7z"/>
			<rect x="962.6" y="394" class="st13" width="1.2" height="6.2"/>
			<rect x="965.1" y="394" class="st13" width="1.2" height="6.2"/>
			<rect x="967.6" y="394" class="st13" width="1.2" height="6.2"/>
			<rect x="970.1" y="394" class="st13" width="1.2" height="6.2"/>
			<rect x="972.6" y="394" class="st13" width="1.2" height="6.2"/>
			<rect x="958.2" y="387.1" class="st1" width="20" height="20"/>
		</g>
		<path class="st26" d="M952,370.1h35.2c4.3,0,7.8,3.5,7.8,7.8v35.2"/>
		<path class="st26" d="M956,366.1h35.2c4.3,0,7.8,3.5,7.8,7.8v35.2"/>
	</g>
	<g id="iot-user-mgt">
		<text transform="matrix(1 0 0 1 521.02 846.51)" class="st2 st6">User </text>
		<text transform="matrix(1 0 0 1 493.3101 864.51)" class="st2 st6">mana</text>
		<text transform="matrix(1 0 0 1 529.62 864.51)" class="st2 st6">g</text>
		<text transform="matrix(1 0 0 1 537.17 864.51)" class="st2 st6">ement</text>
		<path class="st17" d="M520,780.2h32c4.4,0,8,3.6,8,8v32c0,4.4-3.6,8-8,8h-32c-4.4,0-8-3.6-8-8v-32
			C512,783.7,515.6,780.2,520,780.2z"/>
		<g>
			<path class="st13" d="M542.2,802.9H541v1.2h1.2c1,0,1.9,0.8,1.9,1.9v2.5h1.2V806C545.4,804.3,544,802.9,542.2,802.9z"/>
			<path class="st13" d="M541,796.7c1,0,1.9,0.8,1.9,1.9s-0.8,1.9-1.9,1.9s-1.9-0.8-1.9-1.9l0,0C539.1,797.5,540,796.7,541,796.7
				 M541,795.4c-1.7,0-3.1,1.4-3.1,3.1c0,1.7,1.4,3.1,3.1,3.1c1.7,0,3.1-1.4,3.1-3.1l0,0C544.1,796.8,542.7,795.4,541,795.4
				L541,795.4z"/>
			<path class="st13" d="M540.4,812.9h-1.2v-1.2c0-1-0.8-1.9-1.9-1.9l0,0h-2.5c-1,0-1.9,0.8-1.9,1.9l0,0v1.2h-1.2v-1.2
				c0-1.7,1.4-3.1,3.1-3.1l0,0h2.5c1.7,0,3.1,1.4,3.1,3.1l0,0L540.4,812.9L540.4,812.9z"/>
			<path class="st13" d="M536,802.3c1,0,1.9,0.8,1.9,1.9c0,1-0.8,1.9-1.9,1.9c-1,0-1.9-0.8-1.9-1.9l0,0
				C534.1,803.1,535,802.3,536,802.3 M536,801c-1.7,0-3.1,1.4-3.1,3.1s1.4,3.1,3.1,3.1s3.1-1.4,3.1-3.1S537.8,801,536,801L536,801
				L536,801z"/>
			<path class="st13" d="M531,802.9h-1.2c-1.7,0-3.1,1.4-3.1,3.1v2.5h1.2V806c0-1,0.8-1.9,1.9-1.9h1.2L531,802.9L531,802.9z"/>
			<path class="st13" d="M531,796.7c1,0,1.9,0.8,1.9,1.9s-0.8,1.9-1.9,1.9s-1.9-0.8-1.9-1.9l0,0C529.1,797.5,530,796.7,531,796.7
				 M531,795.4c-1.7,0-3.1,1.4-3.1,3.1c0,1.7,1.4,3.1,3.1,3.1c1.7,0,3.1-1.4,3.1-3.1l0,0C534.1,796.8,532.7,795.4,531,795.4
				L531,795.4z"/>
			<rect id="_Transparent_Rectangle_9" x="526" y="794.2" class="st1" width="20" height="20"/>
		</g>
	</g>
	<g id="iot-app-runtime">
		<text transform="matrix(1 0 0 1 658.82 847.48)" class="st2 st6">Applic</text>
		<text transform="matrix(1 0 0 1 700.19 847.48)" class="st2 st6">a</text>
		<text transform="matrix(1 0 0 1 707.96 847.48)" class="st2 st6">tion </text>
		<text transform="matrix(1 0 0 1 670.34 865.48)" class="st2 st6">runtime</text>
		<path class="st16" d="M680,780.2h32c4.4,0,8,3.6,8,8v32c0,4.4-3.6,8-8,8h-32c-4.4,0-8-3.6-8-8v-32
			C672,783.7,675.6,780.2,680,780.2z"/>
		<g>
			<path class="st13" d="M695.4,805.4h-6.2c-0.7,0-1.2-0.6-1.2-1.2V798c0-0.7,0.6-1.2,1.2-1.2h6.2c0.7,0,1.2,0.6,1.2,1.2v6.2
				C696.6,804.8,696.1,805.4,695.4,805.4z M689.1,797.9v6.2h6.2v-6.2H689.1z"/>
			<path class="st13" d="M702.2,801.7v2.5h-2.5v-2.5H702.2 M702.2,800.4h-2.5c-0.7,0-1.2,0.6-1.2,1.2v2.5c0,0.7,0.6,1.2,1.2,1.2h2.5
				c0.7,0,1.2-0.6,1.2-1.2v-2.5C703.5,801,702.9,800.4,702.2,800.4z"/>
			<path class="st13" d="M702.2,807.9v2.5h-2.5v-2.5H702.2 M702.2,806.7h-2.5c-0.7,0-1.2,0.6-1.2,1.2v2.5c0,0.7,0.6,1.2,1.2,1.2h2.5
				c0.7,0,1.2-0.6,1.2-1.2v-2.5C703.5,807.2,702.9,806.7,702.2,806.7z"/>
			<path class="st13" d="M696,807.9v2.5h-2.5v-2.5H696 M696,806.7h-2.5c-0.7,0-1.2,0.6-1.2,1.2v2.5c0,0.7,0.6,1.2,1.2,1.2h2.5
				c0.7,0,1.2-0.6,1.2-1.2v-2.5C697.2,807.2,696.7,806.7,696,806.7z"/>
			<g id="_Transparent_Rectangle_10">
				<rect x="686" y="794.2" class="st1" width="20" height="20"/>
			</g>
		</g>
	</g>
	<g id="legacy-plant-applications">
		<path class="st21" d="M440,147.2h32c4.4,0,8,3.6,8,8v32c0,4.4-3.6,8-8,8h-32c-4.4,0-8-3.6-8-8v-32
			C432,150.8,435.6,147.2,440,147.2z"/>
		<text transform="matrix(1 0 0 1 414.99 213.53)" class="st2 st6">L</text>
		<text transform="matrix(1 0 0 1 422.14 213.53)" class="st2 st6">e</text>
		<text transform="matrix(1 0 0 1 429.96 213.53)" class="st2 st6">g</text>
		<text transform="matrix(1 0 0 1 437.56 213.53)" class="st2 st6">acy plant </text>
		<text transform="matrix(1 0 0 1 409.71 231.53)" class="st2 st6">apps (mode 1)</text>
		<g>
			<path class="st13" d="M455.4,172.4h-6.2c-0.7,0-1.2-0.6-1.2-1.2V165c0-0.7,0.6-1.2,1.2-1.2h6.2c0.7,0,1.2,0.6,1.2,1.2v6.2
				C456.6,171.9,456.1,172.4,455.4,172.4z M449.1,164.9v6.2h6.2v-6.2H449.1z"/>
			<path class="st13" d="M462.2,168.7v2.5h-2.5v-2.5H462.2 M462.2,167.4h-2.5c-0.7,0-1.2,0.6-1.2,1.2v2.5c0,0.7,0.5,1.2,1.2,1.2l0,0
				h2.5c0.7,0,1.2-0.5,1.2-1.2l0,0v-2.5C463.5,168,462.9,167.4,462.2,167.4z"/>
			<path class="st13" d="M462.2,174.9v2.5h-2.5v-2.5H462.2 M462.2,173.7h-2.5c-0.7,0-1.2,0.6-1.2,1.2v2.5c0,0.7,0.5,1.2,1.2,1.2l0,0
				h2.5c0.7,0,1.2-0.5,1.2-1.2l0,0v-2.5C463.5,174.2,462.9,173.7,462.2,173.7z"/>
			<path class="st13" d="M456,174.9v2.5h-2.5v-2.5H456 M456,173.7h-2.5c-0.7,0-1.2,0.6-1.2,1.2v2.5c0,0.7,0.5,1.2,1.2,1.2l0,0h2.5
				c0.7,0,1.2-0.5,1.2-1.2l0,0v-2.5C457.2,174.2,456.7,173.7,456,173.7z"/>
			<g id="_Transparent_Rectangle_11">
				<rect x="446" y="161.2" class="st1" width="20" height="20"/>
			</g>
		</g>
	</g>
	<g id="iot-api-mgt">
		<text transform="matrix(1 0 0 1 1011.85 845.53)" class="st2 st6">API </text>
		<text transform="matrix(1 0 0 1 981.3101 863.53)" class="st2 st6">mana</text>
		<text transform="matrix(1 0 0 1 1017.62 863.53)" class="st2 st6">g</text>
		<text transform="matrix(1 0 0 1 1025.1699 863.53)" class="st2 st6">ement</text>
		<path class="st17" d="M1007.8,779.2h32c4.4,0,8,3.6,8,8v32c0,4.4-3.6,8-8,8h-32c-4.4,0-8-3.6-8-8v-32
			C999.8,782.8,1003.4,779.2,1007.8,779.2z"/>
		<g>
			<path class="st13" d="M1030.2,807.9c-0.4,0-0.9,0.1-1.3,0.3l-1.9-1.9c0.9-1.3,0.9-3,0-4.3l1.9-2c0.4,0.2,0.8,0.4,1.3,0.4
				c1.4,0,2.5-1.1,2.5-2.5s-1.1-2.5-2.5-2.5s-2.5,1.1-2.5,2.5c0,0.4,0.1,0.9,0.3,1.3l-1.9,1.9c-1.3-0.9-3-0.9-4.3,0l-1.9-1.9
				c0.2-0.4,0.3-0.8,0.3-1.3c0-1.4-1.1-2.5-2.5-2.5s-2.5,1.1-2.5,2.5s1.1,2.5,2.5,2.5c0.4,0,0.9-0.1,1.2-0.4l2,2
				c-0.9,1.3-0.9,3,0,4.3l-1.9,1.9c-0.4-0.2-0.8-0.3-1.3-0.3c-1.4,0-2.5,1.1-2.5,2.5s1.1,2.5,2.5,2.5s2.5-1.1,2.5-2.5
				c0-0.5-0.1-0.9-0.4-1.3l1.9-1.9c1.3,0.9,3,0.9,4.3,0l1.9,1.9c-0.7,1.2-0.3,2.7,0.9,3.4c1.2,0.7,2.7,0.3,3.4-0.9s0.3-2.7-0.9-3.4
				C1031.2,808,1030.7,807.9,1030.2,807.9L1030.2,807.9z M1030.2,796.7c0.7,0,1.2,0.6,1.2,1.2s-0.6,1.2-1.2,1.2s-1.2-0.6-1.2-1.2
				S1029.6,796.7,1030.2,796.7z M1016.5,797.9c0-0.7,0.6-1.2,1.2-1.2s1.2,0.6,1.2,1.2s-0.6,1.2-1.2,1.2S1016.5,798.6,1016.5,797.9z
				 M1017.8,811.7c-0.7,0-1.2-0.6-1.2-1.2s0.6-1.2,1.2-1.2s1.2,0.6,1.2,1.2S1018.4,811.7,1017.8,811.7z M1024,806.7
				c-1.4,0-2.5-1.1-2.5-2.5s1.1-2.5,2.5-2.5s2.5,1.1,2.5,2.5S1025.4,806.7,1024,806.7z M1030.2,811.7c-0.7,0-1.2-0.6-1.2-1.2
				s0.6-1.2,1.2-1.2s1.2,0.6,1.2,1.2S1030.9,811.7,1030.2,811.7z"/>
			<g id="_Transparent_Rectangle_12">
				<rect x="1014" y="794.2" class="st1" width="20" height="20"/>
			</g>
		</g>
	</g>
	<g id="iot-visualization-support">
		<text transform="matrix(1 0 0 1 1142.09 846.51)" class="st2 st6">Visualiz</text>
		<text transform="matrix(1 0 0 1 1192.9399 846.51)" class="st2 st6">a</text>
		<text transform="matrix(1 0 0 1 1200.71 846.51)" class="st2 st6">tion </text>
		<text transform="matrix(1 0 0 1 1158.6599 864.51)" class="st2 st6">suppo</text>
		<text transform="matrix(1 0 0 1 1198.5599 864.51)" class="st2 st6">r</text>
		<text transform="matrix(1 0 0 1 1204.12 864.51)" class="st2 st6">t</text>
		<path class="st16" d="M1167.8,780.2h32c4.4,0,8,3.6,8,8v32c0,4.4-3.6,8-8,8h-32c-4.4,0-8-3.6-8-8v-32
			C1159.8,783.7,1163.4,780.2,1167.8,780.2z"/>
		<g>
			<circle class="st13" cx="1188.4" cy="809.2" r="1.2"/>
			<path class="st13" d="M1193.2,808.8c-1-2.7-3.9-4.1-6.6-3.1c-1.5,0.5-2.6,1.7-3.1,3.1l-0.1,0.3l0.1,0.3c1,2.7,3.9,4.1,6.6,3.1
				c1.5-0.5,2.6-1.7,3.1-3.1l0.1-0.3L1193.2,808.8z M1188.4,811.7c-1.4,0-2.5-1.1-2.5-2.5s1.1-2.5,2.5-2.5s2.5,1.1,2.5,2.5
				C1190.9,810.5,1189.8,811.6,1188.4,811.7z"/>
			<rect id="_Transparent_Rectangle_13" x="1174" y="794.2" class="st1" width="20" height="20"/>
			<path class="st13" d="M1192.3,801l-1.5-2.6c-0.2-0.4-0.6-0.6-1.1-0.6c-0.1,0-0.3,0-0.4,0.1l-1.5,0.5c-0.3-0.2-0.5-0.3-0.8-0.5
				l-0.3-1.6c-0.1-0.6-0.6-1-1.2-1h-3c-0.6,0-1.1,0.4-1.2,1l-0.3,1.6c-0.3,0.1-0.6,0.3-0.8,0.5l-1.5-0.5c-0.1,0-0.3-0.1-0.4-0.1
				c-0.4,0-0.9,0.2-1.1,0.6l-1.5,2.6c-0.3,0.5-0.2,1.2,0.3,1.6l1.2,1.1c0,0.2,0,0.3,0,0.5s0,0.3,0,0.5l-1.2,1
				c-0.4,0.4-0.6,1-0.3,1.6l1.5,2.6c0.2,0.4,0.6,0.6,1.1,0.6c0.1,0,0.3,0,0.4-0.1l1.5-0.5c0.3,0.2,0.5,0.3,0.8,0.5l0.3,1.6
				c0.1,0.6,0.6,1,1.2,1h0.9v-1.2h-0.9l-0.4-2.2c-0.6-0.2-1.2-0.6-1.7-1l-2.2,0.7l-1.5-2.5l1.7-1.5c-0.1-0.7-0.1-1.3,0-2l-1.7-1.5
				l1.5-2.5l2.1,0.7c0.5-0.4,1.1-0.8,1.7-1l0.4-2.2h3l0.4,2.2c0.6,0.2,1.2,0.6,1.7,1l2.2-0.7l1.5,2.5l-1.8,1.5l0.8,0.9l1.8-1.5
				C1192.5,802.1,1192.6,801.5,1192.3,801z"/>
			<path class="st13" d="M1181.8,807.2c-1.7-1.2-2-3.6-0.8-5.2s3.6-2,5.2-0.8c0.9,0.7,1.5,1.8,1.5,3h-1.2c0-1.4-1.1-2.5-2.5-2.5
				s-2.5,1.1-2.5,2.5c0,0.8,0.4,1.5,1,2L1181.8,807.2z"/>
		</g>
	</g>
	<g id="iot-plant-user">
		<circle cx="576" cy="171.2" r="24"/>
		<text transform="matrix(1 0 0 1 542.89 213.47)" class="st2 st6">Plant user</text>
		<g>
			<path class="st13" d="M576,163.7c1.7,0,3.1,1.4,3.1,3.1s-1.4,3.1-3.1,3.1c-1.7,0-3.1-1.4-3.1-3.1
				C572.9,165.1,574.3,163.7,576,163.7L576,163.7 M576,162.4c-2.4,0-4.4,2-4.4,4.4s2,4.4,4.4,4.4s4.4-2,4.4-4.4l0,0
				C580.4,164.4,578.4,162.4,576,162.4z"/>
			<path class="st13" d="M582.2,179.9H581v-3.1c0-1.7-1.4-3.1-3.1-3.1l0,0h-3.8c-1.7,0-3.1,1.4-3.1,3.1v3.1h-1.2v-3.1
				c0-2.4,2-4.4,4.4-4.4h3.8c2.4,0,4.4,2,4.4,4.4v3.1H582.2z"/>
			<rect id="_Transparent_Rectangle_14" x="566" y="161.2" class="st1" width="20" height="20"/>
		</g>
	</g>
	<g id="iot-enterprise-apps">
		<path class="st21" d="M1600,147.2h32c4.4,0,8,3.6,8,8v32c0,4.4-3.6,8-8,8h-32c-4.4,0-8-3.6-8-8v-32
			C1592,150.8,1595.6,147.2,1600,147.2z"/>
		<text transform="matrix(1 0 0 1 1582.15 213.53)" class="st2 st6">En</text>
		<text transform="matrix(1 0 0 1 1598.78 213.53)" class="st2 st6">t</text>
		<text transform="matrix(1 0 0 1 1603.9601 213.53)" class="st2 st6">erprise </text>
		<text transform="matrix(1 0 0 1 1600.1901 231.53)" class="st2 st6">apps</text>
		<g>
			<path class="st13" d="M1615.4,172.4h-6.2c-0.7,0-1.2-0.6-1.2-1.2V165c0-0.7,0.6-1.2,1.2-1.2h6.2c0.7,0,1.2,0.6,1.2,1.2v6.2
				C1616.6,171.9,1616.1,172.4,1615.4,172.4z M1609.1,164.9v6.2h6.2v-6.2H1609.1z"/>
			<path class="st13" d="M1622.2,168.7v2.5h-2.5v-2.5H1622.2 M1622.2,167.4h-2.5c-0.7,0-1.2,0.6-1.2,1.2v2.5c0,0.7,0.5,1.2,1.2,1.2
				l0,0h2.5c0.7,0,1.2-0.5,1.2-1.2l0,0v-2.5C1623.5,168,1622.9,167.4,1622.2,167.4z"/>
			<path class="st13" d="M1622.2,174.9v2.5h-2.5v-2.5H1622.2 M1622.2,173.7h-2.5c-0.7,0-1.2,0.6-1.2,1.2v2.5c0,0.7,0.5,1.2,1.2,1.2
				l0,0h2.5c0.7,0,1.2-0.5,1.2-1.2l0,0v-2.5C1623.5,174.2,1622.9,173.7,1622.2,173.7z"/>
			<path class="st13" d="M1616,174.9v2.5h-2.5v-2.5H1616 M1616,173.7h-2.5c-0.7,0-1.2,0.6-1.2,1.2v2.5c0,0.7,0.5,1.2,1.2,1.2l0,0
				h2.5c0.7,0,1.2-0.5,1.2-1.2l0,0v-2.5C1617.2,174.2,1616.7,173.7,1616,173.7z"/>
			<g id="_Transparent_Rectangle_15">
				<rect x="1606" y="161.2" class="st1" width="20" height="20"/>
			</g>
		</g>
	</g>
	<g id="iot-external-application-peer">
		<path class="st21" d="M1120,147.2h32c4.4,0,8,3.6,8,8v32c0,4.4-3.6,8-8,8h-32c-4.4,0-8-3.6-8-8v-32
			C1112,150.8,1115.6,147.2,1120,147.2z"/>
		<text transform="matrix(1 0 0 1 1090.28 213.53)" class="st2 st6">Ext app (peer)</text>
		<g>
			<path class="st13" d="M1135.4,172.4h-6.2c-0.7,0-1.2-0.6-1.2-1.2V165c0-0.7,0.6-1.2,1.2-1.2h6.2c0.7,0,1.2,0.6,1.2,1.2v6.2
				C1136.6,171.9,1136.1,172.4,1135.4,172.4z M1129.1,164.9v6.2h6.2v-6.2H1129.1z"/>
			<path class="st13" d="M1142.2,168.7v2.5h-2.5v-2.5H1142.2 M1142.2,167.4h-2.5c-0.7,0-1.2,0.6-1.2,1.2v2.5c0,0.7,0.5,1.2,1.2,1.2
				l0,0h2.5c0.7,0,1.2-0.5,1.2-1.2l0,0v-2.5C1143.5,168,1142.9,167.4,1142.2,167.4z"/>
			<path class="st13" d="M1142.2,174.9v2.5h-2.5v-2.5H1142.2 M1142.2,173.7h-2.5c-0.7,0-1.2,0.6-1.2,1.2v2.5c0,0.7,0.5,1.2,1.2,1.2
				l0,0h2.5c0.7,0,1.2-0.5,1.2-1.2l0,0v-2.5C1143.5,174.2,1142.9,173.7,1142.2,173.7z"/>
			<path class="st13" d="M1136,174.9v2.5h-2.5v-2.5H1136 M1136,173.7h-2.5c-0.7,0-1.2,0.6-1.2,1.2v2.5c0,0.7,0.5,1.2,1.2,1.2l0,0
				h2.5c0.7,0,1.2-0.5,1.2-1.2l0,0v-2.5C1137.2,174.2,1136.7,173.7,1136,173.7z"/>
			<g id="_Transparent_Rectangle_16">
				<rect x="1126" y="161.2" class="st1" width="20" height="20"/>
			</g>
		</g>
	</g>
	<g id="iot-enterprise-user">
		<path d="M1736,147.2L1736,147.2c13.3,0,24,10.7,24,24l0,0c0,13.3-10.7,24-24,24l0,0c-13.3,0-24-10.7-24-24l0,0
			C1712,157.9,1722.7,147.2,1736,147.2z"/>
		<text transform="matrix(1 0 0 1 1702.15 212.56)" class="st2 st6">En</text>
		<text transform="matrix(1 0 0 1 1718.78 212.56)" class="st2 st6">t</text>
		<text transform="matrix(1 0 0 1 1723.9601 212.56)" class="st2 st6">erprise </text>
		<text transform="matrix(1 0 0 1 1721.01 230.56)" class="st2 st6">User</text>
		<g>
			<path class="st13" d="M1736,163.7c1.7,0,3.1,1.4,3.1,3.1s-1.4,3.1-3.1,3.1s-3.1-1.4-3.1-3.1
				C1732.9,165.1,1734.3,163.7,1736,163.7L1736,163.7 M1736,162.4c-2.4,0-4.4,2-4.4,4.4s2,4.4,4.4,4.4s4.4-2,4.4-4.4l0,0
				C1740.4,164.4,1738.4,162.4,1736,162.4z"/>
			<path class="st13" d="M1742.2,179.9h-1.2v-3.1c0-1.7-1.4-3.1-3.1-3.1l0,0h-3.8c-1.7,0-3.1,1.4-3.1,3.1v3.1h-1.2v-3.1
				c0-2.4,2-4.4,4.4-4.4h3.8c2.4,0,4.4,2,4.4,4.4v3.1H1742.2z"/>
			<rect id="_Transparent_Rectangle_17" x="1726" y="161.2" class="st1" width="20" height="20"/>
		</g>
	</g>
	<g id="modern-plant-applications">
		<path class="st21" d="M432,371.2h32c4.4,0,8,3.6,8,8v32c0,4.4-3.6,8-8,8h-32c-4.4,0-8-3.6-8-8v-32
			C424,374.8,427.6,371.2,432,371.2z"/>
		<text transform="matrix(1 0 0 1 404.82 437.53)" class="st2 st6">Modern plant </text>
		<text transform="matrix(1 0 0 1 401.71 455.53)" class="st2 st6">apps (mode 2)</text>
		<g>
			<path class="st13" d="M447.4,395.9h-6.2c-0.7,0-1.2-0.6-1.2-1.2v-6.2c0-0.7,0.6-1.2,1.2-1.2h6.2c0.7,0,1.2,0.6,1.2,1.2v6.2
				C448.6,395.4,448.1,395.9,447.4,395.9z M441.1,388.4v6.2h6.2v-6.2H441.1z"/>
			<path class="st13" d="M454.2,392.2v2.5h-2.5v-2.5H454.2 M454.2,390.9h-2.5c-0.7,0-1.2,0.6-1.2,1.2v2.5c0,0.7,0.5,1.2,1.2,1.2l0,0
				h2.5c0.7,0,1.2-0.5,1.2-1.2l0,0v-2.5C455.5,391.5,454.9,390.9,454.2,390.9z"/>
			<path class="st13" d="M454.2,398.4v2.5h-2.5v-2.5H454.2 M454.2,397.2h-2.5c-0.7,0-1.2,0.6-1.2,1.2v2.5c0,0.7,0.5,1.2,1.2,1.2l0,0
				h2.5c0.7,0,1.2-0.5,1.2-1.2l0,0v-2.5C455.5,397.7,454.9,397.2,454.2,397.2z"/>
			<path class="st13" d="M448,398.4v2.5h-2.5v-2.5H448 M448,397.2h-2.5c-0.7,0-1.2,0.6-1.2,1.2v2.5c0,0.7,0.5,1.2,1.2,1.2l0,0h2.5
				c0.7,0,1.2-0.5,1.2-1.2l0,0v-2.5C449.2,397.7,448.7,397.2,448,397.2z"/>
			<g id="_Transparent_Rectangle_18">
				<rect x="438" y="384.7" class="st1" width="20" height="20"/>
			</g>
		</g>
	</g>
	<g id="iot-device-mgt-plant">
		<path class="st17" d="M432,643.2h32c4.4,0,8,3.6,8,8v32c0,4.4-3.6,8-8,8h-32c-4.4,0-8-3.6-8-8v-32
			C424,646.8,427.6,643.2,432,643.2z"/>
		<text transform="matrix(1 0 0 1 426.27 708.56)" class="st2 st6">D</text>
		<text transform="matrix(1 0 0 1 435.92 708.56)" class="st2 st6">e</text>
		<text transform="matrix(1 0 0 1 443.6 708.56)" class="st2 st6">vi</text>
		<text transform="matrix(1 0 0 1 454.8 708.56)" class="st2 st6">c</text>
		<text transform="matrix(1 0 0 1 461.91 708.56)" class="st2 st6">e </text>
		<text transform="matrix(1 0 0 1 405.31 726.56)" class="st2 st6">mana</text>
		<text transform="matrix(1 0 0 1 441.62 726.56)" class="st2 st6">g</text>
		<text transform="matrix(1 0 0 1 449.17 726.56)" class="st2 st6">ement</text>
		<g>
			<path class="st13" d="M452.4,658.4h-8.8c-0.7,0-1.2,0.6-1.2,1.2v15c0,0.7,0.6,1.2,1.2,1.2h8.8c0.7,0,1.2-0.6,1.2-1.2v-15
				C453.6,659,453.1,658.4,452.4,658.4z M452.4,659.7v1.2h-8.8v-1.2H452.4z M443.6,674.7v-12.5h8.8v12.5H443.6z"/>
			<rect id="_Transparent_Rectangle_19" x="438" y="657.2" class="st1" width="20" height="20"/>
		</g>
	</g>
	<g id="iot-at-rest-ai-analytics-plant">
		<path class="st22" d="M688,643.2h32c4.4,0,8,3.6,8,8v32c0,4.4-3.6,8-8,8h-32c-4.4,0-8-3.6-8-8v-32
			C680,646.8,683.6,643.2,688,643.2z"/>
		<text transform="matrix(1 0 0 1 668.43 709.53)" class="st2 st6">A</text>
		<text transform="matrix(1 0 0 1 677.63 709.53)" class="st2 st6">t </text>
		<text transform="matrix(1 0 0 1 686.17 709.53)" class="st2 st6">r</text>
		<text transform="matrix(1 0 0 1 691.6 709.53)" class="st2 st6">e</text>
		<text transform="matrix(1 0 0 1 699.41 709.53)" class="st2 st6">s</text>
		<text transform="matrix(1 0 0 1 706.29 709.53)" class="st2 st6">t AI / </text>
		<text transform="matrix(1 0 0 1 674.75 727.53)" class="st2 st6">ana</text>
		<text transform="matrix(1 0 0 1 698.63 727.53)" class="st2 st6">l</text>
		<text transform="matrix(1 0 0 1 702.65 727.53)" class="st2 st6">ytics</text>
		<g>
			<path class="st13" d="M701.5,675.3c-0.3,0-0.5-0.2-0.6-0.4l-3-7.1h-2.7v-1.2h3.1c0.2,0,0.5,0.2,0.6,0.4l2.6,6.1l5-13.5
				c0.1-0.2,0.3-0.4,0.6-0.4s0.5,0.2,0.6,0.4l2.4,7.1h2.7v1.2h-3.1c-0.3,0-0.5-0.2-0.6-0.4l-1.9-5.8l-5,13.3
				C702,675.2,701.8,675.3,701.5,675.3L701.5,675.3z"/>
			<rect id="_Transparent_Rectangle_20" x="694" y="657.2" class="st1" width="20" height="20"/>
		</g>
	</g>
	<g id="data-lake-plant">
		<path class="st18" d="M816,643.2h32c4.4,0,8,3.6,8,8v32c0,4.4-3.6,8-8,8h-32c-4.4,0-8-3.6-8-8v-32
			C808,646.8,811.6,643.2,816,643.2z"/>
		<text transform="matrix(1 0 0 1 801.47 709.53)" class="st2 st6">D</text>
		<text transform="matrix(1 0 0 1 811.12 709.53)" class="st2 st6">a</text>
		<text transform="matrix(1 0 0 1 818.89 709.53)" class="st2 st6">ta la</text>
		<text transform="matrix(1 0 0 1 847.1899 709.53)" class="st2 st6">k</text>
		<text transform="matrix(1 0 0 1 854.72 709.53)" class="st2 st6">e </text>
		<text transform="matrix(1 0 0 1 810.3799 727.53)" class="st2 st6">(plant)</text>
		<g>
			<path class="st13" d="M829.5,675.3c-0.3,0-0.5-0.2-0.6-0.4l-3-7.1h-2.7v-1.2h3.1c0.2,0,0.5,0.2,0.6,0.4l2.6,6.1l5-13.5
				c0.1-0.2,0.3-0.4,0.6-0.4s0.5,0.2,0.6,0.4l2.4,7.1h2.7v1.2h-3.1c-0.3,0-0.5-0.2-0.6-0.4l-1.9-5.8l-5,13.3
				C830,675.2,829.8,675.3,829.5,675.3L829.5,675.3z"/>
			<rect id="_Transparent_Rectangle_21" x="822" y="657.2" class="st1" width="20" height="20"/>
		</g>
	</g>
	<g id="iot-plant-info-model">
		<path class="st18" d="M560,643.2h32c4.4,0,8,3.6,8,8v32c0,4.4-3.6,8-8,8h-32c-4.4,0-8-3.6-8-8v-32
			C552,646.8,555.6,643.2,560,643.2z"/>
		<text transform="matrix(1 0 0 1 544.75 709.53)" class="st2 st6">Plant in</text>
		<text transform="matrix(1 0 0 1 594.53 709.53)" class="st2 st6">f</text>
		<text transform="matrix(1 0 0 1 599.38 709.53)" class="st2 st6">o </text>
		<text transform="matrix(1 0 0 1 555.68 727.53)" class="st2 st6">model</text>
		<g>
			<rect x="566" y="657.2" class="st1" width="20" height="20"/>
			<path class="st13" d="M578.5,675.9h-8.1c-0.7,0-1.2-0.6-1.2-1.2v-15c0-0.7,0.6-1.2,1.2-1.2h8.1v1.2h-8.1v15h8.1v-2.5h1.2v2.5
				C579.8,675.4,579.2,675.9,578.5,675.9z"/>
			<path class="st13" d="M575.4,672.5c0,0.5-0.4,0.9-0.9,0.9s-0.9-0.4-0.9-0.9s0.4-0.9,0.9-0.9S575.4,672,575.4,672.5L575.4,672.5z"
				/>
			<path class="st13" d="M583.2,662.9l-3.8-1.9c-0.2-0.1-0.4-0.1-0.5,0l-3.8,1.9c-0.2,0.1-0.4,0.3-0.3,0.5v4.4
				c0,0.2,0.1,0.5,0.3,0.6l3.8,1.9c0.1,0,0.2,0.1,0.3,0.1s0.2,0,0.3-0.1l3.8-1.9c0.2-0.1,0.4-0.3,0.3-0.6v-4.4
				C583.5,663.2,583.4,663,583.2,662.9z M579.2,662.2l2.3,1.2l-2.3,1.2l-2.4-1.2L579.2,662.2z M576,664.4l2.5,1.2v3l-2.5-1.2V664.4z
				 M579.8,668.7v-3l2.5-1.2v3L579.8,668.7z"/>
		</g>
	</g>
	<g id="iot-enterprise-data">
		<path class="st18" d="M1480,147.2h32c4.4,0,8,3.6,8,8v32c0,4.4-3.6,8-8,8h-32c-4.4,0-8-3.6-8-8v-32
			C1472,150.8,1475.6,147.2,1480,147.2z"/>
		<text transform="matrix(1 0 0 1 1462.16 213.53)" class="st2 st6">En</text>
		<text transform="matrix(1 0 0 1 1478.79 213.53)" class="st2 st6">t</text>
		<text transform="matrix(1 0 0 1 1483.9701 213.53)" class="st2 st6">erprise </text>
		<text transform="matrix(1 0 0 1 1481.39 231.53)" class="st2 st6">d</text>
		<text transform="matrix(1 0 0 1 1489.79 231.53)" class="st2 st6">a</text>
		<text transform="matrix(1 0 0 1 1497.5601 231.53)" class="st2 st6">ta</text>
		<g>
			<rect id="_Transparent_Rectangle_22" x="1486" y="161.2" class="st1" width="20" height="20"/>
			<rect x="1501" y="172.4" class="st13" width="1.2" height="7.5"/>
			<rect x="1503.5" y="174.9" class="st13" width="1.2" height="5"/>
			<rect x="1498.5" y="177.4" class="st13" width="1.2" height="2.5"/>
			<path class="st13" d="M1500.1,168.7l2.5-3.8h2.2v-1.2h-2.8l-2.5,3.8h-2.2v-5h-1.2v7.5c0,0.7,0.6,1.2,1.2,1.2h7.5V170h-7.5v-1.2
				h2.8V168.7z"/>
			<circle class="st13" cx="1487.9" cy="169.3" r="0.6"/>
			<circle class="st13" cx="1489.1" cy="166.8" r="0.6"/>
			<circle class="st13" cx="1490.4" cy="164.3" r="0.6"/>
			<circle class="st13" cx="1492.9" cy="165.6" r="0.6"/>
			<circle class="st13" cx="1491.6" cy="168.1" r="0.6"/>
			<path class="st13" d="M1491.6,171.2c-2.4,0-4.4,2-4.4,4.4s2,4.4,4.4,4.4s4.4-2,4.4-4.4l0,0C1496,173.1,1494,171.2,1491.6,171.2z
				 M1494.7,174.9h-2.4v-2.4C1493.5,172.7,1494.4,173.7,1494.7,174.9L1494.7,174.9z M1491.6,178.7c-1.7,0-3.1-1.4-3.1-3.1
				c0-1.5,1-2.8,2.5-3.1v2.4c0,0.7,0.6,1.2,1.2,1.2h2.4C1494.4,177.6,1493.1,178.7,1491.6,178.7z"/>
		</g>
	</g>
	<g id="iot-solution-enterprise">
		<path class="st21" d="M1360,147.2h32c4.4,0,8,3.6,8,8v32c0,4.4-3.6,8-8,8h-32c-4.4,0-8-3.6-8-8v-32
			C1352,150.8,1355.6,147.2,1360,147.2z"/>
		<text transform="matrix(1 0 0 1 1337.67 212.56)" class="st2 st6">I</text>
		<text transform="matrix(1 0 0 1 1343.52 212.56)" class="st2 st6">o</text>
		<text transform="matrix(1 0 0 1 1350.4801 212.56)" class="st2 st6">T solution </text>
		<text transform="matrix(1 0 0 1 1360.64 230.56)" class="st2 st6">(ent)</text>
		<g>
			<path class="st13" d="M1384.8,173.1h-2.5v-2.5h-1.2v5.6h-10v-10h5.6V165h-2.5v-2.5h-1.2v2.5h-1.9c-0.7,0-1.2,0.6-1.2,1.2v1.9
				h-2.5v1.2h2.5v3.8h-2.5v1.2h2.5v1.9c0,0.7,0.6,1.2,1.2,1.2h1.9v2.5h1.2v-2.5h3.8v2.5h1.2v-2.5h1.9c0.7,0,1.2-0.6,1.2-1.2v-1.9
				h2.5V173.1z"/>
			<path class="st13" d="M1379.1,174.3h-6.2v-6.2h6.2V174.3z M1374.1,173.1h3.8v-3.8h-3.8V173.1z"/>
			<path class="st13" d="M1385.4,169.3h-1.2c0-3.5-2.8-6.2-6.2-6.2l0,0v-1.2C1382,161.8,1385.4,165.2,1385.4,169.3z"/>
			<path class="st13" d="M1382.2,169.3h-1.2c0-1.7-1.4-3.1-3.1-3.1l0,0V165C1380.3,164.9,1382.2,166.9,1382.2,169.3z"/>
			<rect id="_Transparent_Rectangle_23" x="1366" y="161.2" class="st1" width="20" height="20"/>
		</g>
	</g>
	<g id="iot-blockchain-network">
		<path class="st19" d="M1240,147.2h32c4.4,0,8,3.6,8,8v32c0,4.4-3.6,8-8,8h-32c-4.4,0-8-3.6-8-8v-32
			C1232,150.8,1235.6,147.2,1240,147.2z"/>
		<text transform="matrix(1 0 0 1 1220.34 213.53)" class="st2 st6">Bloc</text>
		<text transform="matrix(1 0 0 1 1248.7999 213.53)" class="st2 st6">k</text>
		<text transform="matrix(1 0 0 1 1256.33 213.53)" class="st2 st6">chain </text>
		<text transform="matrix(1 0 0 1 1229.0699 231.53)" class="st2 st6">net</text>
		<text transform="matrix(1 0 0 1 1250.35 231.53)" class="st2 st6">w</text>
		<text transform="matrix(1 0 0 1 1261.6899 231.53)" class="st2 st6">ork</text>
		<g>
			<rect x="1248.5" y="166.2" class="st13" width="1.2" height="10"/>
			<rect x="1262.2" y="166.2" class="st13" width="1.2" height="10"/>
			<rect x="1251" y="163.7" class="st13" width="10" height="1.2"/>
			<rect x="1251" y="177.4" class="st13" width="10" height="1.2"/>
			<rect x="1246" y="161.2" class="st1" width="20" height="20"/>
		</g>
	</g>
	<g id="iot-enterprise-gateway-enterprise-service-bus">
		<path class="st16" d="M1360,326.1h32c4.4,0,8,3.6,8,8v32c0,4.4-3.6,8-8,8h-32c-4.4,0-8-3.6-8-8v-32
			C1352,329.7,1355.6,326.1,1360,326.1z"/>
		<text transform="matrix(1 0 0 1 1342.16 391.48)" class="st2 st6">En</text>
		<text transform="matrix(1 0 0 1 1358.79 391.48)" class="st2 st6">t</text>
		<text transform="matrix(1 0 0 1 1363.9701 391.48)" class="st2 st6">erprise </text>
		<text transform="matrix(1 0 0 1 1348.6901 409.48)" class="st2 st6">g</text>
		<text transform="matrix(1 0 0 1 1356.29 409.48)" class="st2 st6">at</text>
		<text transform="matrix(1 0 0 1 1369.24 409.48)" class="st2 st6">e</text>
		<text transform="matrix(1 0 0 1 1376.98 409.48)" class="st2 st6">w</text>
		<text transform="matrix(1 0 0 1 1388.27 409.48)" class="st2 st6">a</text>
		<text transform="matrix(1 0 0 1 1395.98 409.48)" class="st2 st6">y</text>
		<g>
			<rect x="1366" y="340.1" class="st1" width="20" height="20"/>
			<path class="st13" d="M1385.4,350.1c0-0.3-0.1-0.6-0.4-0.9l-3.6-3.6l1.8-1.8c0.7,0.2,1.4-0.2,1.5-0.9s-0.2-1.4-0.9-1.5
				c-0.4-0.1-0.9,0-1.2,0.3c-0.3,0.3-0.4,0.8-0.3,1.2l-1.8,1.8l-3.6-3.6c-0.5-0.5-1.3-0.5-1.8,0l-3.6,3.6l-1.8-1.8
				c0.2-0.7-0.2-1.3-0.9-1.5c-0.4-0.1-0.9,0-1.2,0.3c-0.5,0.5-0.5,1.3,0,1.8c0.3,0.3,0.8,0.4,1.2,0.3l1.8,1.8l-3.6,3.6
				c-0.2,0.2-0.4,0.6-0.4,0.9s0.1,0.7,0.4,0.9l3.6,3.6l-1.8,1.8c-0.4-0.1-0.9,0-1.2,0.3c-0.5,0.5-0.5,1.3,0,1.8s1.3,0.5,1.8,0
				c0.3-0.3,0.5-0.8,0.3-1.2l1.8-1.8l3.6,3.6c0.5,0.5,1.3,0.5,1.7,0l0,0l3.6-3.6l1.8,1.8c-0.2,0.7,0.2,1.4,0.9,1.5
				c0.7,0.2,1.4-0.2,1.5-0.9c0.1-0.4,0-0.9-0.3-1.2c-0.3-0.3-0.8-0.4-1.2-0.3l-1.8-1.8l3.6-3.6
				C1385.2,350.8,1385.4,350.4,1385.4,350.1z M1380.5,353.7l-1.7-1.7l-0.9,0.9l1.7,1.8l-3.6,3.6l-3.6-3.6l1.8-1.8l-0.9-0.9l-1.7,1.7
				l-3.6-3.6l3.6-3.6l1.7,1.8l0.9-0.9l-1.8-1.7l3.6-3.6l3.6,3.6l-1.7,1.7l0.9,0.9l1.7-1.8l3.6,3.6L1380.5,353.7z"/>
		</g>
	</g>
	<g id="iot-shopfloor-workflow">
		<path class="st18" d="M687.8,491.2h32c4.4,0,8,3.6,8,8v32c0,4.4-3.6,8-8,8h-32c-4.4,0-8-3.6-8-8v-32
			C679.8,494.8,683.4,491.2,687.8,491.2z"/>
		<text transform="matrix(1 0 0 1 670.58 557.53)" class="st2 st6">Shop floor </text>
		<text transform="matrix(1 0 0 1 673.49 575.53)" class="st2 st6">w</text>
		<text transform="matrix(1 0 0 1 684.83 575.53)" class="st2 st6">orkfl</text>
		<text transform="matrix(1 0 0 1 715.1 575.53)" class="st2 st6">o</text>
		<text transform="matrix(1 0 0 1 722.86 575.53)" class="st2 st6">w</text>
		<g>
			<path class="st13" d="M706.5,519.5h-5.1c-0.1-0.2-0.1-0.4-0.3-0.6l6.6-6.6c0.4,0.2,0.8,0.3,1.3,0.3c1.4,0,2.5-1.1,2.5-2.5
				s-1.1-2.5-2.5-2.5c-1.1,0-2.1,0.8-2.4,1.9h-5.2c-0.3-1.3-1.7-2.1-3-1.8c-1.3,0.3-2.1,1.7-1.8,3c0.3,1.3,1.7,2.1,3,1.8
				c0.9-0.2,1.6-0.9,1.8-1.8h5.2c0.1,0.2,0.1,0.4,0.3,0.6l-6.6,6.6c-0.4-0.2-0.8-0.4-1.3-0.4c-1.4,0-2.5,1.1-2.5,2.5
				s1.1,2.5,2.5,2.5c1.1,0,2.1-0.8,2.4-1.9h5.1v1.9h5v-5h-5V519.5z M699,511.4c-0.7,0-1.2-0.6-1.2-1.2s0.6-1.2,1.2-1.2
				s1.2,0.6,1.2,1.2S699.7,511.4,699,511.4L699,511.4L699,511.4z M709,508.9c0.7,0,1.2,0.6,1.2,1.2s-0.6,1.2-1.2,1.2
				s-1.2-0.6-1.2-1.2S708.3,508.9,709,508.9L709,508.9z M699,521.4c-0.7,0-1.2-0.6-1.2-1.2s0.6-1.2,1.2-1.2s1.2,0.6,1.2,1.2
				S699.7,521.4,699,521.4z M707.8,518.9h2.5v2.5h-2.5V518.9z"/>
			<rect x="694" y="505.2" class="st1" width="20" height="20"/>
		</g>
	</g>
	<g id="iot-enterprise-workflow">
		<path class="st18" d="M1359.8,491.2h32c4.4,0,8,3.6,8,8v32c0,4.4-3.6,8-8,8h-32c-4.4,0-8-3.6-8-8v-32
			C1351.8,494.8,1355.4,491.2,1359.8,491.2z"/>
		<text transform="matrix(1 0 0 1 1342.0601 557.53)" class="st2 st6">En</text>
		<text transform="matrix(1 0 0 1 1358.6901 557.53)" class="st2 st6">t</text>
		<text transform="matrix(1 0 0 1 1363.8701 557.53)" class="st2 st6">erprise </text>
		<text transform="matrix(1 0 0 1 1345.4901 575.53)" class="st2 st6">w</text>
		<text transform="matrix(1 0 0 1 1356.8301 575.53)" class="st2 st6">orkfl</text>
		<text transform="matrix(1 0 0 1 1387.1001 575.53)" class="st2 st6">o</text>
		<text transform="matrix(1 0 0 1 1394.8501 575.53)" class="st2 st6">w</text>
		<g>
			<path class="st13" d="M1378.5,519.5h-5.1c-0.1-0.2-0.1-0.4-0.3-0.6l6.6-6.6c0.4,0.2,0.8,0.3,1.3,0.3c1.4,0,2.5-1.1,2.5-2.5
				s-1.1-2.5-2.5-2.5c-1.1,0-2.1,0.8-2.4,1.9h-5.2c-0.3-1.3-1.7-2.1-3-1.8c-1.3,0.3-2.1,1.7-1.8,3c0.3,1.3,1.7,2.1,3,1.8
				c0.9-0.2,1.6-0.9,1.8-1.8h5.2c0.1,0.2,0.1,0.4,0.3,0.6l-6.6,6.6c-0.4-0.2-0.8-0.4-1.3-0.4c-1.4,0-2.5,1.1-2.5,2.5
				s1.1,2.5,2.5,2.5c1.1,0,2.1-0.8,2.4-1.9h5.1v1.9h5v-5h-5V519.5z M1371,511.4c-0.7,0-1.2-0.6-1.2-1.2s0.6-1.2,1.2-1.2
				s1.2,0.6,1.2,1.2S1371.7,511.4,1371,511.4L1371,511.4L1371,511.4z M1381,508.9c0.7,0,1.2,0.6,1.2,1.2s-0.6,1.2-1.2,1.2
				s-1.2-0.6-1.2-1.2S1380.3,508.9,1381,508.9L1381,508.9z M1371,521.4c-0.7,0-1.2-0.6-1.2-1.2s0.6-1.2,1.2-1.2s1.2,0.6,1.2,1.2
				S1371.7,521.4,1371,521.4z M1379.8,518.9h2.5v2.5h-2.5V518.9z"/>
			<rect x="1366" y="505.2" class="st1" width="20" height="20"/>
		</g>
	</g>
	<g id="iot-enterprise-marketplace">
		<path class="st18" d="M1480,491.2h32c4.4,0,8,3.6,8,8v32c0,4.4-3.6,8-8,8h-32c-4.4,0-8-3.6-8-8v-32
			C1472,494.8,1475.6,491.2,1480,491.2z"/>
		<text transform="matrix(1 0 0 1 1462.16 557.53)" class="st2 st6">En</text>
		<text transform="matrix(1 0 0 1 1478.79 557.53)" class="st2 st6">t</text>
		<text transform="matrix(1 0 0 1 1483.9701 557.53)" class="st2 st6">erprise </text>
		<text transform="matrix(1 0 0 1 1455.2001 575.53)" class="st2 st6">mar</text>
		<text transform="matrix(1 0 0 1 1480.9601 575.53)" class="st2 st6">k</text>
		<text transform="matrix(1 0 0 1 1488.49 575.53)" class="st2 st6">etpla</text>
		<text transform="matrix(1 0 0 1 1521.88 575.53)" class="st2 st6">c</text>
		<text transform="matrix(1 0 0 1 1528.99 575.53)" class="st2 st6">e</text>
		<g>
			<path class="st13" d="M1502.2,513.9h-1.2v1.2h1.2c1,0,1.9,0.8,1.9,1.9v2.5h1.2V517C1505.4,515.3,1504,513.9,1502.2,513.9z"/>
			<path class="st13" d="M1501,507.7c1,0,1.9,0.8,1.9,1.9c0,1-0.8,1.9-1.9,1.9s-1.9-0.8-1.9-1.9l0,0
				C1499.1,508.5,1500,507.7,1501,507.7 M1501,506.4c-1.7,0-3.1,1.4-3.1,3.1s1.4,3.1,3.1,3.1s3.1-1.4,3.1-3.1
				C1504.1,507.8,1502.7,506.4,1501,506.4L1501,506.4z"/>
			<path class="st13" d="M1500.4,523.9h-1.2v-1.2c0-1-0.8-1.9-1.9-1.9h-2.5c-1,0-1.9,0.8-1.9,1.9v1.2h-1.2v-1.2
				c0-1.7,1.4-3.1,3.1-3.1h2.5c1.7,0,3.1,1.4,3.1,3.1V523.9z"/>
			<path class="st13" d="M1496,513.3c1,0,1.9,0.8,1.9,1.9c0,1-0.8,1.9-1.9,1.9c-1,0-1.9-0.8-1.9-1.9l0,0
				C1494.1,514.1,1495,513.3,1496,513.3 M1496,512c-1.7,0-3.1,1.4-3.1,3.1s1.4,3.1,3.1,3.1s3.1-1.4,3.1-3.1l0,0
				C1499.1,513.4,1497.7,512,1496,512L1496,512z"/>
			<path class="st13" d="M1491,513.9h-1.2c-1.7,0-3.1,1.4-3.1,3.1v2.5h1.2V517c0-1,0.8-1.9,1.9-1.9h1.2V513.9z"/>
			<path class="st13" d="M1491,507.7c1,0,1.9,0.8,1.9,1.9c0,1-0.8,1.9-1.9,1.9s-1.9-0.8-1.9-1.9l0,0
				C1489.1,508.5,1490,507.7,1491,507.7 M1491,506.4c-1.7,0-3.1,1.4-3.1,3.1s1.4,3.1,3.1,3.1s3.1-1.4,3.1-3.1
				C1494.1,507.8,1492.7,506.4,1491,506.4L1491,506.4z"/>
			<rect id="_Transparent_Rectangle_24" x="1486" y="505.2" class="st1" width="20" height="20"/>
		</g>
	</g>
	<g id="iot-device-mgt-enterprise">
		<text transform="matrix(1 0 0 1 1114.27 709.53)" class="st2 st6">D</text>
		<text transform="matrix(1 0 0 1 1123.92 709.53)" class="st2 st6">e</text>
		<text transform="matrix(1 0 0 1 1131.6 709.53)" class="st2 st6">vi</text>
		<text transform="matrix(1 0 0 1 1142.8 709.53)" class="st2 st6">c</text>
		<text transform="matrix(1 0 0 1 1149.91 709.53)" class="st2 st6">e </text>
		<text transform="matrix(1 0 0 1 1093.3101 727.53)" class="st2 st6">mana</text>
		<text transform="matrix(1 0 0 1 1129.62 727.53)" class="st2 st6">g</text>
		<text transform="matrix(1 0 0 1 1137.17 727.53)" class="st2 st6">ement</text>
		<path class="st17" d="M1120,643.2h32c4.4,0,8,3.6,8,8v32c0,4.4-3.6,8-8,8h-32c-4.4,0-8-3.6-8-8v-32
			C1112,646.8,1115.6,643.2,1120,643.2z"/>
		<g>
			<path class="st13" d="M1140.4,658.4h-8.8c-0.7,0-1.2,0.6-1.2,1.2v15c0,0.7,0.6,1.2,1.2,1.2h8.8c0.7,0,1.2-0.6,1.2-1.2v-15
				C1141.6,659,1141.1,658.4,1140.4,658.4z M1140.4,659.7v1.2h-8.8v-1.2H1140.4z M1131.6,674.7v-12.5h8.8v12.5H1131.6z"/>
			<rect id="_Transparent_Rectangle_25" x="1126" y="657.2" class="st1" width="20" height="20"/>
		</g>
	</g>
	<g id="iot-supply-chain-integration">
		<text transform="matrix(1 0 0 1 1334.21 709.53)" class="st2 st6">Supp</text>
		<text transform="matrix(1 0 0 1 1367.7999 709.53)" class="st2 st6">l</text>
		<text transform="matrix(1 0 0 1 1371.8099 709.53)" class="st2 st6">y chain </text>
		<text transform="matrix(1 0 0 1 1340.48 727.53)" class="st2 st6">in</text>
		<text transform="matrix(1 0 0 1 1352.5699 727.53)" class="st2 st6">t</text>
		<text transform="matrix(1 0 0 1 1357.75 727.53)" class="st2 st6">eg</text>
		<text transform="matrix(1 0 0 1 1373.1899 727.53)" class="st2 st6">r</text>
		<text transform="matrix(1 0 0 1 1378.5399 727.53)" class="st2 st6">a</text>
		<text transform="matrix(1 0 0 1 1386.3099 727.53)" class="st2 st6">tion</text>
		<path class="st19" d="M1360,643.2h32c4.4,0,8,3.6,8,8v32c0,4.4-3.6,8-8,8h-32c-4.4,0-8-3.6-8-8v-32
			C1352,646.8,1355.6,643.2,1360,643.2z"/>
		<g>
			<g>
				<g>
					<defs>
						<path id="SVGID_1_" d="M1372.9,672.8c0.3,0,0.6-0.3,0.6-0.6s-0.3-0.6-0.6-0.6s-0.6,0.3-0.6,0.6S1372.5,672.8,1372.9,672.8
							L1372.9,672.8z M1372.9,667.8c0.3,0,0.6-0.3,0.6-0.6s-0.3-0.6-0.6-0.6s-0.6,0.3-0.6,0.6S1372.5,667.8,1372.9,667.8
							L1372.9,667.8z M1372.9,662.8c0.3,0,0.6-0.3,0.6-0.6s-0.3-0.6-0.6-0.6s-0.6,0.3-0.6,0.6S1372.5,662.8,1372.9,662.8
							L1372.9,662.8z M1371,674v-3.8h10v3.8H1371z M1371,669v-3.8h10v3.8H1371z M1381,660.3v3.8h-10v-3.8H1381z M1381,659h-10
							c-0.7,0-1.2,0.6-1.2,1.2V674c0,0.7,0.6,1.2,1.2,1.2h10c0.7,0,1.2-0.6,1.2-1.2v-13.8C1382.2,659.6,1381.7,659,1381,659z"/>
					</defs>
					<clipPath id="SVGID_00000105415398528044661100000000940662615870236343_">
						<use xlink:href="#SVGID_1_"  style="overflow:visible;"/>
					</clipPath>
					<g style="clip-path:url(#SVGID_00000105415398528044661100000000940662615870236343_);">
						<rect x="1365.6" y="654.9" class="st13" width="20.8" height="24.6"/>
					</g>
				</g>
			</g>
			<rect x="1366" y="657.2" class="st1" width="20" height="20"/>
		</g>
	</g>
	<g id="iot-at-rest-ai-analytics-enterprise">
		<text transform="matrix(1 0 0 1 1581.6801 709.53)" class="st2 st6">A</text>
		<text transform="matrix(1 0 0 1 1590.88 709.53)" class="st2 st6">t </text>
		<text transform="matrix(1 0 0 1 1599.42 709.53)" class="st2 st6">r</text>
		<text transform="matrix(1 0 0 1 1604.8501 709.53)" class="st2 st6">e</text>
		<text transform="matrix(1 0 0 1 1612.66 709.53)" class="st2 st6">s</text>
		<text transform="matrix(1 0 0 1 1619.54 709.53)" class="st2 st6">t AI / </text>
		<text transform="matrix(1 0 0 1 1588 727.53)" class="st2 st6">ana</text>
		<text transform="matrix(1 0 0 1 1611.88 727.53)" class="st2 st6">l</text>
		<text transform="matrix(1 0 0 1 1615.9 727.53)" class="st2 st6">ytics</text>
		<path class="st22" d="M1600,643.2h32c4.4,0,8,3.6,8,8v32c0,4.4-3.6,8-8,8h-32c-4.4,0-8-3.6-8-8v-32
			C1592,646.8,1595.6,643.2,1600,643.2z"/>
		<g>
			<path class="st13" d="M1613.5,675.3c-0.3,0-0.5-0.2-0.6-0.4l-3-7.1h-2.7v-1.2h3.1c0.2,0,0.5,0.2,0.6,0.4l2.6,6l5-13.5
				c0.1-0.2,0.3-0.4,0.6-0.4c0.3,0,0.5,0.2,0.6,0.4l2.4,7.1h2.7v1.2h-3.1c-0.3,0-0.5-0.2-0.6-0.4l-1.9-5.8l-5,13.3
				C1614,675.1,1613.7,675.3,1613.5,675.3L1613.5,675.3z"/>
			<rect id="_Transparent_Rectangle_26" x="1606" y="657.2" class="st1" width="20" height="20"/>
		</g>
	</g>
	<g id="iot-enterprise-info-model">
		<text transform="matrix(1 0 0 1 1688.09 556.56)" class="st2 st6">En</text>
		<text transform="matrix(1 0 0 1 1704.72 556.56)" class="st2 st6">t</text>
		<text transform="matrix(1 0 0 1 1709.9 556.56)" class="st2 st6">erprise in</text>
		<text transform="matrix(1 0 0 1 1771.1799 556.56)" class="st2 st6">f</text>
		<text transform="matrix(1 0 0 1 1776.02 556.56)" class="st2 st6">o </text>
		<text transform="matrix(1 0 0 1 1715.6799 574.56)" class="st2 st6">model</text>
		<path class="st18" d="M1720,490.2h32c4.4,0,8,3.6,8,8v32c0,4.4-3.6,8-8,8h-32c-4.4,0-8-3.6-8-8v-32
			C1712,493.8,1715.6,490.2,1720,490.2z"/>
		<g>
			<rect x="1726" y="504.2" class="st1" width="20" height="20"/>
			<path class="st13" d="M1738.5,523h-8.1c-0.7,0-1.2-0.6-1.2-1.2v-15c0-0.7,0.6-1.2,1.2-1.2h8.1v1.2h-8.1v15h8.1v-2.5h1.2v2.5
				C1739.8,522.4,1739.2,523,1738.5,523z"/>
			<circle class="st13" cx="1734.4" cy="519.5" r="0.9"/>
			<path class="st13" d="M1743.2,509.9l-3.8-1.9c-0.2-0.1-0.4-0.1-0.6,0l-3.8,1.9c-0.2,0.1-0.3,0.3-0.3,0.6v4.4
				c0,0.2,0.1,0.5,0.3,0.6l3.8,1.9c0.1,0,0.2,0.1,0.3,0.1c0.1,0,0.2,0,0.3-0.1l3.8-1.9c0.2-0.1,0.3-0.3,0.3-0.6v-4.4
				C1743.5,510.2,1743.4,510,1743.2,509.9z M1739.2,509.3l2.3,1.2l-2.3,1.2l-2.4-1.2L1739.2,509.3z M1736,511.5l2.5,1.2v3l-2.5-1.2
				V511.5z M1739.8,515.7v-3l2.5-1.2v3L1739.8,515.7z"/>
		</g>
	</g>
	<g id="iot-data-lake-enterprise">
		<text transform="matrix(1 0 0 1 1688.46 709.53)" class="st2 st6">D</text>
		<text transform="matrix(1 0 0 1 1698.11 709.53)" class="st2 st6">a</text>
		<text transform="matrix(1 0 0 1 1705.88 709.53)" class="st2 st6">ta la</text>
		<text transform="matrix(1 0 0 1 1734.1799 709.53)" class="st2 st6">k</text>
		<text transform="matrix(1 0 0 1 1741.71 709.53)" class="st2 st6">e (ent)</text>
		<path class="st18" d="M1720,643.2h32c4.4,0,8,3.6,8,8v32c0,4.4-3.6,8-8,8h-32c-4.4,0-8-3.6-8-8v-32
			C1712,646.8,1715.6,643.2,1720,643.2z"/>
		<g>
			<path class="st13" d="M1744.7,666.9l-3.8-6.9c-0.1-0.2-0.3-0.3-0.5-0.3h-8.8c-0.2,0-0.4,0.1-0.6,0.3l-3.8,6.9
				c-0.1,0.2-0.1,0.4,0,0.6l3.8,6.9c0.1,0.2,0.3,0.3,0.6,0.3h8.8c0.2,0,0.4-0.1,0.5-0.3l3.8-6.9
				C1744.8,667.3,1744.8,667.1,1744.7,666.9z M1740.3,661.5l2.7,5h-5.9L1740.3,661.5z M1736,666l-3.2-5.1h6.5L1736,666z
				 M1731.7,661.5l3.2,5h-5.9L1731.7,661.5z M1728.9,667.8h5.9l-3.2,5L1728.9,667.8z M1736,668.3l3.2,5.1h-6.5L1736,668.3z
				 M1740.3,672.8l-3.2-5h5.9L1740.3,672.8z"/>
			<rect id="_Transparent_Rectangle_27" x="1726" y="657.2" class="st1" width="20" height="20"/>
		</g>
	</g>
	<g id="iot-enterprise-gateway-enterprise-service-bus">
		<path class="st25" d="M1120.6,491.2h198.8c4.7,0,8.6,3.9,8.6,8.6v70.8c0,4.7-3.9,8.6-8.6,8.6h-198.8c-4.7,0-8.6-3.9-8.6-8.6v-70.8
			C1112,495,1115.9,491.2,1120.6,491.2z"/>
		<text transform="matrix(1 0 0 1 1176 509.78)" class="st2 st6">En</text>
		<text transform="matrix(1 0 0 1 1192.63 509.78)" class="st2 st6">t</text>
		<text transform="matrix(1 0 0 1 1197.8101 509.78)" class="st2 st6">erprise se</text>
		<text transform="matrix(1 0 0 1 1261.79 509.78)" class="st2 st6">r</text>
		<text transform="matrix(1 0 0 1 1267.4 509.78)" class="st2 st6">vi</text>
		<text transform="matrix(1 0 0 1 1278.6 509.78)" class="st2 st6">c</text>
		<text transform="matrix(1 0 0 1 1285.72 509.78)" class="st2 st6">e bus</text>
		<text transform="matrix(1 0 0 1 1176 527.78)" class="st11 st6">Connect/broker</text>
		<text transform="matrix(1 0 0 1 1233.61 527.78)" class="st11 st6">r</text>
		<text transform="matrix(1 0 0 1 1176 545.78)" class="st11 st6">Data t</text>
		<text transform="matrix(1 0 0 1 1213.48 545.78)" class="st11 st6">r</text>
		<text transform="matrix(1 0 0 1 1218.5601 545.78)" class="st11 st6">an</text>
		<text transform="matrix(1 0 0 1 1233.99 545.78)" class="st11 st6">s</text>
		<text transform="matrix(1 0 0 1 1240.74 545.78)" class="st11 st6">f</text>
		<text transform="matrix(1 0 0 1 1245.22 545.78)" class="st11 st6">ormation</text>
		<text transform="matrix(1 0 0 1 1176 563.78)" class="st11 st6">Ana</text>
		<text transform="matrix(1 0 0 1 1200.4 563.78)" class="st11 st6">l</text>
		<text transform="matrix(1 0 0 1 1204.0699 563.78)" class="st11 st6">ytics</text>
		<path class="st20" d="M1120.4,491.1h40l0,0v48l0,0h-48l0,0v-40C1112.4,494.7,1116,491.1,1120.4,491.1z"/>
		<g>
			<path class="st13" d="M1138.9,513h-5c-0.7,0-1.2,0.6-1.2,1.2v8.1c0,0.7,0.6,1.2,1.2,1.2h5c0.7,0,1.2-0.6,1.2-1.2v-8.2
				C1140.1,513.5,1139.5,513,1138.9,513z M1138.9,514.2v1.9h-5v-1.9H1138.9z M1138.9,517.4v1.9h-5v-1.9H1138.9z M1133.9,522.4v-1.9
				h5v1.9H1133.9z"/>
			<path class="st13" d="M1142.6,511.2C1142.6,511.2,1142.5,511.2,1142.6,511.2c-0.7-3.4-4.1-5.6-7.4-5c-2.5,0.5-4.4,2.4-4.9,4.9
				c0,0,0,0-0.1,0.1c-2.5,0.5-4.2,3-3.7,5.5c0.4,2.2,2.3,3.8,4.6,3.8h0.3v-1.2h-0.3c-1.9,0-3.4-1.6-3.4-3.4l0,0c0-0.2,0-0.3,0-0.5
				c0.3-1.5,1.4-2.7,2.9-2.9l0.6-0.1c0,0,0.1,0,0.1-0.1l0.1-0.6c0.4-2.2,2.1-3.9,4.3-4.2c0.6-0.1,1.2-0.1,1.8,0.1
				c2,0.5,3.5,2.1,3.8,4.1l0.1,0.6c0,0,0,0.1,0.1,0.1l0.7,0.1c0.7,0.1,1.4,0.5,1.9,1c1.3,1.3,1.4,3.5,0,4.9c-0.6,0.6-1.5,1-2.4,1
				h-0.3v1.2h0.3c2.6,0,4.7-2.1,4.7-4.7C1146.3,513.5,1144.7,511.6,1142.6,511.2L1142.6,511.2z"/>
			<rect id="_Transparent_Rectangle_28" x="1126.4" y="505.1" class="st1" width="20" height="20"/>
		</g>
	</g>
	<g id="iot-device-box">
		<path d="M135.8,315.2L135.8,315.2c13.3,0,24,10.7,24,24l0,0c0,13.3-10.7,24-24,24l0,0c-13.3,0-24-10.7-24-24l0,0
			C111.8,325.9,122.6,315.2,135.8,315.2z"/>
		<g>
			<path class="st13" d="M140.2,330.4h-8.8c-0.7,0-1.2,0.6-1.2,1.2v15c0,0.7,0.6,1.2,1.2,1.2h8.8c0.7,0,1.2-0.6,1.2-1.2v-15
				C141.4,331,140.9,330.4,140.2,330.4z M140.2,331.7v1.2h-8.8v-1.2H140.2z M131.4,346.7v-12.5h8.8v12.5H131.4z"/>
			<rect id="_Transparent_Rectangle_29" x="125.8" y="329.2" class="st1" width="20" height="20"/>
		</g>
		<text transform="matrix(1 0 0 1 114.18 380.56)" class="st2 st6">D</text>
		<text transform="matrix(1 0 0 1 123.83 380.56)" class="st2 st6">e</text>
		<text transform="matrix(1 0 0 1 131.51 380.56)" class="st2 st6">vi</text>
		<text transform="matrix(1 0 0 1 142.71 380.56)" class="st2 st6">c</text>
		<text transform="matrix(1 0 0 1 149.82 380.56)" class="st2 st6">e</text>
	</g>
	<rect x="391.8" y="990.1" class="st28" width="31.6" height="16"/>
	<polyline class="st28" points="393.8,988.1 425.5,988.1 425.5,1004.1 	"/>
	<polyline class="st28" points="395.8,986.1 427.5,986.1 427.5,1002.1 	"/>
	<text transform="matrix(1 0 0 1 432 1002.09)" class="st29 st11 st6">Scalable inf</text>
	<text transform="matrix(1 0 0 1 504.84 1002.09)" class="st29 st11 st6">r</text>
	<text transform="matrix(1 0 0 1 509.92 1002.09)" class="st29 st11 st6">a</text>
	<text transform="matrix(1 0 0 1 517.4 1002.09)" class="st29 st11 st6">s</text>
	<text transform="matrix(1 0 0 1 524.12 1002.09)" class="st29 st11 st6">tructu</text>
	<text transform="matrix(1 0 0 1 562.03 1002.09)" class="st29 st11 st6">r</text>
	<text transform="matrix(1 0 0 1 567.1 1002.09)" class="st29 st11 st6">e</text>
</g>
</svg>
